# Blender 4.0.2
# www.blender.org
mtllib double.mtl
o Cube
v -1.000000 -1.000000 1.000000
v -1.000000 1.000000 1.000000
v -1.000000 -1.000000 -1.000000
v -1.000000 1.000000 -1.000000
v 1.000000 -1.000000 1.000000
v 1.000000 1.000000 1.000000
v 1.000000 -1.000000 -1.000000
v 1.000000 1.000000 -1.000000
vn 1.0000 -0.0000 -0.0000
vn -0.0000 -0.0000 1.0000
vn -1.0000 -0.0000 -0.0000
vn -0.0000 -0.0000 -1.0000
vn -0.0000 -1.0000 -0.0000
vt 0.200306 0.395249
vt 0.400021 0.192189
vt 0.200306 0.193724
vt 0.200306 0.596774
vt 0.400021 0.394157
vt 0.200306 0.798299
vt 0.400021 0.596125
vt 0.200306 0.999824
vt 0.400021 0.798093
vt 0.600205 0.595664
vt 0.400021 1.000062
vt 0.600205 0.798210
s 0
usemtl Material.002
f 3/1/1 2/2/1 1/3/1
f 7/4/2 4/5/2 3/1/2
f 5/6/3 8/7/3 7/4/3
f 1/8/4 6/9/4 5/6/4
f 6/9/5 4/10/5 8/7/5
f 3/1/1 4/5/1 2/2/1
f 7/4/2 8/7/2 4/5/2
f 5/6/3 6/9/3 8/7/3
f 1/8/4 2/11/4 6/9/4
f 6/9/5 2/12/5 4/10/5
o Suzanne
v 0.260064 -0.374008 0.277047
v -0.260064 -0.374008 0.277047
v 0.297216 -0.349017 0.219785
v -0.297216 -0.349017 0.219785
v 0.325080 -0.299429 0.171750
v -0.325080 -0.299429 0.171750
v 0.208980 -0.339779 0.139075
v -0.208980 -0.339779 0.139075
v 0.208980 -0.381297 0.193644
v -0.208980 -0.381297 0.193644
v 0.208980 -0.390148 0.263977
v -0.208980 -0.390148 0.263977
v 0.162540 -0.390921 0.284731
v -0.162540 -0.390921 0.284731
v 0.120744 -0.378613 0.233232
v -0.120744 -0.378613 0.233232
v 0.092880 -0.337482 0.189039
v -0.092880 -0.337482 0.189039
v 0.046440 -0.295606 0.292434
v -0.046440 -0.295606 0.292434
v 0.083592 -0.342114 0.313565
v -0.083592 -0.342114 0.313565
v 0.143964 -0.371711 0.327012
v -0.143964 -0.371711 0.327012
v 0.162540 -0.350580 0.373520
v -0.162540 -0.350580 0.373520
v 0.120744 -0.305615 0.393898
v -0.120744 -0.305615 0.393898
v 0.092880 -0.243353 0.396214
v -0.092880 -0.243353 0.396214
v 0.208980 -0.207230 0.430811
v -0.208980 -0.207230 0.430811
v 0.208980 -0.277563 0.421959
v -0.208980 -0.277563 0.421959
v 0.208980 -0.334439 0.386590
v -0.208980 -0.334439 0.386590
v 0.260064 -0.333667 0.365836
v -0.260064 -0.333667 0.365836
v 0.297216 -0.276019 0.380451
v -0.297216 -0.276019 0.380451
v 0.325080 -0.205300 0.378925
v -0.325080 -0.205300 0.378925
v 0.371520 -0.244869 0.269382
v -0.371520 -0.244869 0.269382
v 0.334368 -0.304062 0.296276
v -0.334368 -0.304062 0.296276
v 0.278640 -0.350570 0.317407
v -0.278640 -0.350570 0.317407
v 0.283284 -0.359026 0.321249
v -0.283284 -0.359026 0.321249
v 0.264708 -0.340202 0.373906
v -0.264708 -0.340202 0.373906
v 0.208980 -0.343282 0.400810
v -0.208980 -0.343282 0.400810
v 0.157896 -0.361343 0.383511
v -0.157896 -0.361343 0.383511
v 0.134676 -0.384395 0.332775
v -0.134676 -0.384395 0.332775
v 0.157896 -0.405526 0.286266
v -0.157896 -0.405526 0.286266
v 0.208980 -0.388623 0.334696
v -0.208980 -0.388623 0.334696
v 0.208980 -0.406675 0.261284
v -0.208980 -0.406675 0.261284
v 0.264708 -0.384385 0.276661
v -0.264708 -0.384385 0.276661
v 0.000000 -0.296010 0.415038
v 0.000000 -0.357501 0.391967
v 0.000000 -0.564564 -0.187267
v 0.000000 -0.501566 0.018750
v 0.000000 -0.477366 0.094469
v 0.000000 -0.579160 -0.241845
v 0.000000 -0.225668 0.367776
v 0.000000 -0.168415 0.448881
v 0.000000 0.516879 0.351756
v 0.000000 0.599170 0.095031
v 0.000000 0.465463 -0.165573
v 0.000000 0.096133 -0.293620
v 0.120744 -0.350524 0.036839
v -0.120744 -0.350524 0.036839
v 0.185760 -0.416224 -0.096538
v -0.185760 -0.416224 -0.096538
v 0.208980 -0.479617 -0.236064
v -0.208980 -0.479617 -0.236064
v 0.218268 -0.506502 -0.351370
v -0.218268 -0.506502 -0.351370
v 0.195048 -0.515721 -0.382888
v -0.195048 -0.515721 -0.382888
v 0.106812 -0.538396 -0.387888
v -0.106812 -0.538396 -0.387888
v 0.000000 -0.554922 -0.390581
v 0.260064 -0.322086 0.054523
v -0.260064 -0.322086 0.054523
v 0.376164 -0.301341 0.111409
v -0.376164 -0.301341 0.111409
v 0.492263 -0.204500 0.189830
v -0.492263 -0.204500 0.189830
v 0.510839 -0.215677 0.378539
v -0.510839 -0.215677 0.378539
v 0.422603 -0.219142 0.415819
v -0.422603 -0.219142 0.415819
v 0.292572 -0.224152 0.494608
v -0.292572 -0.224152 0.494608
v 0.190404 -0.211100 0.590695
v -0.190404 -0.211100 0.590695
v 0.092880 -0.233389 0.575318
v -0.092880 -0.233389 0.575318
v 0.037152 -0.284870 0.450783
v -0.037152 -0.284870 0.450783
v 0.097524 -0.316764 0.414266
v -0.097524 -0.316764 0.414266
v 0.074304 -0.339430 0.353152
v -0.074304 -0.339430 0.353152
v 0.120744 -0.378613 0.233232
v -0.120744 -0.378613 0.233232
v 0.222912 -0.376683 0.181346
v -0.222912 -0.376683 0.181346
v 0.292572 -0.348245 0.199030
v -0.292572 -0.348245 0.199030
v 0.371520 -0.304825 0.260916
v -0.371520 -0.304825 0.260916
v 0.380808 -0.277931 0.320109
v -0.380808 -0.277931 0.320109
v 0.357588 -0.267177 0.366232
v -0.357588 -0.267177 0.366232
v 0.255420 -0.281405 0.413503
v -0.255420 -0.281405 0.413503
v 0.148608 -0.294861 0.440020
v -0.148608 -0.294861 0.440020
v 0.000000 -0.585695 -0.233775
v 0.065016 -0.574169 -0.208407
v -0.065016 -0.574169 -0.208407
v 0.069660 -0.590300 -0.277591
v -0.069660 -0.590300 -0.277591
v 0.037152 -0.593370 -0.306801
v -0.037152 -0.593370 -0.306801
v 0.000000 -0.591063 -0.312950
v 0.000000 -0.453918 0.078715
v 0.000000 -0.436243 0.106390
v 0.060372 -0.438164 0.102162
v -0.060372 -0.438164 0.102162
v 0.074304 -0.461602 0.061802
v -0.074304 -0.461602 0.061802
v 0.051084 -0.472742 0.026057
v -0.051084 -0.472742 0.026057
v 0.236844 -0.375139 0.139838
v -0.236844 -0.375139 0.139838
v 0.366876 -0.324797 0.183276
v -0.366876 -0.324797 0.183276
v 0.431891 -0.275614 0.257846
v -0.431891 -0.275614 0.257846
v 0.441179 -0.262949 0.364311
v -0.441179 -0.262949 0.364311
v 0.408671 -0.291396 0.402740
v -0.408671 -0.291396 0.402740
v 0.260064 -0.296792 0.491906
v -0.260064 -0.296792 0.491906
v 0.185760 -0.294880 0.552247
v -0.185760 -0.294880 0.552247
v 0.120744 -0.309099 0.543405
v -0.120744 -0.309099 0.543405
v 0.060372 -0.350975 0.440011
v -0.060372 -0.350975 0.440011
v 0.074304 -0.464691 0.144819
v -0.074304 -0.464691 0.144819
v 0.125388 -0.494250 -0.066188
v -0.125388 -0.494250 -0.066188
v 0.148608 -0.544959 -0.211477
v -0.148608 -0.544959 -0.211477
v 0.157896 -0.561090 -0.280661
v -0.157896 -0.561090 -0.280661
v 0.139320 -0.567229 -0.339081
v -0.139320 -0.567229 -0.339081
v 0.097524 -0.571071 -0.347538
v -0.097524 -0.571071 -0.347538
v 0.000000 -0.579141 -0.354073
v 0.000000 -0.381683 0.204021
v 0.000000 -0.362482 0.302415
v 0.195048 -0.284484 0.440406
v -0.195048 -0.284484 0.440406
v 0.097524 -0.371315 0.260521
v -0.097524 -0.371315 0.260521
v 0.078948 -0.358254 0.300494
v -0.078948 -0.358254 0.300494
v 0.069660 -0.566485 -0.191495
v -0.069660 -0.566485 -0.191495
v 0.046440 -0.515390 -0.056583
v -0.046440 -0.515390 -0.056583
v 0.000000 -0.515390 -0.056583
v 0.000000 -0.482347 0.004917
v 0.055728 -0.490040 0.044118
v -0.055728 -0.490040 0.044118
v 0.078948 -0.486971 0.073328
v -0.078948 -0.486971 0.073328
v 0.065016 -0.455462 0.120223
v -0.065016 -0.455462 0.120223
v 0.023220 -0.453541 0.124451
v -0.023220 -0.453541 0.124451
v 0.000000 -0.498120 0.093697
v 0.027864 -0.476217 0.119451
v -0.027864 -0.476217 0.119451
v 0.055728 -0.478138 0.115223
v -0.055728 -0.478138 0.115223
v 0.065016 -0.503883 0.081012
v -0.065016 -0.503883 0.081012
v 0.046440 -0.496962 0.062565
v -0.046440 -0.496962 0.062565
v 0.000000 -0.506567 0.041425
v 0.153252 -0.377032 -0.032731
v -0.153252 -0.377032 -0.032731
v 0.097524 -0.444304 0.043741
v -0.097524 -0.444304 0.043741
v 0.106812 -0.461593 0.005689
v -0.106812 -0.461593 0.005689
v 0.139320 -0.361664 0.001093
v -0.139320 -0.361664 0.001093
v 0.000000 -0.587221 -0.304494
v 0.027864 -0.585300 -0.300266
v -0.027864 -0.585300 -0.300266
v 0.055728 -0.586458 -0.269135
v -0.055728 -0.586458 -0.269135
v 0.055728 -0.575704 -0.223012
v -0.055728 -0.575704 -0.223012
v 0.000000 -0.547257 -0.261442
v 0.055728 -0.543801 -0.242608
v -0.055728 -0.543801 -0.242608
v 0.055728 -0.546484 -0.282196
v -0.055728 -0.546484 -0.282196
v 0.027864 -0.551861 -0.305257
v -0.027864 -0.551861 -0.305257
v 0.000000 -0.553782 -0.309485
v 0.102168 -0.369017 0.310485
v -0.102168 -0.369017 0.310485
v 0.111456 -0.380157 0.274740
v -0.111456 -0.380157 0.274740
v 0.199692 -0.304466 0.418880
v -0.199692 -0.304466 0.418880
v 0.162540 -0.314843 0.418494
v -0.162540 -0.314843 0.418494
v 0.250776 -0.320606 0.405810
v -0.250776 -0.320606 0.405810
v 0.334368 -0.289852 0.361231
v -0.334368 -0.289852 0.361231
v 0.348300 -0.300992 0.325486
v -0.348300 -0.300992 0.325486
v 0.343656 -0.319816 0.272828
v -0.343656 -0.319816 0.272828
v 0.283284 -0.364008 0.231697
v -0.283284 -0.364008 0.231697
v 0.222912 -0.386297 0.216319
v -0.222912 -0.386297 0.216319
v 0.134676 -0.395911 0.251293
v -0.134676 -0.395911 0.251293
v 0.106812 -0.349807 0.352766
v -0.106812 -0.349807 0.352766
v 0.125388 -0.330597 0.395047
v -0.125388 -0.330597 0.395047
v 0.139320 -0.321755 0.380827
v -0.139320 -0.321755 0.380827
v 0.116100 -0.337123 0.347003
v -0.116100 -0.337123 0.347003
v 0.143964 -0.379385 0.253986
v -0.143964 -0.379385 0.253986
v 0.222912 -0.372078 0.225162
v -0.222912 -0.372078 0.225162
v 0.273996 -0.351710 0.236311
v -0.273996 -0.351710 0.236311
v 0.325080 -0.311746 0.279363
v -0.325080 -0.311746 0.279363
v 0.329724 -0.294457 0.317416
v -0.329724 -0.294457 0.317416
v 0.315792 -0.285238 0.348933
v -0.315792 -0.285238 0.348933
v 0.246132 -0.309843 0.395819
v -0.246132 -0.309843 0.395819
v 0.167184 -0.316378 0.403889
v -0.167184 -0.316378 0.403889
v 0.199692 -0.306001 0.404275
v -0.199692 -0.306001 0.404275
v 0.120744 -0.363631 0.277433
v -0.120744 -0.363631 0.277433
v 0.116100 -0.350184 0.307030
v -0.116100 -0.350184 0.307030
v 0.065016 -0.216449 0.399293
v -0.065016 -0.216449 0.399293
v 0.116100 -0.170731 0.511144
v -0.116100 -0.170731 0.511144
v 0.199692 -0.152284 0.518065
v -0.199692 -0.152284 0.518065
v 0.287928 -0.163801 0.436583
v -0.287928 -0.163801 0.436583
v 0.404028 -0.154949 0.366250
v -0.404028 -0.154949 0.366250
v 0.473687 -0.149563 0.333198
v -0.473687 -0.149563 0.333198
v 0.459755 -0.162606 0.180997
v -0.459755 -0.162606 0.180997
v 0.357588 -0.224087 0.101813
v -0.357588 -0.224087 0.101813
v 0.260064 -0.276735 0.064523
v -0.260064 -0.276735 0.064523
v 0.000000 0.064477 0.557303
v 0.000000 0.284326 0.513525
v 0.000000 0.315588 -0.270907
v 0.000000 -0.214812 -0.203351
v 0.000000 -0.489580 -0.415168
v 0.000000 -0.383897 -0.350966
v 0.000000 -0.313583 -0.229887
v 0.000000 -0.271312 -0.192983
v 0.506195 0.028034 0.140289
v -0.506195 0.028034 0.140289
v 0.510839 0.104129 0.161824
v -0.510839 0.104129 0.161824
v 0.459755 0.302085 0.036178
v -0.459755 0.302085 0.036178
v 0.273996 0.488101 0.063881
v -0.273996 0.488101 0.063881
v 0.436535 -0.049578 -0.008079
v -0.436535 -0.049578 -0.008079
v 0.352944 0.058053 -0.107990
v -0.352944 0.058053 -0.107990
v 0.380808 0.230622 -0.109883
v -0.380808 0.230622 -0.109883
v 0.199692 0.372832 -0.133689
v -0.199692 0.372832 -0.133689
v 0.139320 -0.306304 -0.090370
v -0.139320 -0.306304 -0.090370
v 0.106812 -0.241339 -0.160694
v -0.106812 -0.241339 -0.160694
v 0.171828 -0.381986 -0.290624
v -0.171828 -0.381986 -0.290624
v 0.148608 -0.334347 -0.174546
v -0.148608 -0.334347 -0.174546
v 0.195048 -0.440388 -0.396711
v -0.195048 -0.440388 -0.396711
v 0.083592 -0.385055 -0.319834
v -0.083592 -0.385055 -0.319834
v 0.074304 -0.327039 -0.203370
v -0.074304 -0.327039 -0.203370
v 0.097524 -0.469212 -0.404019
v -0.097524 -0.469212 -0.404019
v 0.130032 -0.301699 -0.046555
v -0.130032 -0.301699 -0.046555
v 0.125388 -0.309392 -0.007354
v -0.125388 -0.309392 -0.007354
v 0.120744 -0.312857 0.029927
v -0.120744 -0.312857 0.029927
v 0.125388 -0.184839 -0.171062
v -0.125388 -0.184839 -0.171062
v 0.176472 0.066914 -0.234436
v -0.176472 0.066914 -0.234436
v 0.204336 0.255237 -0.212882
v -0.204336 0.255237 -0.212882
v 0.269352 0.420406 0.375185
v -0.269352 0.420406 0.375185
v 0.269352 0.266651 0.485849
v -0.269352 0.266651 0.485849
v 0.269352 0.082547 0.518488
v -0.269352 0.082547 0.518488
v 0.273996 -0.103836 0.388935
v -0.273996 -0.103836 0.388935
v 0.431891 -0.081914 0.302462
v -0.431891 -0.081914 0.302462
v 0.376164 -0.040792 0.314383
v -0.376164 -0.040792 0.314383
v 0.380808 0.143294 0.393972
v -0.380808 0.143294 0.393972
v 0.473687 0.070663 0.335156
v -0.473687 0.070663 0.335156
v 0.473687 0.215180 0.305201
v -0.473687 0.215180 0.305201
v 0.380808 0.290117 0.357868
v -0.380808 0.290117 0.357868
v 0.380808 0.408126 0.258344
v -0.380808 0.408126 0.258344
v 0.473687 0.327039 0.203370
v -0.473687 0.327039 0.203370
v 0.366876 0.397786 0.033503
v -0.366876 0.397786 0.033503
v 0.287928 0.301727 -0.121786
v -0.287928 0.301727 -0.121786
v 0.487619 0.190611 0.127632
v -0.487619 0.190611 0.127632
v 0.241488 -0.122595 -0.056518
v -0.241488 -0.122595 -0.056518
v 0.255420 0.066132 -0.157568
v -0.255420 0.066132 -0.157568
v 0.529415 0.226734 0.162229
v -0.529415 0.226734 0.162229
v 0.459755 0.033071 -0.106841
v -0.459755 0.033071 -0.106841
v 0.617651 0.152605 -0.135647
v -0.617651 0.152605 -0.135647
v 0.761615 0.245990 -0.076059
v -0.761615 0.245990 -0.076059
v 0.803411 0.307076 0.069616
v -0.803411 0.307076 0.069616
v 0.733751 0.353180 0.171090
v -0.733751 0.353180 0.171090
v 0.608363 0.286303 0.181071
v -0.608363 0.286303 0.181071
v 0.603719 0.258251 0.153010
v -0.603719 0.258251 0.153010
v 0.705887 0.318979 0.140721
v -0.705887 0.318979 0.140721
v 0.752327 0.290936 0.056546
v -0.752327 0.290936 0.056546
v 0.719819 0.239069 -0.057611
v -0.719819 0.239069 -0.057611
v 0.613007 0.155289 -0.096059
v -0.613007 0.155289 -0.096059
v 0.492263 0.054588 -0.070709
v -0.492263 0.054588 -0.070709
v 0.547991 0.206751 0.140703
v -0.547991 0.206751 0.140703
v 0.561923 0.231357 0.093817
v -0.561923 0.231357 0.093817
v 0.524771 0.108394 -0.064551
v -0.524771 0.108394 -0.064551
v 0.617651 0.198719 -0.090287
v -0.617651 0.198719 -0.090287
v 0.705887 0.264051 -0.058760
v -0.705887 0.264051 -0.058760
v 0.733751 0.302471 0.025801
v -0.733751 0.302471 0.025801
v 0.696599 0.325137 0.086915
v -0.696599 0.325137 0.086915
v 0.608363 0.279014 0.097668
v -0.608363 0.279014 0.097668
v 0.501551 0.185234 0.104571
v -0.501551 0.185234 0.104571
v 0.496907 0.190244 0.025782
v -0.496907 0.190244 0.025782
v 0.450467 0.171034 -0.016498
v -0.450467 0.171034 -0.016498
v 0.487619 0.169113 -0.020726
v -0.487619 0.169113 -0.020726
v 0.501551 0.151824 -0.058779
v -0.501551 0.151824 -0.058779
v 0.482975 0.144140 -0.075691
v -0.482975 0.144140 -0.075691
v 0.431891 0.038052 -0.017289
v -0.431891 0.038052 -0.017289
v 0.427247 0.087254 -0.054946
v -0.427247 0.087254 -0.054946
v 0.427247 0.111078 -0.024964
v -0.427247 0.111078 -0.024964
v 0.473687 0.164103 0.058062
v -0.473687 0.164103 0.058062
v 0.529415 0.203305 0.065756
v -0.529415 0.203305 0.065756
v 0.529415 0.230980 0.048081
v -0.529415 0.230980 0.048081
v 0.482975 0.169508 -0.087217
v -0.482975 0.169508 -0.087217
v 0.506195 0.177192 -0.070305
v -0.506195 0.177192 -0.070305
v 0.492263 0.192560 -0.036480
v -0.492263 0.192560 -0.036480
v 0.455111 0.196402 -0.028024
v -0.455111 0.196402 -0.028024
v 0.501551 0.215612 0.014256
v -0.501551 0.215612 0.014256
v 0.617651 0.304769 0.075765
v -0.617651 0.304769 0.075765
v 0.705887 0.346663 0.066932
v -0.705887 0.346663 0.066932
v 0.747683 0.325918 0.010047
v -0.747683 0.325918 0.010047
v 0.719819 0.283270 -0.072593
v -0.719819 0.283270 -0.072593
v 0.622295 0.228315 -0.103734
v -0.622295 0.228315 -0.103734
v 0.524771 0.139912 -0.073770
v -0.524771 0.139912 -0.073770
v 0.566567 0.257111 0.071914
v -0.566567 0.257111 0.071914
v 0.529415 0.204472 -0.021489
v -0.529415 0.204472 -0.021489
v 0.557279 0.197174 -0.048779
v -0.557279 0.197174 -0.048779
v 0.594431 0.229455 -0.022638
v -0.594431 0.229455 -0.022638
v 0.571211 0.232524 0.006572
v -0.571211 0.232524 0.006572
v 0.603719 0.260577 0.034634
v -0.603719 0.260577 0.034634
v 0.626939 0.253279 0.007344
v -0.626939 0.253279 0.007344
v 0.659447 0.263270 0.018108
v -0.659447 0.263270 0.018108
v 0.645515 0.278638 0.051932
v -0.645515 0.278638 0.051932
v 0.608363 0.369715 0.117669
v -0.608363 0.369715 0.117669
v 0.743039 0.411224 0.119213
v -0.743039 0.411224 0.119213
v 0.812699 0.343593 0.037722
v -0.812699 0.343593 0.037722
v 0.780191 0.300955 -0.101032
v -0.780191 0.300955 -0.101032
v 0.617651 0.245236 -0.167532
v -0.617651 0.245236 -0.167532
v 0.469043 0.146842 -0.148331
v -0.469043 0.146842 -0.148331
v 0.510839 0.301304 0.113046
v -0.510839 0.301304 0.113046
vn 0.6617 -0.7410 0.1141
vn -0.6617 -0.7410 0.1141
vn 0.8268 -0.5564 -0.0824
vn -0.8268 -0.5564 -0.0824
vn 0.4076 -0.7431 -0.5307
vn -0.4076 -0.7431 -0.5307
vn 0.3791 -0.9127 -0.1524
vn -0.3791 -0.9127 -0.1524
vn -0.0859 -0.9885 -0.1244
vn 0.0859 -0.9885 -0.1244
vn -0.2664 -0.7671 -0.5836
vn 0.2664 -0.7671 -0.5836
vn -0.7824 -0.6174 -0.0813
vn 0.7606 -0.6442 -0.0807
vn -0.4706 -0.8648 0.1753
vn 0.4706 -0.8648 0.1753
vn -0.4649 -0.7051 0.5354
vn 0.4649 -0.7051 0.5354
vn -0.7656 -0.3736 0.5238
vn 0.7683 -0.3635 0.5268
vn -0.2560 -0.1501 0.9550
vn 0.2487 -0.1209 0.9610
vn -0.0821 -0.4737 0.8768
vn 0.1017 -0.5253 0.8448
vn 0.3329 -0.4980 0.8008
vn -0.3861 -0.4526 0.8038
vn 0.4246 -0.1131 0.8983
vn -0.4059 -0.1405 0.9031
vn 0.8251 -0.3150 0.4691
vn -0.8299 -0.3101 0.4638
vn 0.6888 -0.5605 0.4598
vn -0.6617 -0.5734 0.4831
vn 0.8400 0.5245 0.1391
vn -0.7816 0.6215 0.0535
vn 0.2074 0.8152 0.5408
vn -0.2037 0.8314 0.5170
vn -0.4056 0.7762 0.4827
vn 0.4381 0.7058 0.5567
vn -0.8642 0.4877 0.1236
vn 0.7861 0.6127 0.0814
vn -0.7782 0.3260 -0.5367
vn 0.7782 0.3260 -0.5367
vn -0.4381 0.0449 -0.8978
vn 0.4381 0.0449 -0.8978
vn 0.2037 0.1575 -0.9663
vn -0.2037 0.1575 -0.9663
vn 0.7683 0.3635 -0.5268
vn -0.7683 0.3635 -0.5268
vn 0.4000 -0.8583 0.3215
vn -0.4000 -0.8583 0.3215
vn 0.3069 -0.9242 0.2273
vn -0.3069 -0.9242 0.2273
vn 0.0945 -0.9667 0.2377
vn -0.0945 -0.9667 0.2377
vn -0.0624 -0.9200 0.3869
vn 0.0624 -0.9200 0.3869
vn -0.0624 -0.8976 0.4364
vn 0.0624 -0.8976 0.4364
vn 0.0996 -0.8206 0.5628
vn -0.0996 -0.8206 0.5628
vn 0.3036 -0.7858 0.5389
vn -0.3036 -0.7858 0.5389
vn 0.4002 -0.8091 0.4304
vn -0.4002 -0.8091 0.4304
vn 0.1367 -0.7850 -0.6042
vn -0.1054 -0.8287 -0.5497
vn 0.2303 -0.7629 -0.6041
vn -0.1916 -0.7838 -0.5907
vn 0.5788 -0.7919 -0.1948
vn -0.5788 -0.7919 -0.1948
vn 0.7763 -0.5972 0.2018
vn -0.7763 -0.5972 0.2018
vn 0.7471 -0.5495 0.3740
vn -0.7471 -0.5495 0.3740
vn 0.3747 -0.7130 -0.5927
vn -0.3747 -0.7130 -0.5927
vn 0.3557 -0.8340 -0.4218
vn -0.4177 -0.8783 -0.2327
vn 0.6947 -0.7054 -0.1405
vn -0.6947 -0.7054 -0.1405
vn 0.7028 -0.7027 -0.1108
vn -0.5537 -0.8312 0.0506
vn 0.3127 -0.6649 0.6783
vn -0.8227 -0.2510 0.5101
vn 0.5091 -0.2474 0.8244
vn -0.5041 -0.2563 0.8247
vn 0.5977 -0.2952 0.7454
vn -0.5977 -0.2952 0.7454
vn -0.0486 -0.4144 0.9088
vn 0.0371 -0.3997 0.9159
vn -0.7104 -0.4789 0.5158
vn 0.7386 -0.3530 0.5743
vn -0.6013 -0.3298 0.7278
vn 0.5774 -0.2868 0.7645
vn 0.5070 -0.7972 -0.3277
vn -0.5364 -0.8435 0.0284
vn 0.2226 -0.9721 -0.0739
vn -0.2226 -0.9721 -0.0739
vn -0.0348 -0.9811 -0.1905
vn 0.1073 -0.9891 -0.1009
vn -0.0899 -0.8833 -0.4602
vn 0.0770 -0.9792 -0.1876
vn 0.0547 -0.9660 0.2528
vn -0.0279 -0.8146 -0.5794
vn 0.4260 -0.8470 0.3180
vn -0.1687 -0.9804 0.1019
vn 0.3352 -0.9171 0.2159
vn -0.4350 -0.8780 0.1998
vn 0.3579 -0.9298 0.0855
vn -0.3223 -0.9386 0.1230
vn 0.3069 -0.7575 0.5762
vn -0.4815 -0.8668 0.1294
vn -0.1598 -0.6640 0.7304
vn 0.1598 -0.6640 0.7304
vn 0.6819 -0.7314 0.0122
vn -0.1854 -0.9775 -0.1002
vn 0.0585 -0.9384 0.3406
vn -0.0585 -0.9384 0.3406
vn -0.0066 -0.9815 0.1915
vn -0.0585 -0.9406 0.3345
vn 0.1008 -0.9280 -0.3586
vn -0.1008 -0.9280 -0.3586
vn 0.1322 -0.9680 -0.2135
vn -0.1322 -0.9680 -0.2135
vn 0.3128 -0.9201 0.2355
vn -0.3143 -0.9493 -0.0002
vn 0.3288 -0.8741 0.3576
vn -0.3288 -0.8741 0.3576
vn 0.3233 -0.8918 0.3164
vn -0.3233 -0.8918 0.3164
vn -0.0232 -0.8879 0.4595
vn -0.0000 -0.8809 0.4733
vn -0.0043 -0.9354 0.3535
vn -0.0000 -0.9359 0.3522
vn -0.0000 -0.9104 0.4137
vn 0.8447 -0.2611 -0.4673
vn -0.8447 -0.2611 -0.4673
vn 0.9500 0.2555 0.1796
vn -0.9500 0.2555 0.1796
vn 0.0693 0.7634 0.6421
vn -0.1018 0.7314 0.6743
vn -1.0000 -0.0000 -0.0000
vn 0.6905 -0.2014 0.6948
vn 0.4071 -0.5336 -0.7413
vn -0.4319 -0.5933 -0.6793
vn 0.2873 -0.9354 -0.2063
vn -0.2873 -0.9354 -0.2063
vn -0.6326 -0.2881 0.7189
vn 0.6326 -0.2881 0.7189
vn 0.0862 -0.2481 0.9649
vn -0.0862 -0.2481 0.9649
vn 0.7532 -0.4201 0.5061
vn -0.7639 -0.3987 0.5074
vn 0.3416 -0.9235 -0.1745
vn -0.3416 -0.9235 -0.1745
vn 0.0502 -0.7870 0.6150
vn -0.0375 -0.7935 0.6074
vn -0.1304 -0.9643 -0.2304
vn 0.1304 -0.9643 -0.2304
vn -0.5059 -0.7530 0.4208
vn 0.5059 -0.7530 0.4208
vn -0.5774 -0.7645 -0.2868
vn 0.5774 -0.7645 -0.2868
vn 0.5460 -0.8324 -0.0953
vn -0.3319 -0.8257 0.4562
vn 0.3231 -0.8483 0.4196
vn -0.2815 -0.8441 0.4563
vn 0.7357 -0.3418 0.5848
vn -0.8753 -0.3132 0.3685
vn 0.8480 -0.2545 0.4649
vn -0.8973 -0.2761 0.3444
vn 0.8505 -0.1741 0.4963
vn -0.8505 -0.1741 0.4963
vn 0.1783 -0.9839 -0.0100
vn -0.2524 -0.7520 -0.6089
vn -0.1296 -0.9657 0.2252
vn 0.1296 -0.9657 0.2252
vn -0.4472 -0.8143 0.3700
vn 0.4472 -0.8143 0.3700
vn -0.1582 0.1458 0.9766
vn 0.1582 0.1458 0.9766
vn -0.6463 0.1126 0.7547
vn 0.6463 0.1126 0.7547
vn 1.0000 -0.0000 -0.0000
vn 0.3051 -0.4984 -0.8115
vn -0.3051 -0.4984 -0.8115
vn 0.0217 -0.9928 0.1181
vn -0.0217 -0.9928 0.1181
vn 0.1353 -0.9885 0.0670
vn -0.1353 -0.9885 0.0670
vn -0.4681 -0.8709 0.1498
vn 0.4681 -0.8709 0.1498
vn -0.2710 -0.8648 0.4227
vn 0.2710 -0.8648 0.4227
vn -0.1717 -0.9006 0.3993
vn 0.2595 -0.8312 0.4917
vn -0.4332 -0.8918 -0.1301
vn 0.6684 -0.7226 -0.1764
vn -0.1599 -0.7716 -0.6156
vn 0.1599 -0.7716 -0.6156
vn 0.3900 -0.8879 -0.2441
vn -0.3900 -0.8879 -0.2441
vn 0.6547 -0.7367 -0.1694
vn -0.6547 -0.7367 -0.1694
vn 0.5378 -0.8078 0.2413
vn -0.5378 -0.8078 0.2413
vn 0.5657 -0.6933 0.4464
vn -0.5774 -0.6881 0.4395
vn 0.4082 -0.5745 0.7094
vn -0.5214 -0.2234 0.8236
vn 0.1796 -0.2099 0.9611
vn -0.1796 -0.2099 0.9611
vn 0.1881 -0.6992 0.6897
vn -0.1881 -0.6992 0.6897
vn -0.0870 -0.7576 0.6469
vn 0.0870 -0.7576 0.6469
vn 0.2804 -0.9413 0.1881
vn -0.3553 -0.9092 -0.2173
vn 0.3015 -0.9482 0.0997
vn -0.3015 -0.9482 0.0997
vn -0.3766 -0.7123 -0.5923
vn 0.0631 -0.9925 0.1043
vn 0.0823 -0.8858 -0.4567
vn 0.2016 -0.7117 -0.6730
vn -0.3707 -0.9227 0.1060
vn 0.3707 -0.9227 0.1060
vn -0.2692 -0.8991 0.3452
vn 0.4568 -0.7876 0.4136
vn -0.2797 -0.5152 0.8101
vn 0.2797 -0.5152 0.8101
vn -0.0213 -0.5280 0.8490
vn 0.0487 -0.3829 0.9225
vn 0.3778 -0.3519 0.8564
vn -0.3378 -0.4970 0.7993
vn 0.4988 -0.4052 0.7662
vn -0.4988 -0.4052 0.7662
vn 0.5425 -0.8400 0.0092
vn -0.5425 -0.8400 0.0092
vn 0.8305 -0.5295 0.1730
vn -0.8305 -0.5295 0.1730
vn 0.7814 -0.5128 0.3556
vn -0.7814 -0.5128 0.3556
vn -0.4338 0.5025 0.7479
vn 0.4338 0.5025 0.7479
vn -0.8515 0.4890 0.1890
vn 0.8515 0.4890 0.1890
vn -0.2664 0.7361 0.6223
vn 0.2197 0.7717 0.5968
vn 0.5932 0.5868 0.5511
vn -0.5914 0.5821 0.5581
vn 0.3714 0.6582 0.6548
vn -0.3653 0.6329 0.6827
vn 0.2901 0.6361 0.7150
vn -0.2901 0.6361 0.7150
vn 0.8873 0.4573 -0.0603
vn -0.7964 0.5919 -0.1236
vn 0.5108 0.2212 -0.8308
vn -0.5108 0.2212 -0.8308
vn 0.3695 -0.0265 -0.9289
vn -0.3695 -0.0265 -0.9289
vn 0.3617 0.6131 -0.7023
vn -0.1649 0.3888 -0.9064
vn 0.1952 0.8481 -0.4925
vn -0.3011 0.8629 -0.4058
vn -0.0107 0.5192 -0.8546
vn -0.2562 0.7045 -0.6618
vn 0.1533 -0.2048 -0.9667
vn -0.1533 -0.2048 -0.9667
vn 0.1260 -0.1790 -0.9757
vn -0.1260 -0.1790 -0.9757
vn 0.9396 0.3419 0.0174
vn -0.9396 0.3419 0.0174
vn 0.9278 0.3716 0.0331
vn -0.9278 0.3716 0.0331
vn 0.2192 0.9172 -0.3326
vn -0.2192 0.9172 -0.3326
vn 0.1211 0.8805 -0.4582
vn 0.1497 0.6868 -0.7113
vn 0.9094 0.4143 -0.0377
vn -0.3706 0.2976 -0.8798
vn 0.9202 0.3904 -0.0285
vn -0.9202 0.3904 -0.0285
vn 0.9173 0.3250 0.2302
vn -0.9457 0.2790 0.1668
vn 0.9004 0.3673 0.2331
vn -0.9337 0.3180 0.1645
vn 0.8945 0.0807 0.4397
vn -0.9501 0.2765 0.1441
vn 0.1596 -0.1782 -0.9710
vn -0.1835 0.2117 -0.9600
vn 0.3693 0.5344 -0.7603
vn -0.3727 0.5284 -0.7628
vn 0.2986 0.0982 -0.9493
vn -0.3263 0.0597 -0.9434
vn 0.2995 -0.2660 -0.9163
vn -0.2995 -0.2660 -0.9163
vn 0.3287 -0.1705 -0.9289
vn -0.3287 -0.1705 -0.9289
vn 0.8305 0.5442 0.1188
vn -0.8642 -0.3504 -0.3611
vn 0.9166 -0.2835 -0.2820
vn -0.9166 -0.2835 -0.2820
vn 0.2950 0.8501 -0.4362
vn -0.4189 0.7069 -0.5700
vn 0.1272 0.1937 0.9728
vn -0.1119 0.1735 0.9785
vn 0.1320 0.5661 0.8137
vn -0.1320 0.5661 0.8137
vn 0.3878 0.8778 0.2814
vn -0.3878 0.8778 0.2814
vn 0.4951 0.4567 0.7391
vn -0.4951 0.4567 0.7391
vn 0.2561 -0.3890 0.8849
vn -0.2561 -0.3890 0.8849
vn 0.5966 0.1916 0.7794
vn -0.5966 0.1916 0.7794
vn 0.7125 0.4524 0.5364
vn -0.7125 0.4524 0.5364
vn 0.7104 0.6850 -0.1614
vn -0.6304 0.7727 -0.0746
vn 0.6823 0.7271 -0.0757
vn -0.6823 0.7271 -0.0757
vn 0.6574 0.4858 0.5760
vn -0.6574 0.4858 0.5760
vn 0.7289 0.1635 0.6648
vn -0.7289 0.1635 0.6648
vn 0.7791 -0.2652 0.5680
vn -0.7791 -0.2652 0.5680
vn 0.3669 0.6295 0.6849
vn -0.3238 0.4557 0.8291
vn 0.2854 -0.4045 0.8689
vn -0.1548 -0.5613 0.8130
vn -0.1681 0.9344 -0.3141
vn 0.1681 0.9344 -0.3141
vn 0.2925 -0.4661 0.8350
vn -0.2925 -0.4661 0.8350
vn -0.1616 -0.8062 0.5691
vn 0.1616 -0.8062 0.5691
vn 0.8681 0.4815 -0.1207
vn -0.9340 -0.1592 0.3200
vn 0.9276 -0.3014 0.2207
vn -0.9276 -0.3014 0.2207
vn 0.9750 0.0451 0.2177
vn -0.9750 0.0451 0.2177
vn 0.9817 0.1588 -0.1055
vn -0.9956 0.0632 0.0694
vn 0.7466 -0.3009 -0.5933
vn -0.6374 -0.3998 -0.6587
vn 0.3723 -0.4595 -0.8064
vn -0.3720 -0.4593 -0.8066
vn 0.3986 -0.6110 -0.6839
vn -0.3986 -0.6110 -0.6839
vn 0.6328 -0.4296 -0.6442
vn -0.6328 -0.4296 -0.6442
vn 0.7325 -0.4825 -0.4802
vn -0.7325 -0.4825 -0.4802
vn 0.2637 -0.9629 -0.0567
vn -0.2637 -0.9629 -0.0567
vn 0.5881 0.5543 -0.5890
vn -0.5236 0.5794 -0.6246
vn 0.4694 0.6744 -0.5700
vn -0.5396 0.5652 -0.6240
vn 0.4463 -0.0818 -0.8912
vn -0.2144 0.1177 -0.9696
vn 0.6973 -0.0212 -0.7164
vn -0.7365 0.0011 -0.6764
vn 0.4972 0.4981 -0.7104
vn -0.4972 0.4981 -0.7104
vn 0.3691 -0.6871 0.6258
vn -0.3244 -0.5372 0.7786
vn 0.4467 -0.7694 0.4566
vn -0.4467 -0.7694 0.4566
vn 0.3188 -0.7612 0.5647
vn -0.1817 -0.8985 0.3996
vn 0.2076 -0.9219 0.3270
vn -0.2925 -0.8992 0.3253
vn 0.3398 -0.8189 0.4625
vn -0.5847 -0.8019 0.1230
vn 0.5957 -0.8011 -0.0589
vn -0.5957 -0.8011 -0.0589
vn 0.4843 -0.3827 0.7868
vn -0.4843 -0.3827 0.7868
vn -0.2675 -0.0988 0.9585
vn 0.2675 -0.0988 0.9585
vn -0.8576 -0.3302 0.3943
vn 0.7885 -0.4190 0.4502
vn -0.5257 -0.8507 -0.0066
vn 0.5242 -0.8516 -0.0028
vn 0.4663 -0.8404 -0.2762
vn -0.4390 -0.8810 -0.1766
vn 0.7104 -0.6765 -0.1942
vn -0.7104 -0.6765 -0.1942
vn 0.7507 -0.0296 -0.6600
vn -0.6302 -0.4335 -0.6441
vn -0.1788 -0.7344 0.6548
vn 0.2175 -0.7400 0.6364
vn 0.9042 0.0643 -0.4223
vn -0.9042 0.0643 -0.4223
vn 0.0400 -0.7149 0.6981
vn -0.0400 -0.7149 0.6981
vn 0.2734 0.0817 0.9584
vn -0.2734 0.0817 0.9584
vn 0.4480 -0.8897 -0.0878
vn -0.7177 -0.5452 0.4332
vn 0.5534 -0.7957 -0.2463
vn -0.9008 -0.3052 -0.3089
vn 0.5724 -0.8195 0.0294
vn -0.5815 -0.7841 -0.2167
vn 0.5597 -0.7905 -0.2486
vn -0.6138 -0.7860 0.0747
vn 0.8271 0.3842 0.4101
vn -0.8271 0.3842 0.4101
vn 0.9227 -0.0806 -0.3770
vn -0.8717 0.0039 -0.4901
vn 0.9972 0.0585 -0.0465
vn -0.9972 0.0585 -0.0465
vn 0.6895 -0.5374 -0.4856
vn -0.6895 -0.5374 -0.4856
vn 0.7815 -0.3358 -0.5258
vn -0.7930 -0.3663 -0.4868
vn 0.7022 -0.3970 -0.5909
vn -0.7022 -0.3970 -0.5909
vn 0.1240 0.3916 0.9118
vn -0.2408 0.5080 0.8270
vn 0.9435 0.0346 0.3297
vn -0.9251 0.0031 0.3796
vn 0.6213 -0.4156 -0.6643
vn -0.6213 -0.4156 -0.6643
vn -0.0000 0.4137 0.9104
vn 0.6197 -0.6260 -0.4733
vn -0.6197 -0.6260 -0.4733
vn 0.2752 -0.7152 -0.6425
vn -0.2752 -0.7152 -0.6425
vn -0.7929 0.0640 -0.6059
vn 0.7929 0.0640 -0.6059
vn -0.8096 0.5870 0.0001
vn 0.8538 0.5203 0.0194
vn -0.5621 0.4136 0.7162
vn 0.5433 0.7129 0.4433
vn -0.0071 0.2807 0.9598
vn 0.1096 0.4254 0.8984
vn 0.1046 -0.8885 0.4468
vn -0.1738 -0.8925 0.4161
vn 0.2461 -0.8438 0.4769
vn -0.4134 -0.8110 0.4139
vn 0.3009 -0.8258 0.4769
vn -0.3009 -0.8258 0.4769
vn 0.2104 -0.8849 0.4156
vn -0.1220 -0.8837 0.4518
vn -0.0099 -0.6796 0.7335
vn 0.0099 -0.6796 0.7335
vn 0.3787 -0.8570 0.3494
vn -0.4244 -0.8371 0.3452
vn 0.2530 -0.9422 0.2197
vn -0.2570 -0.8475 0.4644
vn -0.4870 -0.3183 0.8133
vn 0.2981 -0.2346 0.9253
vn 0.6693 -0.5817 0.4622
vn -0.6693 -0.5817 0.4622
vn 0.4388 -0.8805 0.1795
vn -0.4723 -0.8640 0.1744
vn 0.5786 -0.7877 0.2114
vn -0.2975 -0.9546 -0.0125
vn 0.5002 -0.6277 0.5964
vn -0.5002 -0.6277 0.5964
vn 0.2980 -0.4501 0.8418
vn -0.2980 -0.4501 0.8418
vn 0.0929 -0.3241 -0.9415
vn -0.0929 -0.3241 -0.9415
vn 0.4688 -0.4918 -0.7337
vn -0.4688 -0.4918 -0.7337
vn 0.9309 -0.3440 -0.1228
vn -0.9264 -0.3613 -0.1060
vn 0.8465 0.2730 0.4571
vn -0.8267 0.2359 0.5109
vn -0.2511 0.5858 0.7706
vn 0.2146 0.6697 0.7109
vn -0.4841 0.3945 0.7810
vn 0.4196 0.5493 0.7227
vn -0.5256 0.7733 -0.3546
vn 0.5470 0.7561 -0.3593
vn -0.1466 0.9048 -0.3997
vn 0.1466 0.9048 -0.3997
vn 0.4046 0.8432 -0.3539
vn -0.4046 0.8432 -0.3539
vn -0.8073 0.2404 0.5390
vn 0.7330 0.2377 0.6373
vn 0.4200 0.7047 -0.5718
vn -0.4200 0.7047 -0.5718
vn -0.0687 -0.3368 -0.9391
vn 0.0687 -0.3368 -0.9391
vn 0.6713 -0.7320 0.1161
vn -0.6713 -0.7320 0.1161
vn 0.8326 -0.5477 -0.0825
vn -0.8326 -0.5477 -0.0825
vn 0.4258 -0.7201 -0.5479
vn -0.4258 -0.7201 -0.5479
vn 0.3265 -0.9378 -0.1180
vn -0.3265 -0.9378 -0.1180
vn -0.0649 -0.9812 -0.1818
vn 0.0649 -0.9812 -0.1818
vn -0.2738 -0.7840 -0.5571
vn 0.2738 -0.7840 -0.5571
vn -0.7606 -0.6442 -0.0807
vn 0.7824 -0.6174 -0.0813
vn -0.4658 -0.8646 0.1882
vn 0.4658 -0.8646 0.1882
vn -0.4983 -0.6969 0.5157
vn 0.4983 -0.6969 0.5157
vn -0.7683 -0.3635 0.5268
vn 0.7656 -0.3736 0.5238
vn -0.2487 -0.1209 0.9610
vn 0.2560 -0.1501 0.9550
vn -0.1017 -0.5253 0.8448
vn 0.0821 -0.4737 0.8768
vn 0.3861 -0.4526 0.8038
vn -0.3329 -0.4980 0.8008
vn 0.4059 -0.1405 0.9031
vn -0.4246 -0.1131 0.8983
vn 0.8299 -0.3101 0.4638
vn -0.8251 -0.3150 0.4691
vn 0.6617 -0.5734 0.4831
vn -0.6888 -0.5605 0.4598
vn 0.7816 0.6215 0.0535
vn -0.8400 0.5245 0.1391
vn 0.2037 0.8314 0.5170
vn -0.2074 0.8152 0.5408
vn -0.4381 0.7058 0.5567
vn 0.4056 0.7762 0.4827
vn -0.7861 0.6127 0.0814
vn 0.8642 0.4877 0.1236
vn -0.8519 0.2210 -0.4747
vn 0.8519 0.2210 -0.4747
vn -0.4056 0.1470 -0.9021
vn 0.4056 0.1470 -0.9021
vn 0.2074 0.1289 -0.9697
vn -0.2074 0.1289 -0.9697
vn 0.8297 0.2233 -0.5116
vn -0.8297 0.2233 -0.5116
vn 0.1054 -0.8287 -0.5497
vn -0.1367 -0.7850 -0.6042
vn 0.1916 -0.7838 -0.5907
vn -0.2303 -0.7629 -0.6041
vn 0.5959 -0.7961 -0.1058
vn -0.5959 -0.7961 -0.1058
vn 0.7563 -0.6073 0.2431
vn -0.7563 -0.6073 0.2431
vn 0.8069 -0.5056 0.3054
vn -0.8069 -0.5056 0.3054
vn 0.2334 -0.8530 -0.4669
vn -0.2334 -0.8530 -0.4669
vn 0.4177 -0.8783 -0.2327
vn -0.3557 -0.8340 -0.4218
vn 0.6872 -0.7136 -0.1361
vn -0.6872 -0.7136 -0.1361
vn 0.5537 -0.8312 0.0506
vn -0.7028 -0.7027 -0.1108
vn 0.8227 -0.2510 0.5101
vn -0.3127 -0.6649 0.6783
vn 0.5041 -0.2563 0.8247
vn -0.5091 -0.2474 0.8244
vn 0.6155 -0.3567 0.7029
vn -0.6155 -0.3567 0.7029
vn -0.0371 -0.3997 0.9159
vn 0.0486 -0.4144 0.9088
vn -0.7386 -0.3530 0.5743
vn 0.7104 -0.4789 0.5158
vn -0.5774 -0.2868 0.7645
vn 0.6013 -0.3298 0.7278
vn 0.5364 -0.8435 0.0284
vn -0.5070 -0.7972 -0.3277
vn 0.2181 -0.9732 -0.0724
vn -0.2181 -0.9732 -0.0724
vn -0.1073 -0.9891 -0.1009
vn 0.0348 -0.9811 -0.1905
vn -0.0770 -0.9792 -0.1876
vn 0.0899 -0.8833 -0.4602
vn 0.0279 -0.8146 -0.5794
vn -0.0547 -0.9660 0.2528
vn 0.1687 -0.9804 0.1019
vn -0.4260 -0.8470 0.3180
vn 0.4350 -0.8780 0.1998
vn -0.3352 -0.9171 0.2159
vn 0.3223 -0.9386 0.1230
vn -0.3579 -0.9298 0.0855
vn 0.4815 -0.8668 0.1294
vn -0.3069 -0.7575 0.5762
vn -0.0317 -0.9720 0.2330
vn 0.0317 -0.9720 0.2330
vn 0.1854 -0.9775 -0.1002
vn -0.6819 -0.7314 0.0122
vn 0.2623 -0.9635 0.0536
vn -0.2623 -0.9635 0.0536
vn 0.0585 -0.9406 0.3345
vn 0.0066 -0.9815 0.1915
vn -0.0136 -0.9604 -0.2784
vn 0.0136 -0.9604 -0.2784
vn 0.2404 -0.9562 -0.1671
vn -0.2404 -0.9562 -0.1671
vn 0.3143 -0.9493 -0.0002
vn -0.3128 -0.9201 0.2355
vn 0.2821 -0.8801 0.3819
vn -0.2821 -0.8801 0.3819
vn 0.3273 -0.9096 0.2560
vn -0.3273 -0.9096 0.2560
vn 0.0232 -0.8879 0.4595
vn 0.0043 -0.9354 0.3535
vn 0.7826 -0.1330 -0.6081
vn -0.7826 -0.1330 -0.6081
vn 0.9448 0.3213 0.0648
vn -0.9448 0.3213 0.0648
vn 0.1018 0.7314 0.6743
vn -0.0693 0.7634 0.6421
vn -0.6905 -0.2014 0.6948
vn 0.4319 -0.5933 -0.6793
vn -0.4071 -0.5336 -0.7413
vn -0.6667 -0.0277 0.7448
vn 0.6667 -0.0277 0.7448
vn 0.1348 -0.1870 0.9731
vn -0.1348 -0.1870 0.9731
vn 0.7639 -0.3987 0.5074
vn -0.7532 -0.4201 0.5061
vn 0.4116 -0.6358 -0.6530
vn -0.4116 -0.6358 -0.6530
vn 0.0375 -0.7935 0.6074
vn -0.0502 -0.7870 0.6150
vn 0.1304 -0.9788 0.1582
vn -0.1304 -0.9788 0.1582
vn -0.0631 -0.8566 -0.5121
vn 0.0631 -0.8566 -0.5121
vn 0.7325 -0.4477 0.5129
vn -0.7325 -0.4477 0.5129
vn 0.3319 -0.8257 0.4562
vn -0.5460 -0.8324 -0.0953
vn 0.2815 -0.8441 0.4563
vn -0.3231 -0.8483 0.4196
vn 0.8753 -0.3132 0.3685
vn -0.7357 -0.3418 0.5848
vn 0.8973 -0.2761 0.3444
vn -0.8480 -0.2545 0.4649
vn 0.9586 -0.2245 0.1749
vn -0.9586 -0.2245 0.1749
vn 0.2524 -0.7520 -0.6089
vn -0.1783 -0.9839 -0.0100
vn -0.1751 -0.9614 0.2124
vn 0.1751 -0.9614 0.2124
vn -0.1219 -0.9638 0.2370
vn 0.1219 -0.9638 0.2370
vn -0.1562 -0.7239 0.6720
vn 0.1562 -0.7239 0.6720
vn -0.7238 0.2143 0.6558
vn 0.7238 0.2143 0.6558
vn 0.0478 -0.9898 0.1344
vn -0.0478 -0.9898 0.1344
vn -0.5488 -0.8357 0.0180
vn 0.5488 -0.8357 0.0180
vn -0.4945 -0.8314 0.2536
vn 0.4945 -0.8314 0.2536
vn -0.2595 -0.8312 0.4917
vn 0.1717 -0.9006 0.3993
vn -0.6684 -0.7226 -0.1764
vn 0.4332 -0.8918 -0.1301
vn -0.1156 -0.9578 -0.2633
vn 0.1156 -0.9578 -0.2633
vn 0.4242 -0.8569 -0.2929
vn -0.4242 -0.8569 -0.2929
vn 0.4767 -0.8790 0.0087
vn -0.4767 -0.8790 0.0087
vn 0.5871 -0.7677 0.2567
vn -0.5871 -0.7677 0.2567
vn 0.5774 -0.6881 0.4395
vn -0.5657 -0.6933 0.4464
vn 0.5214 -0.2234 0.8236
vn -0.4082 -0.5745 0.7094
vn 0.3358 -0.6531 0.6787
vn -0.3358 -0.6531 0.6787
vn 0.1452 -0.6765 0.7220
vn -0.1452 -0.6765 0.7220
vn 0.0301 -0.7901 0.6123
vn -0.0301 -0.7901 0.6123
vn 0.3553 -0.9092 -0.2173
vn -0.2804 -0.9413 0.1881
vn 0.2627 -0.9473 0.1831
vn -0.2627 -0.9473 0.1831
vn -0.0631 -0.9925 0.1043
vn 0.3766 -0.7123 -0.5923
vn -0.2016 -0.7117 -0.6730
vn -0.0823 -0.8858 -0.4567
vn -0.3356 -0.9286 0.1586
vn 0.3356 -0.9286 0.1586
vn -0.4568 -0.7876 0.4136
vn 0.2692 -0.8991 0.3452
vn -0.0247 -0.6628 0.7484
vn 0.0247 -0.6628 0.7484
vn -0.0487 -0.3829 0.9225
vn 0.0213 -0.5280 0.8490
vn 0.3378 -0.4970 0.7993
vn -0.3778 -0.3519 0.8564
vn 0.7895 -0.6098 -0.0698
vn -0.7895 -0.6098 -0.0698
vn 0.8070 -0.5660 0.1685
vn -0.8070 -0.5660 0.1685
vn 0.7868 -0.5009 0.3606
vn -0.7868 -0.5009 0.3606
vn -0.6357 0.6125 0.4698
vn 0.6357 0.6125 0.4698
vn -0.8507 0.4954 0.1759
vn 0.8507 0.4954 0.1759
vn -0.2197 0.7717 0.5968
vn 0.2664 0.7361 0.6223
vn 0.5914 0.5821 0.5581
vn -0.5932 0.5868 0.5511
vn 0.3653 0.6329 0.6827
vn -0.3714 0.6582 0.6548
vn 0.2760 0.6443 0.7132
vn -0.2760 0.6443 0.7132
vn 0.7964 0.5919 -0.1236
vn -0.8873 0.4573 -0.0603
vn 0.5442 0.0267 -0.8386
vn -0.5442 0.0267 -0.8386
vn 0.4027 0.1971 -0.8938
vn -0.4027 0.1971 -0.8938
vn 0.1649 0.3888 -0.9064
vn -0.3617 0.6131 -0.7023
vn 0.3011 0.8629 -0.4058
vn -0.1952 0.8481 -0.4925
vn 0.2562 0.7045 -0.6618
vn 0.0107 0.5192 -0.8546
vn 0.0779 -0.3511 -0.9331
vn -0.0779 -0.3511 -0.9331
vn 0.1094 -0.2117 -0.9712
vn -0.1094 -0.2117 -0.9712
vn 0.8150 -0.1046 -0.5699
vn -0.8150 -0.1046 -0.5699
vn 0.9358 0.3523 -0.0068
vn -0.9358 0.3523 -0.0068
vn 0.1132 0.8929 -0.4358
vn -0.1132 0.8929 -0.4358
vn -0.1497 0.6868 -0.7113
vn -0.1211 0.8805 -0.4582
vn 0.3706 0.2976 -0.8798
vn -0.9094 0.4143 -0.0377
vn 0.9193 0.3928 -0.0255
vn -0.9193 0.3928 -0.0255
vn 0.9457 0.2790 0.1668
vn -0.9173 0.3250 0.2302
vn 0.9337 0.3180 0.1645
vn -0.9004 0.3673 0.2331
vn 0.9501 0.2765 0.1441
vn -0.8945 0.0807 0.4397
vn 0.1835 0.2117 -0.9600
vn -0.1596 -0.1782 -0.9710
vn 0.3727 0.5284 -0.7628
vn -0.3693 0.5344 -0.7603
vn 0.3263 0.0597 -0.9434
vn -0.2986 0.0982 -0.9493
vn 0.2620 -0.2852 -0.9220
vn -0.2620 -0.2852 -0.9220
vn 0.2996 -0.2666 -0.9160
vn -0.2996 -0.2666 -0.9160
vn 0.8642 -0.3504 -0.3611
vn -0.8305 0.5442 0.1188
vn 0.6869 -0.5835 -0.4332
vn -0.6869 -0.5835 -0.4332
vn 0.4189 0.7069 -0.5700
vn -0.2950 0.8501 -0.4362
vn 0.1119 0.1735 0.9785
vn -0.1272 0.1937 0.9728
vn 0.1208 0.5799 0.8057
vn -0.1208 0.5799 0.8057
vn 0.3140 0.9268 0.2062
vn -0.3140 0.9268 0.2062
vn 0.3231 0.5496 0.7704
vn -0.3231 0.5496 0.7704
vn 0.0452 -0.2211 0.9742
vn -0.0452 -0.2211 0.9742
vn 0.6144 0.1601 0.7725
vn -0.6144 0.1601 0.7725
vn 0.6935 0.4850 0.5328
vn -0.6935 0.4850 0.5328
vn 0.6304 0.7727 -0.0746
vn -0.7104 0.6850 -0.1614
vn 0.3179 0.9255 0.2060
vn -0.3179 0.9255 0.2060
vn 0.6289 0.4542 0.6310
vn -0.6289 0.4542 0.6310
vn 0.7088 0.1231 0.6946
vn -0.7088 0.1231 0.6946
vn 0.6885 -0.4023 0.6034
vn -0.6885 -0.4023 0.6034
vn 0.3238 0.4557 0.8291
vn -0.3669 0.6295 0.6849
vn 0.1548 -0.5613 0.8130
vn -0.2854 -0.4045 0.8689
vn -0.1819 0.9365 -0.2997
vn 0.1819 0.9365 -0.2997
vn -0.2638 0.5618 0.7841
vn 0.2638 0.5618 0.7841
vn 0.9340 -0.1592 0.3200
vn -0.8681 0.4815 -0.1207
vn 0.9758 -0.1126 0.1874
vn -0.9758 -0.1126 0.1874
vn 0.9613 0.2730 0.0377
vn -0.9613 0.2730 0.0377
vn 0.9956 0.0632 0.0694
vn -0.9817 0.1588 -0.1055
vn 0.6374 -0.3998 -0.6587
vn -0.7466 -0.3009 -0.5933
vn 0.3720 -0.4593 -0.8066
vn -0.3723 -0.4595 -0.8064
vn 0.5281 -0.4842 -0.6976
vn -0.5281 -0.4842 -0.6976
vn 0.3070 -0.9401 -0.1481
vn -0.3070 -0.9401 -0.1481
vn 0.5236 0.5794 -0.6246
vn -0.5881 0.5543 -0.5890
vn 0.5396 0.5652 -0.6240
vn -0.4694 0.6744 -0.5700
vn 0.2144 0.1177 -0.9696
vn -0.4463 -0.0818 -0.8912
vn 0.7365 0.0011 -0.6764
vn -0.6973 -0.0212 -0.7164
vn 0.3244 -0.5372 0.7786
vn -0.3691 -0.6871 0.6258
vn 0.4649 -0.6634 0.5863
vn -0.4649 -0.6634 0.5863
vn 0.1817 -0.8985 0.3996
vn -0.3188 -0.7612 0.5647
vn 0.2925 -0.8992 0.3253
vn -0.2076 -0.9219 0.3270
vn 0.5847 -0.8019 0.1230
vn -0.3398 -0.8189 0.4625
vn 0.6509 -0.7485 0.1271
vn -0.6509 -0.7485 0.1271
vn 0.4075 -0.1630 0.8985
vn -0.4075 -0.1630 0.8985
vn -0.2655 -0.1040 0.9585
vn 0.2655 -0.1040 0.9585
vn -0.7885 -0.4190 0.4502
vn 0.8576 -0.3302 0.3943
vn -0.5242 -0.8516 -0.0028
vn 0.5257 -0.8507 -0.0066
vn 0.4390 -0.8810 -0.1766
vn -0.4663 -0.8404 -0.2762
vn 0.6888 -0.7058 -0.1657
vn -0.6888 -0.7058 -0.1657
vn 0.6302 -0.4335 -0.6441
vn -0.7507 -0.0296 -0.6600
vn -0.2175 -0.7400 0.6364
vn 0.1788 -0.7344 0.6548
vn 0.9046 0.0031 -0.4263
vn -0.9046 0.0031 -0.4263
vn 0.1782 -0.9290 0.3243
vn -0.1782 -0.9290 0.3243
vn -0.2335 0.0298 0.9719
vn 0.2335 0.0298 0.9719
vn 0.7177 -0.5452 0.4332
vn -0.4480 -0.8897 -0.0878
vn 0.5313 -0.3167 0.7858
vn -0.5313 -0.3167 0.7858
vn 0.9008 -0.3052 -0.3089
vn -0.5534 -0.7957 -0.2463
vn 0.5815 -0.7841 -0.2167
vn -0.5724 -0.8195 0.0294
vn 0.6138 -0.7860 0.0747
vn -0.5597 -0.7905 -0.2486
vn 0.8779 -0.2050 -0.4328
vn -0.8779 -0.2050 -0.4328
vn 0.8717 0.0039 -0.4901
vn -0.9227 -0.0806 -0.3770
vn 0.7661 -0.3459 -0.5417
vn -0.7661 -0.3459 -0.5417
vn 0.7930 -0.3663 -0.4868
vn -0.7815 -0.3358 -0.5258
vn 0.2408 0.5080 0.8270
vn -0.1240 0.3916 0.9118
vn 0.9251 0.0031 0.3796
vn -0.9435 0.0346 0.3297
vn 0.7071 -0.2925 -0.6438
vn -0.7071 -0.2925 -0.6438
vn -0.0157 0.2807 0.9597
vn 0.0157 0.2807 0.9597
vn 0.6266 -0.5674 -0.5343
vn -0.6266 -0.5674 -0.5343
vn 0.2714 -0.6785 -0.6826
vn -0.2714 -0.6785 -0.6826
vn -0.8651 -0.0855 -0.4942
vn 0.8651 -0.0855 -0.4942
vn -0.8538 0.5203 0.0194
vn 0.8096 0.5870 0.0001
vn -0.5433 0.7129 0.4433
vn 0.5621 0.4136 0.7162
vn -0.1096 0.4254 0.8984
vn 0.0071 0.2807 0.9598
vn 0.1738 -0.8925 0.4161
vn -0.1046 -0.8885 0.4468
vn 0.4134 -0.8110 0.4139
vn -0.2461 -0.8438 0.4769
vn 0.3228 -0.8797 0.3491
vn -0.3228 -0.8797 0.3491
vn 0.1220 -0.8837 0.4518
vn -0.2104 -0.8849 0.4156
vn 0.5679 -0.6496 0.5055
vn -0.5679 -0.6496 0.5055
vn 0.4244 -0.8371 0.3452
vn -0.3787 -0.8570 0.3494
vn 0.2570 -0.8475 0.4644
vn -0.2530 -0.9422 0.2197
vn 0.1351 -0.9112 0.3893
vn -0.1351 -0.9112 0.3893
vn -0.2981 -0.2346 0.9253
vn 0.4870 -0.3183 0.8133
vn 0.5571 -0.8053 0.2027
vn -0.5571 -0.8053 0.2027
vn 0.4723 -0.8640 0.1744
vn -0.4388 -0.8805 0.1795
vn 0.2975 -0.9546 -0.0125
vn -0.5786 -0.7877 0.2114
vn 0.5771 -0.6274 0.5228
vn -0.5771 -0.6274 0.5228
vn 0.0931 -0.3478 -0.9329
vn -0.0931 -0.3478 -0.9329
vn 0.5161 -0.2788 -0.8099
vn -0.5161 -0.2788 -0.8099
vn 0.9264 -0.3613 -0.1060
vn -0.9309 -0.3440 -0.1228
vn 0.8267 0.2359 0.5109
vn -0.8465 0.2730 0.4571
vn -0.2146 0.6697 0.7109
vn 0.2511 0.5858 0.7706
vn -0.4196 0.5493 0.7227
vn 0.4841 0.3945 0.7810
vn -0.5470 0.7561 -0.3593
vn 0.5256 0.7733 -0.3546
vn -0.2556 0.8466 -0.4669
vn 0.2556 0.8466 -0.4669
vn -0.7330 0.2377 0.6373
vn 0.8073 0.2404 0.5390
vn 0.6844 0.5745 -0.4490
vn -0.6844 0.5745 -0.4490
vn -0.3604 0.0480 -0.9316
vn 0.3604 0.0480 -0.9316
vt 0.882305 0.332713
vt 0.890633 0.309796
vt 0.900234 0.332598
vt 0.845766 0.422008
vt 0.853599 0.444407
vt 0.836379 0.444303
vt 0.935656 0.293078
vt 0.939328 0.269252
vt 0.949238 0.293036
vt 0.890000 0.341881
vt 0.894137 0.365710
vt 0.880090 0.365665
vt 0.929414 0.278252
vt 0.914553 0.259342
vt 0.914774 0.331971
vt 0.900240 0.351214
vt 0.878478 0.323146
vt 0.867832 0.300196
vt 0.868060 0.412621
vt 0.857425 0.434840
vt 0.867955 0.319320
vt 0.845030 0.309796
vt 0.890355 0.422008
vt 0.867948 0.431014
vt 0.829677 0.295955
vt 0.867779 0.280714
vt 0.906221 0.407654
vt 0.868119 0.392413
vt 0.893519 0.293078
vt 0.889778 0.269252
vt 0.899761 0.278252
vt 0.935336 0.365710
vt 0.939549 0.341881
vt 0.949459 0.365665
vt 0.858388 0.323146
vt 0.835429 0.332598
vt 0.899742 0.444303
vt 0.877515 0.434840
vt 0.854562 0.332713
vt 0.845030 0.355400
vt 0.890355 0.466597
vt 0.881341 0.444407
vt 0.899761 0.307904
vt 0.879869 0.293036
vt 0.929232 0.380206
vt 0.939549 0.390439
vt 0.914587 0.314146
vt 0.889778 0.317811
vt 0.914736 0.386310
vt 0.914774 0.400349
vt 0.867955 0.347062
vt 0.858388 0.343236
vt 0.867948 0.458757
vt 0.868060 0.475984
vt 0.878478 0.343236
vt 0.867832 0.365000
vt 0.857425 0.454930
vt 0.845766 0.466597
vt 0.929414 0.307904
vt 0.914553 0.327720
vt 0.900240 0.380206
vt 0.890000 0.390439
vt 0.905881 0.370636
vt 0.890633 0.355400
vt 0.830017 0.482334
vt 0.814776 0.444232
vt 0.878815 0.332762
vt 0.857084 0.444459
vt 0.859804 0.452619
vt 0.876095 0.340921
vt 0.867963 0.456019
vt 0.867935 0.344321
vt 0.877515 0.454930
vt 0.875443 0.452619
vt 0.860455 0.340921
vt 0.878843 0.444459
vt 0.860455 0.325282
vt 0.857055 0.332762
vt 0.875443 0.436980
vt 0.867935 0.321882
vt 0.867963 0.433580
vt 0.876095 0.325282
vt 0.859804 0.436980
vt 0.867935 0.332762
vt 0.867963 0.444459
vt 0.711727 0.089223
vt 0.704475 0.082971
vt 0.713359 0.085659
vt 0.697236 0.089241
vt 0.704479 0.087476
vt 0.714217 0.090192
vt 0.717705 0.087680
vt 0.694749 0.090215
vt 0.695595 0.085684
vt 0.718786 0.088907
vt 0.690177 0.088944
vt 0.691255 0.087714
vt 0.724072 0.095666
vt 0.715871 0.094085
vt 0.693106 0.094110
vt 0.684914 0.095714
vt 0.733454 0.110103
vt 0.717191 0.099284
vt 0.691802 0.099310
vt 0.675582 0.110175
vt 0.743005 0.135266
vt 0.749120 0.164763
vt 0.720307 0.154717
vt 0.660073 0.164863
vt 0.666110 0.135360
vt 0.688837 0.154745
vt 0.771621 0.165607
vt 0.760744 0.151308
vt 0.637610 0.165757
vt 0.643821 0.175077
vt 0.773888 0.185280
vt 0.765419 0.174951
vt 0.635389 0.185406
vt 0.786689 0.200158
vt 0.788871 0.178288
vt 0.622642 0.200273
vt 0.633780 0.198205
vt 0.780822 0.207709
vt 0.775522 0.198102
vt 0.628503 0.207799
vt 0.638412 0.202340
vt 0.765405 0.223803
vt 0.770887 0.202252
vt 0.643904 0.223849
vt 0.654210 0.216000
vt 0.746405 0.224061
vt 0.755075 0.215952
vt 0.662876 0.224092
vt 0.740558 0.236187
vt 0.750017 0.234899
vt 0.668725 0.236202
vt 0.670370 0.225011
vt 0.718704 0.231249
vt 0.738904 0.224986
vt 0.690560 0.231257
vt 0.687086 0.216548
vt 0.704630 0.229251
vt 0.722169 0.216530
vt 0.704623 0.210348
vt 0.739647 0.208180
vt 0.730768 0.207601
vt 0.669610 0.208223
vt 0.745457 0.206943
vt 0.751729 0.203651
vt 0.663805 0.206993
vt 0.761574 0.197446
vt 0.657538 0.203712
vt 0.764823 0.192475
vt 0.647701 0.197530
vt 0.762996 0.185064
vt 0.644450 0.192573
vt 0.753989 0.176395
vt 0.646261 0.185172
vt 0.745525 0.172173
vt 0.655236 0.176498
vt 0.730958 0.177919
vt 0.663680 0.172260
vt 0.704590 0.171168
vt 0.678245 0.177970
vt 0.724013 0.198785
vt 0.685223 0.198816
vt 0.704609 0.190429
vt 0.723837 0.189361
vt 0.685385 0.189395
vt 0.727050 0.182433
vt 0.682160 0.182475
vt 0.707187 0.092304
vt 0.701782 0.092311
vt 0.709404 0.094639
vt 0.699572 0.094649
vt 0.709593 0.100353
vt 0.720942 0.115614
vt 0.710357 0.102015
vt 0.698640 0.102023
vt 0.688102 0.115646
vt 0.699398 0.100360
vt 0.704537 0.129045
vt 0.710577 0.118149
vt 0.713273 0.132040
vt 0.698470 0.118160
vt 0.704524 0.118574
vt 0.704500 0.103303
vt 0.704494 0.099420
vt 0.717760 0.138991
vt 0.712140 0.135490
vt 0.696951 0.135498
vt 0.691343 0.139010
vt 0.695811 0.132052
vt 0.714847 0.147269
vt 0.714037 0.139588
vt 0.695065 0.139599
vt 0.694276 0.147284
vt 0.707956 0.146603
vt 0.704563 0.149533
vt 0.701162 0.146606
vt 0.696376 0.145463
vt 0.704556 0.144322
vt 0.704559 0.146599
vt 0.704541 0.132299
vt 0.704544 0.135215
vt 0.698790 0.137545
vt 0.708221 0.144426
vt 0.700892 0.144429
vt 0.711076 0.143667
vt 0.712741 0.145453
vt 0.698035 0.143673
vt 0.697289 0.139738
vt 0.710306 0.137540
vt 0.711812 0.139731
vt 0.704553 0.141657
vt 0.723970 0.135668
vt 0.685130 0.135703
vt 0.686414 0.127725
vt 0.722664 0.127691
vt 0.739285 0.120635
vt 0.669786 0.120722
vt 0.741348 0.127303
vt 0.667745 0.127393
vt 0.708582 0.099138
vt 0.700405 0.099143
vt 0.704493 0.098811
vt 0.708484 0.095355
vt 0.700493 0.095363
vt 0.706466 0.093064
vt 0.702505 0.093068
vt 0.704483 0.091471
vt 0.704484 0.092351
vt 0.704487 0.094510
vt 0.703285 0.094741
vt 0.706726 0.095789
vt 0.705689 0.094739
vt 0.702252 0.095793
vt 0.707201 0.097387
vt 0.701781 0.097392
vt 0.704490 0.096878
vt 0.732171 0.185322
vt 0.730767 0.190023
vt 0.677046 0.185372
vt 0.678458 0.190068
vt 0.732554 0.195487
vt 0.676681 0.195532
vt 0.735805 0.200629
vt 0.673440 0.200675
vt 0.673981 0.182659
vt 0.744443 0.179694
vt 0.735233 0.182600
vt 0.664775 0.179776
vt 0.749923 0.182094
vt 0.659307 0.182184
vt 0.756586 0.186540
vt 0.652662 0.186636
vt 0.757025 0.191902
vt 0.652233 0.191990
vt 0.653214 0.195660
vt 0.756049 0.195581
vt 0.660985 0.198460
vt 0.744887 0.201108
vt 0.748271 0.198397
vt 0.664368 0.201164
vt 0.741009 0.201646
vt 0.668241 0.201696
vt 0.741837 0.198034
vt 0.667409 0.198089
vt 0.669807 0.196531
vt 0.744360 0.197782
vt 0.664890 0.197842
vt 0.747342 0.196402
vt 0.661910 0.196467
vt 0.751648 0.193392
vt 0.657604 0.193469
vt 0.752412 0.191161
vt 0.656838 0.191243
vt 0.752073 0.188349
vt 0.657172 0.188436
vt 0.748182 0.184728
vt 0.661051 0.184813
vt 0.744430 0.183435
vt 0.664796 0.183515
vt 0.738407 0.185436
vt 0.670815 0.185500
vt 0.736841 0.187797
vt 0.672383 0.187856
vt 0.737063 0.193783
vt 0.739435 0.196478
vt 0.672171 0.193836
vt 0.736674 0.190384
vt 0.672554 0.190440
vt 0.717655 0.249639
vt 0.704633 0.249554
vt 0.691616 0.249638
vt 0.817622 0.227179
vt 0.832871 0.239122
vt 0.816940 0.239136
vt 0.784090 0.239124
vt 0.799322 0.227184
vt 0.800008 0.239135
vt 0.837982 0.229552
vt 0.831831 0.230389
vt 0.778980 0.229565
vt 0.773177 0.236023
vt 0.847988 0.222337
vt 0.843797 0.236016
vt 0.768986 0.222367
vt 0.760461 0.227644
vt 0.858012 0.211872
vt 0.856532 0.227617
vt 0.758971 0.211931
vt 0.750248 0.214761
vt 0.869851 0.206293
vt 0.866758 0.214699
vt 0.747154 0.206381
vt 0.863246 0.192742
vt 0.861827 0.206963
vt 0.753717 0.192851
vt 0.749430 0.190366
vt 0.858413 0.180013
vt 0.867537 0.190244
vt 0.758511 0.180131
vt 0.852029 0.184497
vt 0.848980 0.172488
vt 0.767908 0.172590
vt 0.764893 0.184594
vt 0.844366 0.123391
vt 0.836713 0.131368
vt 0.838109 0.121675
vt 0.772359 0.123540
vt 0.780036 0.131469
vt 0.769282 0.138812
vt 0.824452 0.126800
vt 0.821646 0.117691
vt 0.778606 0.121800
vt 0.792274 0.126855
vt 0.816006 0.129324
vt 0.808363 0.124630
vt 0.795047 0.117743
vt 0.800729 0.129347
vt 0.814147 0.132514
vt 0.802596 0.132530
vt 0.816972 0.133827
vt 0.818929 0.132584
vt 0.799774 0.133850
vt 0.797815 0.132614
vt 0.817675 0.134626
vt 0.825096 0.133823
vt 0.799073 0.134649
vt 0.791653 0.133871
vt 0.821113 0.139020
vt 0.833701 0.139597
vt 0.795651 0.139051
vt 0.783073 0.139675
vt 0.847504 0.138675
vt 0.839266 0.147911
vt 0.827213 0.148407
vt 0.789583 0.148454
vt 0.777539 0.148004
vt 0.754437 0.118128
vt 0.654643 0.118272
vt 0.657848 0.126212
vt 0.831004 0.155256
vt 0.785815 0.155312
vt 0.775968 0.153719
vt 0.832345 0.159591
vt 0.837414 0.162132
vt 0.833423 0.164769
vt 0.784487 0.159650
vt 0.779430 0.162207
vt 0.778052 0.158882
vt 0.844957 0.175199
vt 0.771931 0.175289
vt 0.912511 0.148829
vt 0.912916 0.122478
vt 0.930672 0.133161
vt 0.704445 0.149178
vt 0.703954 0.122894
vt 0.714975 0.144419
vt 0.901940 0.144093
vt 0.887718 0.117809
vt 0.729072 0.118147
vt 0.731604 0.140203
vt 0.855107 0.140201
vt 0.850708 0.123148
vt 0.761695 0.140365
vt 0.766022 0.123324
vt 0.840856 0.153626
vt 0.878895 0.172322
vt 0.885544 0.182314
vt 0.738053 0.172512
vt 0.731445 0.182501
vt 0.921226 0.166108
vt 0.949705 0.159237
vt 0.695807 0.166440
vt 0.686280 0.133608
vt 0.858094 0.213199
vt 0.909313 0.217525
vt 0.882971 0.245964
vt 0.551472 0.213445
vt 0.500413 0.217905
vt 0.535060 0.196424
vt 0.941559 0.218255
vt 0.925313 0.190418
vt 0.953346 0.188058
vt 0.691803 0.190697
vt 0.675685 0.218502
vt 0.663842 0.188428
vt 0.667382 0.159675
vt 0.873527 0.213456
vt 0.879300 0.203107
vt 0.885522 0.207408
vt 0.737725 0.203225
vt 0.743506 0.213529
vt 0.731531 0.207530
vt 0.823131 0.200843
vt 0.835283 0.183395
vt 0.850147 0.191087
vt 0.574137 0.183661
vt 0.586302 0.201030
vt 0.559335 0.191372
vt 0.848735 0.171800
vt 0.862913 0.177719
vt 0.560690 0.172133
vt 0.546567 0.178076
vt 0.911389 0.192372
vt 0.905700 0.179981
vt 0.915129 0.182364
vt 0.711334 0.180231
vt 0.705695 0.192605
vt 0.701937 0.182634
vt 0.910142 0.167170
vt 0.899180 0.169978
vt 0.706866 0.167466
vt 0.874505 0.196084
vt 0.887351 0.223236
vt 0.879305 0.227919
vt 0.729750 0.223317
vt 0.825943 0.225186
vt 0.849515 0.268438
vt 0.583563 0.225309
vt 0.526759 0.246186
vt 0.893197 0.249565
vt 0.874209 0.240283
vt 0.742900 0.240276
vt 0.723994 0.249583
vt 0.737785 0.227964
vt 0.834934 0.265677
vt 0.574710 0.265706
vt 0.560180 0.268499
vt 0.836486 0.276963
vt 0.573152 0.276963
vt 0.823164 0.162250
vt 0.813561 0.194228
vt 0.586169 0.162537
vt 0.595827 0.194409
vt 0.831965 0.159869
vt 0.577384 0.160187
vt 0.896128 0.173677
vt 0.720864 0.173915
vt 0.714878 0.188741
vt 0.885258 0.139925
vt 0.863730 0.157319
vt 0.753143 0.157487
vt 0.730599 0.152299
vt 0.889471 0.163818
vt 0.727477 0.164060
vt 0.766930 0.147138
vt 0.789616 0.123809
vt 0.642247 0.147295
vt 0.619539 0.124067
vt 0.838784 0.158800
vt 0.896344 0.164319
vt 0.720621 0.164580
vt 0.712765 0.155411
vt 0.886305 0.152043
vt 0.904190 0.155104
vt 0.682524 0.485927
vt 0.718566 0.452700
vt 0.731566 0.485005
vt 0.609301 0.485927
vt 0.573263 0.452700
vt 0.603597 0.455939
vt 0.745153 0.435953
vt 0.794482 0.458262
vt 0.546677 0.435952
vt 0.560263 0.485005
vt 0.497348 0.458262
vt 0.780219 0.395886
vt 0.511606 0.395884
vt 0.546575 0.408087
vt 0.745253 0.408088
vt 0.750822 0.379026
vt 0.541004 0.379025
vt 0.560170 0.390184
vt 0.731658 0.390185
vt 0.728938 0.362536
vt 0.562890 0.362536
vt 0.577913 0.376073
vt 0.690760 0.364612
vt 0.702132 0.344228
vt 0.601068 0.364611
vt 0.589696 0.344228
vt 0.713915 0.376073
vt 0.688923 0.379220
vt 0.602905 0.379219
vt 0.704304 0.386962
vt 0.587525 0.386962
vt 0.723982 0.410328
vt 0.567847 0.410328
vt 0.575187 0.397552
vt 0.722308 0.424761
vt 0.569521 0.424761
vt 0.709317 0.433905
vt 0.582512 0.433905
vt 0.691735 0.435214
vt 0.600094 0.435215
vt 0.886614 0.170166
vt 0.730345 0.170385
vt 0.725729 0.167460
vt 0.806846 0.300640
vt 0.778198 0.310196
vt 0.777775 0.285142
vt 0.733738 0.300640
vt 0.762387 0.310195
vt 0.741132 0.313893
vt 0.891266 0.180766
vt 0.725733 0.180973
vt 0.653925 0.464268
vt 0.688231 0.455938
vt 0.637900 0.464269
vt 0.799452 0.313894
vt 0.788050 0.321695
vt 0.752535 0.321695
vt 0.773334 0.320838
vt 0.784023 0.326007
vt 0.767252 0.320839
vt 0.782070 0.333532
vt 0.784867 0.331192
vt 0.756562 0.326007
vt 0.758516 0.333533
vt 0.755718 0.331192
vt 0.772976 0.351075
vt 0.783442 0.345568
vt 0.767609 0.351076
vt 0.789396 0.355647
vt 0.779515 0.369356
vt 0.751190 0.355647
vt 0.757143 0.345569
vt 0.660097 0.449910
vt 0.631733 0.449912
vt 0.616535 0.428827
vt 0.896018 0.172615
vt 0.720971 0.172856
vt 0.894601 0.171428
vt 0.722381 0.171667
vt 0.724727 0.168487
vt 0.891233 0.167221
vt 0.892240 0.168247
vt 0.683206 0.416852
vt 0.694098 0.422190
vt 0.608623 0.416853
vt 0.597732 0.422190
vt 0.794540 0.347861
vt 0.746045 0.347862
vt 0.751258 0.342021
vt 0.786636 0.336530
vt 0.789328 0.342020
vt 0.753950 0.336530
vt 0.752076 0.334037
vt 0.788509 0.334037
vt 0.750743 0.330304
vt 0.791721 0.327184
vt 0.789842 0.330303
vt 0.748864 0.327184
vt 0.797271 0.329554
vt 0.743315 0.329554
vt 0.704659 0.422944
vt 0.587171 0.422944
vt 0.710782 0.418859
vt 0.581047 0.418860
vt 0.711726 0.410913
vt 0.580104 0.410913
vt 0.706622 0.402732
vt 0.716641 0.397552
vt 0.585207 0.402732
vt 0.697736 0.395004
vt 0.594092 0.395004
vt 0.687405 0.388696
vt 0.604424 0.388696
vt 0.792692 0.338122
vt 0.747893 0.338123
vt 0.745470 0.333985
vt 0.684091 0.395511
vt 0.688244 0.408525
vt 0.680363 0.401873
vt 0.742770 0.342447
vt 0.739928 0.337960
vt 0.700386 0.407459
vt 0.696791 0.413748
vt 0.591443 0.407459
vt 0.603585 0.408525
vt 0.595038 0.413749
vt 0.704437 0.416820
vt 0.587392 0.416821
vt 0.586313 0.411731
vt 0.797816 0.342447
vt 0.607738 0.395511
vt 0.599215 0.401624
vt 0.705516 0.411731
vt 0.824276 0.312544
vt 0.825881 0.290981
vt 0.837244 0.304924
vt 0.714704 0.290980
vt 0.716308 0.312544
vt 0.703340 0.304923
vt 0.838506 0.323266
vt 0.846083 0.315770
vt 0.702078 0.323265
vt 0.694501 0.315769
vt 0.773222 0.375882
vt 0.518604 0.375881
vt 0.529352 0.367496
vt 0.776973 0.364263
vt 0.799484 0.369814
vt 0.514854 0.364263
vt 0.772710 0.343861
vt 0.800676 0.336812
vt 0.492342 0.369816
vt 0.519117 0.343860
vt 0.764310 0.323551
vt 0.796885 0.313903
vt 0.491152 0.336810
vt 0.527517 0.323551
vt 0.847276 0.287195
vt 0.852738 0.300401
vt 0.693308 0.287195
vt 0.687847 0.300400
vt 0.762475 0.367497
vt 0.795288 0.298407
vt 0.756240 0.307066
vt 0.496538 0.298409
vt 0.494943 0.313903
vt 0.842029 0.276477
vt 0.812157 0.271164
vt 0.698555 0.276477
vt 0.728428 0.271163
vt 0.762808 0.285143
vt 0.914587 0.272009
vt 0.914736 0.345110
vt 0.929232 0.351214
vt 0.939328 0.317811
vt 0.921122 0.332534
vt 0.648434 0.151445
vt 0.620422 0.178454
vt 0.659276 0.234919
vt 0.678483 0.207635
vt 0.785125 0.230399
vt 0.755160 0.207038
vt 0.808370 0.130765
vt 0.751251 0.126086
vt 0.783424 0.164830
vt 0.918926 0.204314
vt 0.698213 0.204535
vt 0.902171 0.188524
vt 0.717809 0.170234
vt 0.878684 0.248684
vt 0.738462 0.248665
vt 0.813569 0.232387
vt 0.595919 0.232456
vt 0.839442 0.148966
vt 0.569896 0.149332
vt 0.798258 0.323392
vt 0.742327 0.323392
vt 0.761071 0.369357
vt 0.675294 0.428826
vt 0.795116 0.333985
vt 0.692614 0.401624
vt 0.855509 0.313667
vt 0.685075 0.313667
vt 0.535585 0.307067
s 0
usemtl Material.003
f 55/13/6 11/14/6 53/15/6
f 12/16/7 56/17/7 54/18/7
f 53/19/8 13/20/8 51/21/8
f 14/22/9 54/23/9 52/24/9
f 11/25/10 15/26/10 13/20/10
f 16/27/11 12/28/11 14/22/11
f 9/29/12 17/30/12 11/14/12
f 18/31/13 10/32/13 12/16/13
f 19/33/14 23/34/14 17/30/14
f 24/35/15 20/36/15 18/31/15
f 17/30/16 25/37/16 15/38/16
f 26/39/17 18/31/17 16/40/17
f 29/41/18 25/42/18 23/43/18
f 30/44/19 26/45/19 28/46/19
f 21/47/20 29/48/20 23/34/20
f 30/49/21 22/50/21 24/35/21
f 31/51/22 35/52/22 29/48/22
f 36/53/23 32/54/23 30/49/23
f 35/55/24 27/56/24 29/41/24
f 36/57/25 28/46/25 38/58/25
f 41/59/26 37/60/26 35/55/26
f 42/61/27 38/58/27 40/62/27
f 43/63/28 35/52/28 33/64/28
f 44/65/29 36/53/29 42/66/29
f 45/67/30 41/68/30 43/63/30
f 46/69/31 42/66/31 48/70/31
f 47/71/32 39/72/32 41/59/32
f 48/73/33 40/62/33 50/74/33
f 53/15/34 49/75/34 47/76/34
f 54/18/35 50/77/35 52/78/35
f 55/13/36 47/76/36 45/67/36
f 56/17/37 48/70/37 54/18/37
f 45/67/38 57/79/38 55/13/38
f 46/69/39 58/80/39 60/81/39
f 43/63/40 59/82/40 45/67/40
f 44/65/41 60/81/41 62/83/41
f 33/64/42 61/84/42 43/63/42
f 34/85/43 62/83/43 64/86/43
f 31/51/44 63/87/44 33/64/44
f 32/54/45 64/86/45 66/88/45
f 31/51/46 67/89/46 65/90/46
f 68/91/47 32/54/47 66/88/47
f 21/47/48 71/92/48 67/89/48
f 72/93/49 22/50/49 68/91/49
f 19/33/50 73/94/50 71/92/50
f 74/95/51 20/36/51 72/93/51
f 9/29/52 57/79/52 73/94/52
f 58/80/53 10/32/53 74/95/53
f 69/96/54 73/94/54 57/79/54
f 58/80/55 74/95/55 70/97/55
f 71/92/56 73/94/56 69/96/56
f 70/97/57 74/95/57 72/93/57
f 69/96/58 67/89/58 71/92/58
f 72/93/59 68/91/59 70/97/59
f 69/96/60 65/90/60 67/89/60
f 68/91/61 66/88/61 70/97/61
f 69/96/62 63/87/62 65/90/62
f 66/88/63 64/86/63 70/97/63
f 69/96/64 61/84/64 63/87/64
f 64/86/65 62/83/65 70/97/65
f 69/96/66 59/82/66 61/84/66
f 62/83/67 60/81/67 70/97/67
f 69/96/68 57/79/68 59/82/68
f 60/81/69 58/80/69 70/97/69
f 182/98/70 99/99/70 97/100/70
f 183/101/71 99/99/71 184/102/71
f 180/103/72 97/100/72 95/104/72
f 181/105/73 98/106/73 183/101/73
f 93/107/74 180/103/74 95/104/74
f 181/105/75 94/108/75 96/109/75
f 91/110/76 178/111/76 93/107/76
f 179/112/77 92/113/77 94/108/77
f 89/114/78 176/115/78 91/110/78
f 177/116/79 90/117/79 92/113/79
f 87/118/80 154/119/80 172/120/80
f 155/121/81 88/122/81 173/123/81
f 102/124/82 154/119/82 100/125/82
f 103/126/83 155/121/83 157/127/83
f 102/124/84 158/128/84 156/129/84
f 159/130/85 103/126/85 157/127/85
f 106/131/86 158/128/86 104/132/86
f 107/133/87 159/130/87 161/134/87
f 108/135/88 160/136/88 106/131/88
f 109/137/89 161/134/89 163/138/89
f 110/139/90 162/140/90 108/135/90
f 111/141/91 163/138/91 165/142/91
f 110/139/92 166/143/92 164/144/92
f 167/145/93 111/141/93 165/142/93
f 114/146/94 166/143/94 112/147/94
f 115/148/95 167/145/95 169/149/95
f 116/150/96 168/151/96 114/146/96
f 117/152/97 169/149/97 171/153/97
f 75/154/98 170/155/98 116/150/98
f 75/154/99 171/153/99 76/156/99
f 136/157/100 170/155/100 118/158/100
f 137/159/101 171/153/101 169/149/101
f 136/157/102 166/143/102 168/151/102
f 167/145/103 137/159/103 169/149/103
f 164/144/104 187/160/104 134/161/104
f 165/142/105 188/162/105 167/145/105
f 162/140/106 134/161/106 132/163/106
f 163/138/107 135/164/107 165/142/107
f 160/136/108 132/163/108 130/165/108
f 161/134/109 133/166/109 163/138/109
f 158/128/110 130/165/110 128/167/110
f 159/130/111 131/168/111 161/134/111
f 156/129/112 128/167/112 126/169/112
f 157/127/113 129/170/113 159/130/113
f 154/119/114 126/169/114 124/171/114
f 155/121/115 127/172/115 157/127/115
f 172/120/116 124/171/116 122/173/116
f 173/123/117 125/174/117 155/121/117
f 122/173/118 185/175/118 172/120/118
f 185/175/119 123/176/119 173/123/119
f 170/155/120 120/177/120 118/158/120
f 171/153/121 121/178/121 76/156/121
f 120/177/122 186/179/122 191/180/122
f 186/179/123 121/178/123 192/181/123
f 189/182/124 186/179/124 185/175/124
f 190/183/125 186/179/125 192/181/125
f 143/184/126 184/102/126 182/98/126
f 184/102/127 144/185/127 183/101/127
f 141/186/128 182/98/128 180/103/128
f 183/101/129 142/187/129 181/105/129
f 141/186/130 178/111/130 139/188/130
f 142/187/131 179/112/131 181/105/131
f 174/189/132 193/190/132 176/115/132
f 194/191/133 175/192/133 177/116/133
f 139/188/134 176/115/134 193/190/134
f 177/116/135 140/193/135 194/191/135
f 198/194/136 195/195/136 152/196/136
f 198/194/137 196/197/137 197/198/137
f 195/195/138 77/199/138 193/190/138
f 196/197/139 77/199/139 197/198/139
f 139/188/140 77/199/140 138/200/140
f 140/193/140 77/199/140 194/191/140
f 150/201/141 199/202/141 152/196/141
f 200/203/142 151/204/142 153/205/142
f 148/206/143 201/207/143 150/201/143
f 202/208/144 149/209/144 151/204/144
f 205/210/145 148/206/145 147/211/145
f 206/212/146 149/209/146 204/213/146
f 79/214/147 147/211/147 146/215/147
f 79/214/148 147/211/148 206/212/148
f 152/196/149 78/216/149 198/194/149
f 153/205/150 78/216/150 200/203/150
f 199/202/151 216/217/151 78/216/151
f 200/203/152 216/217/152 215/218/152
f 79/214/153 208/219/153 205/210/153
f 209/220/154 79/214/154 206/212/154
f 205/210/155 210/221/155 203/222/155
f 211/223/156 206/212/156 204/213/156
f 210/221/157 201/207/157 203/222/157
f 211/223/158 202/208/158 213/224/158
f 201/207/159 214/225/159 199/202/159
f 215/218/160 202/208/160 200/203/160
f 212/226/161 208/219/161 207/227/161
f 213/224/162 209/220/162 211/223/162
f 207/227/163 214/225/163 212/226/163
f 215/218/164 207/227/164 213/224/164
f 147/211/165 172/120/165 185/175/165
f 173/123/166 147/211/166 185/175/166
f 148/206/167 219/228/167 172/120/167
f 220/229/168 149/209/168 173/123/168
f 152/196/169 219/228/169 150/201/169
f 153/205/170 220/229/170 222/230/170
f 195/195/171 221/231/171 152/196/171
f 196/197/172 222/230/172 175/192/172
f 217/232/173 174/189/173 89/114/173
f 218/233/174 175/192/174 222/230/174
f 223/234/175 221/231/175 217/232/175
f 224/235/176 222/230/176 220/229/176
f 87/118/177 219/228/177 223/234/177
f 220/229/178 88/122/178 224/235/178
f 138/200/179 230/236/179 139/188/179
f 138/200/180 231/237/180 80/238/180
f 141/186/181 230/236/181 228/239/181
f 231/237/182 142/187/182 229/240/182
f 143/184/183 228/239/183 226/241/183
f 229/240/184 144/185/184 227/242/184
f 145/243/140 226/241/140 225/244/140
f 227/242/140 145/243/140 225/244/140
f 226/241/185 239/245/185 225/244/185
f 227/242/186 239/245/186 238/246/186
f 226/241/187 235/247/187 237/248/187
f 236/249/188 227/242/188 238/246/188
f 228/239/147 233/250/147 235/247/147
f 234/251/189 229/240/189 236/249/189
f 80/238/190 233/250/190 230/236/190
f 80/238/191 234/251/191 232/252/191
f 232/252/192 237/248/192 233/250/192
f 238/246/193 232/252/193 234/251/193
f 233/250/194 237/248/194 235/247/194
f 236/249/195 238/246/195 234/251/195
f 191/180/196 242/253/196 240/254/196
f 243/255/197 192/181/197 241/256/197
f 120/177/198 240/254/198 262/257/198
f 241/256/199 121/178/199 263/258/199
f 120/177/200 264/259/200 118/158/200
f 121/178/201 265/260/201 263/258/201
f 122/173/202 242/253/202 189/182/202
f 123/176/203 243/255/203 261/261/203
f 122/173/204 258/262/204 260/263/204
f 259/264/205 123/176/205 261/261/205
f 124/171/206 256/265/206 258/262/206
f 257/266/207 125/174/207 259/264/207
f 126/169/208 254/267/208 256/265/208
f 255/268/209 127/172/209 257/266/209
f 128/167/210 252/269/210 254/267/210
f 253/270/211 129/170/211 255/268/211
f 132/163/212 252/269/212 130/165/212
f 133/166/213 253/270/213 251/271/213
f 134/161/214 250/272/214 132/163/214
f 135/164/215 251/271/215 249/273/215
f 134/161/216 244/274/216 248/275/216
f 245/276/217 135/164/217 249/273/217
f 187/160/218 246/277/218 244/274/218
f 247/278/219 188/162/219 245/276/219
f 136/157/220 264/259/220 246/277/220
f 265/260/221 137/159/221 247/278/221
f 264/259/222 284/279/222 246/277/222
f 265/260/223 285/280/223 267/281/223
f 244/274/224 284/279/224 286/282/224
f 285/280/225 245/276/225 287/283/225
f 244/274/226 282/284/226 248/275/226
f 245/276/227 283/285/227 287/283/227
f 248/275/228 280/286/228 250/272/228
f 249/273/229 281/287/229 283/285/229
f 252/269/230 280/286/230 278/288/230
f 281/287/231 253/270/231 279/289/231
f 252/269/232 276/290/232 254/267/232
f 253/270/233 277/291/233 279/289/233
f 256/265/234 276/290/234 274/292/234
f 277/291/235 257/266/235 275/293/235
f 256/265/236 272/294/236 258/262/236
f 257/266/237 273/295/237 275/293/237
f 258/262/238 270/296/238 260/263/238
f 259/264/239 271/297/239 273/295/239
f 242/253/240 270/296/240 288/298/240
f 271/297/241 243/255/241 289/299/241
f 264/259/242 268/300/242 266/301/242
f 269/302/243 265/260/243 267/281/243
f 262/257/244 290/303/244 268/300/244
f 291/304/245 263/258/245 269/302/245
f 240/254/246 288/298/246 290/303/246
f 289/299/247 241/256/247 291/304/247
f 75/154/248 292/305/248 81/306/248
f 293/307/249 75/154/249 81/306/249
f 116/308/250 294/309/250 292/310/250
f 295/311/251 117/312/251 293/313/251
f 112/314/252 294/309/252 114/315/252
f 113/316/253 295/311/253 297/317/253
f 110/318/254 296/319/254 112/314/254
f 111/320/255 297/317/255 299/321/255
f 108/322/256 298/323/256 110/318/256
f 109/324/257 299/321/257 301/325/257
f 108/322/258 302/326/258 300/327/258
f 303/328/259 109/324/259 301/325/259
f 104/329/260 302/326/260 106/330/260
f 105/331/261 303/328/261 305/332/261
f 104/329/262 306/333/262 304/334/262
f 307/335/263 105/331/263 305/332/263
f 102/336/264 308/337/264 306/333/264
f 309/338/265 103/339/265 307/335/265
f 317/340/266 346/341/266 316/342/266
f 317/343/267 347/344/267 337/345/267
f 316/342/268 344/346/268 315/347/268
f 316/348/269 345/349/269 347/344/269
f 315/347/270 348/350/270 314/351/270
f 315/352/271 349/353/271 345/349/271
f 97/354/272 314/351/272 348/350/272
f 314/351/273 98/355/273 349/353/273
f 95/356/274 348/350/274 342/357/274
f 349/353/275 96/358/275 343/359/275
f 93/360/276 342/357/276 338/361/276
f 343/359/277 94/362/277 339/363/277
f 91/364/278 338/361/278 340/365/278
f 339/363/279 92/366/279 341/367/279
f 338/361/280 346/341/280 340/365/280
f 347/344/281 339/363/281 341/367/281
f 342/357/282 344/346/282 338/361/282
f 343/359/283 345/349/283 349/353/283
f 340/365/284 336/368/284 334/369/284
f 341/367/285 337/345/285 347/344/285
f 89/370/286 340/365/286 334/369/286
f 341/367/287 90/371/287 335/372/287
f 350/373/288 223/234/288 217/232/288
f 351/374/289 224/235/289 353/375/289
f 334/369/290 217/376/290 89/370/290
f 335/372/291 218/377/291 351/378/291
f 223/379/292 354/380/292 87/381/292
f 224/382/293 355/383/293 353/384/293
f 354/380/294 100/385/294 87/381/294
f 355/383/295 101/386/295 309/338/295
f 332/387/296 312/388/296 85/389/296
f 333/390/297 312/391/297 361/392/297
f 360/393/298 86/394/298 312/388/298
f 361/392/299 86/395/299 359/396/299
f 86/394/300 356/397/300 313/398/300
f 357/399/301 86/395/301 313/400/301
f 313/398/302 336/368/302 317/340/302
f 337/345/303 313/400/303 317/343/303
f 336/368/304 350/401/304 334/369/304
f 337/345/305 351/378/305 357/399/305
f 304/334/306 326/402/306 318/403/306
f 327/404/307 305/332/307 319/405/307
f 324/406/308 85/389/308 84/407/308
f 325/408/309 85/409/309 333/390/309
f 366/410/310 311/411/310 310/412/310
f 367/413/311 311/414/311 365/415/311
f 311/416/312 362/417/312 83/418/312
f 363/419/313 311/420/313 83/421/313
f 83/418/314 324/406/314 84/407/314
f 325/408/315 83/421/315 84/422/315
f 300/423/316 370/424/316 372/425/316
f 371/426/317 301/427/317 373/428/317
f 372/429/318 376/430/318 374/431/318
f 377/432/319 373/433/319 375/434/319
f 374/431/320 378/435/320 380/436/320
f 379/437/321 375/434/321 381/438/321
f 380/439/322 384/440/322 382/441/322
f 385/442/323 381/443/323 383/444/323
f 386/445/324 384/440/324 322/446/324
f 387/447/325 385/442/325 383/444/325
f 324/406/326 382/441/326 386/445/326
f 383/444/327 325/408/327 387/447/327
f 362/417/328 380/439/328 382/441/328
f 381/443/329 363/419/329 383/444/329
f 364/448/330 374/431/330 380/436/330
f 375/434/331 365/415/331 381/438/331
f 366/410/332 372/429/332 374/431/332
f 373/433/333 367/413/333 375/434/333
f 300/423/334 368/449/334 298/450/334
f 301/427/335 369/451/335 373/428/335
f 368/452/336 310/412/336 82/453/336
f 369/454/337 310/455/337 367/413/337
f 292/456/338 296/457/338 298/450/338
f 297/458/339 293/459/339 299/460/339
f 292/461/340 368/452/340 82/453/340
f 369/454/341 293/462/341 82/463/341
f 81/464/342 292/461/342 82/453/342
f 82/463/343 293/462/343 81/465/343
f 304/334/344 370/424/344 302/326/344
f 305/332/345 371/426/345 319/405/345
f 318/466/346 376/430/346 370/467/346
f 377/432/347 319/468/347 371/469/347
f 320/470/348 378/435/348 376/430/348
f 379/437/349 321/471/349 377/432/349
f 384/440/350 390/472/350 322/446/350
f 385/442/351 391/473/351 379/474/351
f 358/475/352 392/476/352 356/397/352
f 359/396/353 393/477/353 395/478/353
f 392/476/354 328/479/354 326/402/354
f 393/477/355 329/480/355 395/478/355
f 306/333/356 392/476/356 326/402/356
f 393/477/357 307/335/357 327/404/357
f 308/481/358 350/373/358 392/482/358
f 351/374/359 309/483/359 393/484/359
f 350/401/360 356/397/360 392/476/360
f 393/477/361 357/399/361 351/378/361
f 308/337/362 354/380/362 352/485/362
f 353/384/363 355/383/363 309/338/363
f 330/486/364 386/445/364 322/446/364
f 331/487/365 387/447/365 389/488/365
f 386/445/366 332/387/366 324/406/366
f 387/447/367 333/390/367 389/488/367
f 394/489/368 330/486/368 328/479/368
f 395/478/369 331/487/369 389/488/369
f 360/393/370 394/489/370 358/475/370
f 361/392/371 395/478/371 389/488/371
f 332/387/372 388/490/372 360/393/372
f 361/392/373 389/488/373 333/390/373
f 396/491/374 410/492/374 408/493/374
f 397/494/375 411/495/375 423/496/375
f 408/493/376 412/497/376 406/498/376
f 413/499/377 409/500/377 407/501/377
f 412/497/378 404/502/378 406/498/378
f 413/499/379 405/503/379 415/504/379
f 414/505/380 402/506/380 404/502/380
f 415/504/381 403/507/381 417/508/381
f 416/509/382 400/510/382 402/506/382
f 417/508/383 401/511/383 419/512/383
f 400/510/384 420/513/384 398/514/384
f 421/515/385 401/511/385 399/516/385
f 418/517/386 426/518/386 420/513/386
f 427/519/387 419/512/387 421/515/387
f 416/509/388 428/520/388 418/517/388
f 429/521/389 417/508/389 419/512/389
f 432/522/390 416/509/390 414/505/390
f 433/523/391 417/508/391 431/524/391
f 434/525/392 414/505/392 412/497/392
f 435/526/393 415/504/393 433/523/393
f 436/527/394 412/497/394 410/492/394
f 437/528/395 413/499/395 435/526/395
f 410/492/396 424/529/396 436/527/396
f 425/530/397 411/495/397 437/528/397
f 328/479/398 450/531/398 326/402/398
f 329/480/399 451/532/399 453/533/399
f 398/534/400 452/535/400 328/536/400
f 399/537/401 453/538/401 421/539/401
f 318/403/402 450/531/402 320/540/402
f 451/532/403 319/405/403 321/541/403
f 390/542/404 422/543/404 396/491/404
f 423/496/405 391/544/405 397/494/405
f 420/545/406 448/546/406 452/535/406
f 449/547/407 421/539/407 453/538/407
f 454/548/408 448/546/408 446/549/408
f 455/550/409 449/547/409 453/538/409
f 442/551/140 446/549/140 444/552/140
f 447/553/140 443/554/140 445/555/140
f 456/556/410 442/551/410 440/557/410
f 457/558/411 443/554/411 455/550/411
f 456/556/412 458/559/412 438/560/412
f 457/558/413 459/561/413 441/562/413
f 438/563/414 424/529/414 422/543/414
f 439/564/415 425/530/415 459/565/415
f 320/540/416 438/566/416 390/472/416
f 439/567/417 321/541/417 391/473/417
f 450/531/418 456/568/418 320/540/418
f 451/532/419 457/569/419 455/570/419
f 450/531/420 452/571/420 454/572/420
f 455/570/421 453/533/421 451/532/421
f 424/529/422 460/573/422 484/574/422
f 461/575/423 425/530/423 485/576/423
f 440/557/424 460/577/424 458/559/424
f 441/562/425 461/578/425 471/579/425
f 440/557/426 468/580/426 470/581/426
f 469/582/427 441/562/427 471/579/427
f 444/552/428 468/580/428 442/551/428
f 445/555/429 469/582/429 467/583/429
f 446/549/430 466/584/430 444/552/430
f 447/553/431 467/583/431 465/585/431
f 446/549/432 462/586/432 464/587/432
f 463/588/433 447/553/433 465/585/433
f 448/546/434 482/589/434 462/586/434
f 483/590/434 449/547/434 463/588/434
f 436/527/435 484/574/435 472/591/435
f 485/576/436 437/528/436 473/592/436
f 434/525/437 472/591/437 474/593/437
f 473/592/438 435/526/438 475/594/438
f 432/522/439 474/593/439 476/595/439
f 475/594/440 433/523/440 477/596/440
f 432/522/441 478/597/441 430/598/441
f 433/523/442 479/599/442 477/596/442
f 430/598/443 480/600/443 428/520/443
f 431/524/444 481/601/444 479/599/444
f 428/520/445 482/602/445 426/518/445
f 429/521/446 483/603/446 481/601/446
f 464/587/447 486/604/447 466/584/447
f 465/585/448 487/605/448 489/606/448
f 488/607/449 492/608/449 486/609/449
f 489/606/450 493/610/450 491/611/450
f 492/608/451 496/612/451 494/613/451
f 497/614/452 493/615/452 495/616/452
f 496/612/453 500/617/453 494/613/453
f 497/614/454 501/618/454 499/619/454
f 472/591/455 494/613/455 500/617/455
f 495/616/456 473/592/456 501/618/456
f 492/608/457 484/574/457 460/573/457
f 493/615/458 485/576/458 495/616/458
f 470/581/459 492/620/459 460/577/459
f 471/579/460 493/610/460 487/605/460
f 466/584/140 470/581/140 468/580/140
f 471/579/140 467/583/140 469/582/140
f 482/589/461 464/587/461 462/586/461
f 483/590/462 465/585/462 489/606/462
f 480/600/463 488/607/463 482/602/463
f 489/621/464 481/601/464 483/603/464
f 496/612/465 480/600/465 478/597/465
f 497/614/466 481/601/466 491/622/466
f 498/623/467 478/597/467 476/595/467
f 499/619/468 479/599/468 497/614/468
f 474/593/469 498/623/469 476/595/469
f 499/619/470 475/594/470 477/596/470
f 472/591/471 500/617/471 474/593/471
f 475/594/472 501/618/472 473/592/472
f 400/624/473 512/625/473 510/626/473
f 513/627/474 401/628/474 511/629/474
f 402/630/475 510/626/475 508/631/475
f 511/629/476 403/632/476 509/633/476
f 402/506/477 506/634/477 404/502/477
f 403/507/478 507/635/478 509/636/478
f 404/502/479 504/637/479 406/638/479
f 405/503/480 505/639/480 507/635/480
f 406/638/481 502/640/481 408/641/481
f 407/642/482 503/643/482 505/639/482
f 408/641/483 514/644/483 396/645/483
f 409/646/484 515/647/484 503/643/484
f 510/626/485 514/648/485 502/649/485
f 511/629/486 515/650/486 513/627/486
f 502/649/487 508/631/487 510/626/487
f 509/633/488 503/651/488 511/629/488
f 504/637/489 506/634/489 508/652/489
f 509/636/490 507/635/490 505/639/490
f 390/653/491 514/644/491 322/654/491
f 391/655/492 515/647/492 397/656/492
f 322/657/493 512/625/493 330/658/493
f 513/627/494 323/659/494 331/660/494
f 328/536/495 512/625/495 398/534/495
f 513/627/496 329/661/496 399/537/496
f 55/13/497 9/29/497 11/14/497
f 12/16/498 10/32/498 56/17/498
f 53/19/499 11/25/499 13/20/499
f 14/22/500 12/28/500 54/23/500
f 11/25/501 17/662/501 15/26/501
f 16/27/502 18/663/502 12/28/502
f 9/29/503 19/33/503 17/30/503
f 18/31/504 20/36/504 10/32/504
f 19/33/505 21/47/505 23/34/505
f 24/35/506 22/50/506 20/36/506
f 17/30/507 23/34/507 25/37/507
f 26/39/508 24/35/508 18/31/508
f 29/41/509 27/56/509 25/42/509
f 30/44/510 24/664/510 26/45/510
f 21/47/511 31/51/511 29/48/511
f 30/49/512 32/54/512 22/50/512
f 31/51/513 33/64/513 35/52/513
f 36/53/514 34/85/514 32/54/514
f 35/55/515 37/60/515 27/56/515
f 36/57/516 30/44/516 28/46/516
f 41/59/517 39/72/517 37/60/517
f 42/61/518 36/57/518 38/58/518
f 43/63/519 41/68/519 35/52/519
f 44/65/520 34/85/520 36/53/520
f 45/67/521 47/76/521 41/68/521
f 46/69/522 44/65/522 42/66/522
f 47/71/523 49/665/523 39/72/523
f 48/73/524 42/61/524 40/62/524
f 53/15/525 51/666/525 49/75/525
f 54/18/526 48/70/526 50/77/526
f 55/13/527 53/15/527 47/76/527
f 56/17/528 46/69/528 48/70/528
f 45/67/529 59/82/529 57/79/529
f 46/69/530 56/17/530 58/80/530
f 43/63/531 61/84/531 59/82/531
f 44/65/532 46/69/532 60/81/532
f 33/64/533 63/87/533 61/84/533
f 34/85/534 44/65/534 62/83/534
f 31/51/535 65/90/535 63/87/535
f 32/54/536 34/85/536 64/86/536
f 31/51/537 21/47/537 67/89/537
f 68/91/538 22/50/538 32/54/538
f 21/47/539 19/33/539 71/92/539
f 72/93/540 20/36/540 22/50/540
f 19/33/541 9/29/541 73/94/541
f 74/95/542 10/32/542 20/36/542
f 9/29/543 55/13/543 57/79/543
f 58/80/544 56/17/544 10/32/544
f 182/98/545 184/102/545 99/99/545
f 183/101/546 98/106/546 99/99/546
f 180/103/547 182/98/547 97/100/547
f 181/105/548 96/109/548 98/106/548
f 93/107/549 178/111/549 180/103/549
f 181/105/550 179/112/550 94/108/550
f 91/110/551 176/115/551 178/111/551
f 179/112/552 177/116/552 92/113/552
f 89/114/553 174/189/553 176/115/553
f 177/116/554 175/192/554 90/117/554
f 87/118/555 100/125/555 154/119/555
f 155/121/556 101/667/556 88/122/556
f 102/124/557 156/129/557 154/119/557
f 103/126/558 101/667/558 155/121/558
f 102/124/559 104/132/559 158/128/559
f 159/130/560 105/668/560 103/126/560
f 106/131/561 160/136/561 158/128/561
f 107/133/562 105/668/562 159/130/562
f 108/135/563 162/140/563 160/136/563
f 109/137/564 107/133/564 161/134/564
f 110/139/565 164/144/565 162/140/565
f 111/141/566 109/137/566 163/138/566
f 110/139/567 112/147/567 166/143/567
f 167/145/568 113/669/568 111/141/568
f 114/146/569 168/151/569 166/143/569
f 115/148/570 113/669/570 167/145/570
f 116/150/571 170/155/571 168/151/571
f 117/152/572 115/148/572 169/149/572
f 75/154/573 76/156/573 170/155/573
f 75/154/574 117/152/574 171/153/574
f 136/157/575 168/151/575 170/155/575
f 137/159/576 119/670/576 171/153/576
f 136/157/577 187/160/577 166/143/577
f 167/145/578 188/162/578 137/159/578
f 164/144/579 166/143/579 187/160/579
f 165/142/580 135/164/580 188/162/580
f 162/140/581 164/144/581 134/161/581
f 163/138/582 133/166/582 135/164/582
f 160/136/583 162/140/583 132/163/583
f 161/134/584 131/168/584 133/166/584
f 158/128/585 160/136/585 130/165/585
f 159/130/586 129/170/586 131/168/586
f 156/129/587 158/128/587 128/167/587
f 157/127/588 127/172/588 129/170/588
f 154/119/589 156/129/589 126/169/589
f 155/121/590 125/174/590 127/172/590
f 172/120/591 154/119/591 124/171/591
f 173/123/592 123/176/592 125/174/592
f 122/173/593 189/182/593 185/175/593
f 185/175/594 190/183/594 123/176/594
f 170/155/595 76/156/595 120/177/595
f 171/153/596 119/670/596 121/178/596
f 120/177/597 76/156/597 186/179/597
f 186/179/598 76/156/598 121/178/598
f 189/182/599 191/180/599 186/179/599
f 190/183/600 185/175/600 186/179/600
f 143/184/601 145/243/601 184/102/601
f 184/102/602 145/243/602 144/185/602
f 141/186/603 143/184/603 182/98/603
f 183/101/604 144/185/604 142/187/604
f 141/186/605 180/103/605 178/111/605
f 142/187/606 140/193/606 179/112/606
f 174/189/607 195/195/607 193/190/607
f 194/191/608 196/197/608 175/192/608
f 139/188/609 178/111/609 176/115/609
f 177/116/610 179/112/610 140/193/610
f 198/194/137 197/198/137 195/195/137
f 198/194/611 153/205/611 196/197/611
f 195/195/139 197/198/139 77/199/139
f 196/197/612 194/191/612 77/199/612
f 139/188/140 193/190/140 77/199/140
f 140/193/140 138/200/140 77/199/140
f 150/201/613 201/207/613 199/202/613
f 200/203/614 202/208/614 151/204/614
f 148/206/615 203/222/615 201/207/615
f 202/208/616 204/213/616 149/209/616
f 205/210/617 203/222/617 148/206/617
f 206/212/618 147/211/618 149/209/618
f 79/214/619 205/210/619 147/211/619
f 152/196/620 199/202/620 78/216/620
f 153/205/621 198/194/621 78/216/621
f 199/202/151 214/225/151 216/217/151
f 200/203/152 78/216/152 216/217/152
f 79/214/622 207/227/622 208/219/622
f 209/220/623 207/227/623 79/214/623
f 205/210/624 208/219/624 210/221/624
f 211/223/625 209/220/625 206/212/625
f 210/221/626 212/226/626 201/207/626
f 211/223/627 204/213/627 202/208/627
f 201/207/628 212/226/628 214/225/628
f 215/218/629 213/224/629 202/208/629
f 212/226/630 210/221/630 208/219/630
f 213/224/631 207/227/631 209/220/631
f 207/227/632 216/217/632 214/225/632
f 215/218/633 216/217/633 207/227/633
f 147/211/634 148/206/634 172/120/634
f 173/123/635 149/209/635 147/211/635
f 148/206/636 150/201/636 219/228/636
f 220/229/637 151/204/637 149/209/637
f 152/196/638 221/231/638 219/228/638
f 153/205/639 151/204/639 220/229/639
f 195/195/640 174/189/640 221/231/640
f 196/197/641 153/205/641 222/230/641
f 217/232/642 221/231/642 174/189/642
f 218/233/643 90/117/643 175/192/643
f 223/234/644 219/228/644 221/231/644
f 224/235/645 218/233/645 222/230/645
f 87/118/646 172/120/646 219/228/646
f 220/229/647 173/123/647 88/122/647
f 138/200/648 80/238/648 230/236/648
f 138/200/649 140/193/649 231/237/649
f 141/186/650 139/188/650 230/236/650
f 231/237/651 140/193/651 142/187/651
f 143/184/652 141/186/652 228/239/652
f 229/240/653 142/187/653 144/185/653
f 145/243/654 143/184/654 226/241/654
f 227/242/655 144/185/655 145/243/655
f 226/241/185 237/248/185 239/245/185
f 227/242/186 225/244/186 239/245/186
f 226/241/656 228/239/656 235/247/656
f 236/249/657 229/240/657 227/242/657
f 228/239/147 230/236/147 233/250/147
f 234/251/189 231/237/189 229/240/189
f 80/238/190 232/252/190 233/250/190
f 80/238/191 231/237/191 234/251/191
f 232/252/658 239/245/658 237/248/658
f 238/246/659 239/245/659 232/252/659
f 191/180/660 189/182/660 242/253/660
f 243/255/661 190/183/661 192/181/661
f 120/177/662 191/180/662 240/254/662
f 241/256/663 192/181/663 121/178/663
f 120/177/664 262/257/664 264/259/664
f 121/178/665 119/670/665 265/260/665
f 122/173/666 260/263/666 242/253/666
f 123/176/667 190/183/667 243/255/667
f 122/173/668 124/171/668 258/262/668
f 259/264/669 125/174/669 123/176/669
f 124/171/670 126/169/670 256/265/670
f 257/266/671 127/172/671 125/174/671
f 126/169/672 128/167/672 254/267/672
f 255/268/673 129/170/673 127/172/673
f 128/167/674 130/165/674 252/269/674
f 253/270/675 131/168/675 129/170/675
f 132/163/676 250/272/676 252/269/676
f 133/166/677 131/168/677 253/270/677
f 134/161/678 248/275/678 250/272/678
f 135/164/679 133/166/679 251/271/679
f 134/161/680 187/160/680 244/274/680
f 245/276/681 188/162/681 135/164/681
f 187/160/682 136/157/682 246/277/682
f 247/278/683 137/159/683 188/162/683
f 136/157/684 118/158/684 264/259/684
f 265/260/685 119/670/685 137/159/685
f 264/259/686 266/301/686 284/279/686
f 265/260/687 247/278/687 285/280/687
f 244/274/688 246/277/688 284/279/688
f 285/280/689 247/278/689 245/276/689
f 244/274/690 286/282/690 282/284/690
f 245/276/691 249/273/691 283/285/691
f 248/275/692 282/284/692 280/286/692
f 249/273/693 251/271/693 281/287/693
f 252/269/694 250/272/694 280/286/694
f 281/287/695 251/271/695 253/270/695
f 252/269/696 278/288/696 276/290/696
f 253/270/697 255/268/697 277/291/697
f 256/265/698 254/267/698 276/290/698
f 277/291/699 255/268/699 257/266/699
f 256/265/700 274/292/700 272/294/700
f 257/266/701 259/264/701 273/295/701
f 258/262/702 272/294/702 270/296/702
f 259/264/703 261/261/703 271/297/703
f 242/253/240 260/263/240 270/296/240
f 271/297/241 261/261/241 243/255/241
f 264/259/704 262/257/704 268/300/704
f 269/302/705 263/258/705 265/260/705
f 262/257/706 240/254/706 290/303/706
f 291/304/707 241/256/707 263/258/707
f 240/254/708 242/253/708 288/298/708
f 289/299/709 243/255/709 241/256/709
f 75/154/710 116/150/710 292/305/710
f 293/307/711 117/152/711 75/154/711
f 116/308/712 114/315/712 294/309/712
f 295/311/713 115/671/713 117/312/713
f 112/314/714 296/319/714 294/309/714
f 113/316/715 115/671/715 295/311/715
f 110/318/716 298/323/716 296/319/716
f 111/320/717 113/316/717 297/317/717
f 108/322/718 300/327/718 298/323/718
f 109/324/719 111/320/719 299/321/719
f 108/322/720 106/330/720 302/326/720
f 303/328/721 107/672/721 109/324/721
f 104/329/722 304/334/722 302/326/722
f 105/331/723 107/672/723 303/328/723
f 104/329/724 102/336/724 306/333/724
f 307/335/725 103/339/725 105/331/725
f 102/336/726 100/385/726 308/337/726
f 309/338/727 101/386/727 103/339/727
f 317/340/728 336/368/728 346/341/728
f 317/343/729 316/348/729 347/344/729
f 316/342/730 346/341/730 344/346/730
f 316/348/731 315/352/731 345/349/731
f 315/347/732 344/346/732 348/350/732
f 315/352/733 314/351/733 349/353/733
f 97/354/734 99/673/734 314/351/734
f 314/351/735 99/673/735 98/355/735
f 95/356/736 97/354/736 348/350/736
f 349/353/737 98/355/737 96/358/737
f 93/360/738 95/356/738 342/357/738
f 343/359/739 96/358/739 94/362/739
f 91/364/740 93/360/740 338/361/740
f 339/363/741 94/362/741 92/366/741
f 338/361/742 344/346/742 346/341/742
f 347/344/743 345/349/743 339/363/743
f 342/357/744 348/350/744 344/346/744
f 343/359/745 339/363/745 345/349/745
f 340/365/746 346/341/746 336/368/746
f 341/367/747 335/372/747 337/345/747
f 89/370/748 91/364/748 340/365/748
f 341/367/749 92/366/749 90/371/749
f 350/373/750 352/674/750 223/234/750
f 351/374/751 218/233/751 224/235/751
f 334/369/752 350/401/752 217/376/752
f 335/372/753 90/371/753 218/377/753
f 223/379/754 352/485/754 354/380/754
f 224/382/755 88/675/755 355/383/755
f 354/380/756 308/337/756 100/385/756
f 355/383/757 88/675/757 101/386/757
f 332/387/758 360/393/758 312/388/758
f 333/390/759 85/409/759 312/391/759
f 360/393/760 358/475/760 86/394/760
f 361/392/761 312/391/761 86/395/761
f 86/394/762 358/475/762 356/397/762
f 357/399/763 359/396/763 86/395/763
f 313/398/764 356/397/764 336/368/764
f 337/345/765 357/399/765 313/400/765
f 336/368/766 356/397/766 350/401/766
f 337/345/767 335/372/767 351/378/767
f 304/334/768 306/333/768 326/402/768
f 327/404/769 307/335/769 305/332/769
f 324/406/770 332/387/770 85/389/770
f 325/408/771 84/422/771 85/409/771
f 366/410/772 364/448/772 311/411/772
f 367/413/773 310/455/773 311/414/773
f 311/416/774 364/676/774 362/417/774
f 363/419/775 365/677/775 311/420/775
f 83/418/776 362/417/776 324/406/776
f 325/408/777 363/419/777 83/421/777
f 300/423/778 302/326/778 370/424/778
f 371/426/779 303/328/779 301/427/779
f 372/429/780 370/467/780 376/430/780
f 377/432/781 371/469/781 373/433/781
f 374/431/782 376/430/782 378/435/782
f 379/437/783 377/432/783 375/434/783
f 380/439/784 378/678/784 384/440/784
f 385/442/785 379/474/785 381/443/785
f 386/445/786 382/441/786 384/440/786
f 387/447/787 323/679/787 385/442/787
f 324/406/788 362/417/788 382/441/788
f 383/444/789 363/419/789 325/408/789
f 362/417/790 364/676/790 380/439/790
f 381/443/791 365/677/791 363/419/791
f 364/448/792 366/410/792 374/431/792
f 375/434/793 367/413/793 365/415/793
f 366/410/794 368/452/794 372/429/794
f 373/433/795 369/454/795 367/413/795
f 300/423/796 372/425/796 368/449/796
f 301/427/797 299/460/797 369/451/797
f 368/452/798 366/410/798 310/412/798
f 369/454/799 82/463/799 310/455/799
f 292/456/800 294/680/800 296/457/800
f 297/458/801 295/681/801 293/459/801
f 292/461/802 298/682/802 368/452/802
f 369/454/803 299/683/803 293/462/803
f 304/334/804 318/403/804 370/424/804
f 305/332/805 303/328/805 371/426/805
f 318/466/806 320/470/806 376/430/806
f 377/432/807 321/471/807 319/468/807
f 320/470/808 390/684/808 378/435/808
f 379/437/809 391/685/809 321/471/809
f 384/440/810 378/678/810 390/472/810
f 385/442/811 323/679/811 391/473/811
f 358/475/812 394/489/812 392/476/812
f 359/396/813 357/399/813 393/477/813
f 392/476/814 394/489/814 328/479/814
f 393/477/815 327/404/815 329/480/815
f 306/333/816 308/337/816 392/476/816
f 393/477/817 309/338/817 307/335/817
f 308/481/818 352/674/818 350/373/818
f 351/374/819 353/375/819 309/483/819
f 330/486/820 388/490/820 386/445/820
f 331/487/821 323/679/821 387/447/821
f 386/445/822 388/490/822 332/387/822
f 387/447/823 325/408/823 333/390/823
f 394/489/824 388/490/824 330/486/824
f 395/478/825 329/480/825 331/487/825
f 360/393/826 388/490/826 394/489/826
f 361/392/827 359/396/827 395/478/827
f 396/491/828 422/543/828 410/492/828
f 397/494/829 409/500/829 411/495/829
f 408/493/830 410/492/830 412/497/830
f 413/499/831 411/495/831 409/500/831
f 412/497/832 414/505/832 404/502/832
f 413/499/833 407/501/833 405/503/833
f 414/505/834 416/509/834 402/506/834
f 415/504/835 405/503/835 403/507/835
f 416/509/836 418/517/836 400/510/836
f 417/508/837 403/507/837 401/511/837
f 400/510/838 418/517/838 420/513/838
f 421/515/839 419/512/839 401/511/839
f 418/517/840 428/520/840 426/518/840
f 427/519/841 429/521/841 419/512/841
f 416/509/842 430/598/842 428/520/842
f 429/521/843 431/524/843 417/508/843
f 432/522/844 430/598/844 416/509/844
f 433/523/845 415/504/845 417/508/845
f 434/525/846 432/522/846 414/505/846
f 435/526/847 413/499/847 415/504/847
f 436/527/848 434/525/848 412/497/848
f 437/528/849 411/495/849 413/499/849
f 410/492/850 422/543/850 424/529/850
f 425/530/851 423/496/851 411/495/851
f 328/479/852 452/571/852 450/531/852
f 329/480/853 327/404/853 451/532/853
f 398/534/854 420/545/854 452/535/854
f 399/537/855 329/661/855 453/538/855
f 318/403/856 326/402/856 450/531/856
f 451/532/857 327/404/857 319/405/857
f 390/542/858 438/563/858 422/543/858
f 423/496/859 439/564/859 391/544/859
f 420/545/860 426/686/860 448/546/860
f 449/547/861 427/687/861 421/539/861
f 454/548/862 452/535/862 448/546/862
f 455/550/863 447/553/863 449/547/863
f 442/551/864 454/548/864 446/549/864
f 447/553/865 455/550/865 443/554/865
f 456/556/866 454/548/866 442/551/866
f 457/558/867 441/562/867 443/554/867
f 456/556/868 440/557/868 458/559/868
f 457/558/869 439/688/869 459/561/869
f 438/563/870 458/689/870 424/529/870
f 439/564/871 423/496/871 425/530/871
f 320/540/872 456/568/872 438/566/872
f 439/567/873 457/569/873 321/541/873
f 450/531/874 454/572/874 456/568/874
f 451/532/875 321/541/875 457/569/875
f 424/529/876 458/689/876 460/573/876
f 461/575/877 459/565/877 425/530/877
f 440/557/878 470/581/878 460/577/878
f 441/562/879 459/561/879 461/578/879
f 440/557/426 442/551/426 468/580/426
f 469/582/427 443/554/427 441/562/427
f 444/552/880 466/584/880 468/580/880
f 445/555/881 443/554/881 469/582/881
f 446/549/882 464/587/882 466/584/882
f 447/553/883 445/555/883 467/583/883
f 446/549/884 448/546/884 462/586/884
f 463/588/885 449/547/885 447/553/885
f 448/546/886 426/686/886 482/589/886
f 483/590/887 427/687/887 449/547/887
f 436/527/888 424/529/888 484/574/888
f 485/576/889 425/530/889 437/528/889
f 434/525/890 436/527/890 472/591/890
f 473/592/891 437/528/891 435/526/891
f 432/522/892 434/525/892 474/593/892
f 475/594/893 435/526/893 433/523/893
f 432/522/894 476/595/894 478/597/894
f 433/523/895 431/524/895 479/599/895
f 430/598/896 478/597/896 480/600/896
f 431/524/897 429/521/897 481/601/897
f 428/520/898 480/600/898 482/602/898
f 429/521/899 427/519/899 483/603/899
f 464/587/900 488/690/900 486/604/900
f 465/585/901 467/583/901 487/605/901
f 488/607/902 490/691/902 492/608/902
f 489/606/903 487/605/903 493/610/903
f 492/608/904 490/691/904 496/612/904
f 497/614/905 491/622/905 493/615/905
f 496/612/906 498/623/906 500/617/906
f 497/614/907 495/616/907 501/618/907
f 472/591/908 484/574/908 494/613/908
f 495/616/909 485/576/909 473/592/909
f 492/608/910 494/613/910 484/574/910
f 493/615/911 461/575/911 485/576/911
f 470/581/912 486/604/912 492/620/912
f 471/579/913 461/578/913 493/610/913
f 466/584/914 486/604/914 470/581/914
f 471/579/915 487/605/915 467/583/915
f 482/589/916 488/690/916 464/587/916
f 483/590/917 463/588/917 465/585/917
f 480/600/918 490/691/918 488/607/918
f 489/621/919 491/622/919 481/601/919
f 496/612/920 490/691/920 480/600/920
f 497/614/921 479/599/921 481/601/921
f 498/623/922 496/612/922 478/597/922
f 499/619/923 477/596/923 479/599/923
f 474/593/924 500/617/924 498/623/924
f 499/619/925 501/618/925 475/594/925
f 400/624/926 398/534/926 512/625/926
f 513/627/927 399/537/927 401/628/927
f 402/630/928 400/624/928 510/626/928
f 511/629/929 401/628/929 403/632/929
f 402/506/930 508/652/930 506/634/930
f 403/507/931 405/503/931 507/635/931
f 404/502/932 506/634/932 504/637/932
f 405/503/933 407/642/933 505/639/933
f 406/638/934 504/637/934 502/640/934
f 407/642/935 409/646/935 503/643/935
f 408/641/936 502/640/936 514/644/936
f 409/646/937 397/656/937 515/647/937
f 510/626/938 512/625/938 514/648/938
f 511/629/939 503/651/939 515/650/939
f 502/649/940 504/692/940 508/631/940
f 509/633/941 505/693/941 503/651/941
f 390/653/942 396/645/942 514/644/942
f 391/655/943 323/694/943 515/647/943
f 322/657/944 514/648/944 512/625/944
f 513/627/945 515/650/945 323/659/945
f 328/536/946 330/658/946 512/625/946
f 513/627/947 331/660/947 329/661/947
