# FreeCAD v1.0 build0 Arch module
# https://www.freecad.org
mtllib Suzanne.mtl
o Suzanne
usemtl color_adb5bd
v -1.367188 0.5 0.296875
v -1.351562 0.421875 0.320312
v -1.3125 0.53125 0.054688
v -1.28125 0.429688 0.054688
v -1.265625 0.40625 0.289062
v -1.257812 0.492188 0.242188
v -1.25 0.546875 0.46875
v -1.234375 0.421875 0.507812
v -1.234375 0.445312 0.25
v -1.210938 0.40625 0.078125
v -1.210938 0.484375 0.085938
v -1.1875 0.390625 0.4375
v -1.1875 0.445312 0.09375
v -1.1875 0.484375 0.34375
v -1.171875 0.4375 0.359375
v -1.109375 0.390625 0.210938
v -1.085938 0.390625 0.273438
v -1.054688 0.382812 0.1875
v -1.046875 0.421875 0.0
v -1.039062 0.328125 -0.101562
v -1.039062 0.367188 0.0
v -1.039062 0.414062 0.328125
v -1.039062 0.492188 -0.085938
v -1.03125 0.304688 -0.039062
v -1.023438 0.3125 0.476562
v -1.023438 0.359375 0.34375
v -1.023438 0.484375 0.4375
v -1.015625 0.289062 0.414062
v -1.015625 0.375 0.234375
v -1.0 0.367188 0.125
v -0.960938 0.351562 0.171875
v -0.953125 0.34375 0.289062
v -0.945312 0.289062 0.304688
v -0.9375 0.335938 0.0625
v -0.921875 0.21875 0.359375
v -0.890625 0.234375 0.40625
v -0.890625 0.265625 0.242188
v -0.890625 0.320312 0.234375
v -0.890625 0.328125 0.109375
v -0.882812 0.210938 -0.023438
v -0.882812 0.265625 -0.015625
v -0.859375 -0.59375 0.429688
v -0.859375 0.046875 0.320312
v -0.859375 0.382812 0.382812
v -0.851562 -0.054688 0.234375
v -0.851562 0.320312 0.015625
v -0.84375 0.210938 0.289062
v -0.84375 0.273438 0.015625
v -0.84375 0.320312 0.171875
v -0.835938 0.273438 0.171875
v -0.828125 -0.445312 0.148438
v -0.828125 0.132812 -0.070312
v -0.828125 0.320312 0.078125
v -0.820312 0.203125 0.328125
v -0.820312 0.273438 0.085938
v -0.8125 0.273438 -0.015625
v -0.8125 0.320312 -0.015625
v -0.796875 -0.460938 0.40625
v -0.796875 -0.125 0.5625
v -0.796875 0.117188 0.617188
v -0.796875 0.210938 0.203125
v -0.796875 0.359375 0.539062
v -0.789062 0.328125 -0.125
v -0.773438 -0.375 0.164062
v -0.773438 0.125 -0.140625
v -0.773438 0.4375 0.265625
v -0.765625 0.320312 0.09375
v -0.757812 0.273438 0.09375
v -0.742188 -0.65625 0.375
v -0.734375 -0.070312 -0.046875
v -0.726562 -0.601562 0.203125
v -0.726562 -0.335938 0.40625
v -0.726562 0.070312 0.0
v -0.71875 0.171875 -0.023438
v -0.71875 0.1875 0.039062
v -0.710938 -0.625 0.484375
v -0.6875 -0.726562 0.414062
v -0.679688 -0.492188 0.453125
v -0.640625 -0.648438 0.296875
v -0.640625 -0.054688 0.703125
v -0.640625 0.195312 0.75
v -0.640625 0.429688 -0.007812
v -0.640625 0.445312 0.679688
v -0.632812 -0.539062 -0.039062
v -0.632812 -0.28125 0.453125
v -0.625 -0.648438 0.1875
v -0.625 -0.5625 0.242188
v -0.617188 -0.625 0.054688
v -0.617188 0.585938 0.328125
v -0.601562 -0.664062 0.375
v -0.601562 -0.414062 0.0
v -0.59375 0.164062 -0.125
v -0.585938 -0.6875 0.289062
v -0.578125 -0.679688 0.195312
v -0.5625 -0.695312 0.351562
v -0.5625 -0.671875 0.242188
v -0.554688 -0.671875 0.28125
v -0.546875 -0.671875 0.210938
v -0.546875 -0.578125 0.054688
v -0.546875 -0.578125 0.4375
v -0.53125 -0.679688 0.335938
v -0.5 -0.6875 0.09375
v -0.5 -0.6875 0.390625
v -0.492188 -0.6875 0.601562
v -0.492188 -0.671875 0.0625
v -0.484375 -0.554688 0.554688
v -0.484375 0.546875 0.023438
v -0.476562 -0.773438 0.242188
v -0.476562 -0.71875 0.101562
v -0.46875 -0.757812 0.242188
v -0.460938 -0.703125 0.117188
v -0.460938 -0.429688 0.523438
v -0.460938 0.703125 0.4375
v -0.453125 -0.234375 0.851562
v -0.453125 0.070312 0.929688
v -0.453125 0.382812 0.867188
v -0.445312 -0.78125 0.15625
v -0.445312 -0.78125 0.335938
v -0.4375 -0.796875 0.546875
v -0.4375 -0.765625 0.164062
v -0.4375 -0.765625 0.328125
v -0.4375 -0.53125 -0.140625
v -0.4375 -0.46875 -0.09375
v -0.429688 -0.71875 0.4375
v -0.429688 0.210938 -0.195312
v -0.421875 -0.773438 0.398438
v -0.414062 -0.75 0.390625
v -0.40625 -0.148438 -0.171875
v -0.398438 -0.671875 -0.046875
v -0.375 -0.742188 0.0625
v -0.375 -0.726562 0.085938
v -0.375 -0.703125 0.015625
v -0.367188 -0.53125 -0.890625
v -0.351562 -0.828125 0.242188
v -0.351562 -0.804688 0.117188
v -0.351562 -0.804688 0.375
v -0.351562 -0.78125 0.132812
v -0.351562 -0.78125 0.359375
v -0.351562 -0.71875 0.03125
v -0.351562 -0.71875 0.453125
v -0.351562 -0.617188 -0.023438
v -0.351562 -0.617188 0.515625
v -0.351562 -0.570312 -0.695312
v -0.34375 0.539062 -0.148438
v -0.335938 -0.757812 0.429688
v -0.335938 -0.75 0.40625
v -0.335938 -0.59375 0.6875
v -0.335938 0.664062 0.054688
v -0.328125 -0.742188 0.476562
v -0.328125 -0.523438 -0.945312
v -0.328125 -0.398438 -0.914062
v -0.320312 -0.734375 0.757812
v -0.3125 -0.835938 0.640625
v -0.3125 -0.570312 -0.4375
v -0.296875 0.265625 -0.3125
v -0.289062 -0.382812 -0.710938
v -0.28125 -0.765625 0.398438
v -0.273438 -0.796875 0.164062
v -0.273438 -0.796875 0.328125
v -0.273438 -0.773438 0.421875
v -0.265625 -0.820312 0.15625
v -0.265625 -0.820312 0.335938
v -0.265625 -0.664062 -0.820312
v -0.257812 -0.554688 -0.3125
v -0.25 -0.757812 0.46875
v -0.25 -0.6875 -0.703125
v -0.25 -0.390625 -0.5
v -0.242188 -0.796875 0.242188
v -0.242188 -0.757812 0.125
v -0.234375 -0.757812 0.359375
v -0.234375 -0.632812 -0.914062
v -0.234375 -0.554688 -0.25
v -0.234375 -0.40625 -0.351562
v -0.226562 -0.820312 0.242188
v -0.226562 -0.78125 0.109375
v -0.21875 -0.429688 -0.28125
v -0.210938 -0.78125 0.375
v -0.210938 -0.710938 -0.445312
v -0.210938 -0.46875 -0.226562
v -0.210938 -0.164062 -0.390625
v -0.203125 -0.851562 0.617188
v -0.203125 -0.75 0.171875
v -0.203125 -0.742188 0.09375
v -0.203125 -0.742188 0.390625
v -0.203125 -0.5625 -0.1875
v -0.203125 -0.5 -0.171875
v -0.195312 -0.757812 0.296875
v -0.195312 -0.75 0.226562
v -0.195312 -0.617188 0.664062
v -0.1875 -0.773438 0.15625
v -0.179688 -0.78125 0.296875
v -0.179688 -0.710938 -0.3125
v -0.179688 -0.554688 -0.96875
v -0.179688 -0.257812 -0.414062
v -0.171875 -0.78125 0.21875
v -0.164062 -0.773438 0.414062
v -0.164062 -0.75 0.140625
v -0.164062 -0.710938 -0.242188
v -0.164062 -0.632812 -0.929688
v -0.164062 -0.4375 -0.945312
v -0.15625 -0.757812 0.71875
v -0.15625 -0.648438 0.054688
v -0.15625 -0.648438 0.4375
v -0.140625 -0.742188 0.242188
v -0.140625 -0.367188 -0.757812
v -0.132812 -0.796875 -0.226562
v -0.132812 -0.757812 0.210938
v -0.125 -0.8125 -0.101562
v -0.125 -0.765625 0.304688
v -0.125 -0.75 -0.226562
v -0.125 -0.359375 -0.539062
v -0.117188 -0.734375 -0.6875
v -0.117188 -0.710938 -0.835938
v -0.109375 -0.828125 -0.226562
v -0.109375 -0.78125 -0.132812
v -0.109375 -0.734375 -0.71875
v -0.109375 -0.609375 0.460938
v -0.101562 -0.84375 0.429688
v -0.101562 -0.742188 -0.148438
v -0.09375 -0.8125 -0.15625
v -0.09375 -0.78125 -0.273438
v -0.09375 -0.726562 -0.742188
v -0.09375 -0.710938 -0.820312
v -0.09375 -0.664062 -0.75
v -0.09375 -0.640625 -0.8125
v -0.085938 -0.742188 -0.289062
v -0.078125 -0.804688 -0.25
v -0.078125 -0.75 -0.445312
v -0.078125 -0.65625 0.242188
v -0.0625 -0.75 0.492188
v -0.0625 -0.695312 -0.882812
v -0.046875 -0.8125 -0.148438
v -0.046875 -0.6875 -0.867188
v -0.046875 -0.632812 -0.851562
v -0.039062 -0.78125 -0.125
v 0.0 -0.828125 -0.203125
v 0.0 -0.820312 0.351562
v 0.0 -0.804688 -0.289062
v 0.0 -0.796875 -0.1875
v 0.0 -0.78125 -0.320312
v 0.0 -0.765625 0.210938
v 0.0 -0.75 -0.445312
v 0.0 -0.75 -0.195312
v 0.0 -0.742188 -0.328125
v 0.0 -0.742188 -0.140625
v 0.0 -0.742188 0.429688
v 0.0 -0.734375 -0.765625
v 0.0 -0.734375 -0.679688
v 0.0 -0.726562 0.046875
v 0.0 -0.71875 -0.773438
v 0.0 -0.6875 -0.890625
v 0.0 -0.6875 -0.875
v 0.0 -0.65625 -0.78125
v 0.0 -0.640625 -0.945312
v 0.0 -0.632812 -0.859375
v 0.0 -0.601562 0.40625
v 0.0 -0.578125 -0.984375
v 0.0 -0.570312 0.570312
v 0.0 -0.460938 -0.976562
v 0.0 -0.34375 -0.804688
v 0.0 -0.320312 -0.570312
v 0.0 -0.289062 0.898438
v 0.0 -0.28125 -0.484375
v 0.0 -0.1875 -0.460938
v 0.0 0.078125 0.984375
v 0.0 0.351562 -0.382812
v 0.0 0.546875 0.898438
v 0.0 0.671875 -0.195312
v 0.0 0.828125 0.070312
v 0.0 0.851562 0.5625
v 0.039062 -0.78125 -0.125
v 0.046875 -0.8125 -0.148438
v 0.046875 -0.6875 -0.867188
v 0.046875 -0.632812 -0.851562
v 0.0625 -0.75 0.492188
v 0.0625 -0.695312 -0.882812
v 0.078125 -0.804688 -0.25
v 0.078125 -0.75 -0.445312
v 0.078125 -0.65625 0.242188
v 0.085938 -0.742188 -0.289062
v 0.09375 -0.8125 -0.15625
v 0.09375 -0.78125 -0.273438
v 0.09375 -0.726562 -0.742188
v 0.09375 -0.710938 -0.820312
v 0.09375 -0.664062 -0.75
v 0.09375 -0.640625 -0.8125
v 0.101562 -0.84375 0.429688
v 0.101562 -0.742188 -0.148438
v 0.109375 -0.828125 -0.226562
v 0.109375 -0.78125 -0.132812
v 0.109375 -0.734375 -0.71875
v 0.109375 -0.609375 0.460938
v 0.117188 -0.734375 -0.6875
v 0.117188 -0.710938 -0.835938
v 0.125 -0.8125 -0.101562
v 0.125 -0.765625 0.304688
v 0.125 -0.75 -0.226562
v 0.125 -0.359375 -0.539062
v 0.132812 -0.796875 -0.226562
v 0.132812 -0.757812 0.210938
v 0.140625 -0.742188 0.242188
v 0.140625 -0.367188 -0.757812
v 0.15625 -0.757812 0.71875
v 0.15625 -0.648438 0.054688
v 0.15625 -0.648438 0.4375
v 0.164062 -0.773438 0.414062
v 0.164062 -0.75 0.140625
v 0.164062 -0.710938 -0.242188
v 0.164062 -0.632812 -0.929688
v 0.164062 -0.4375 -0.945312
v 0.171875 -0.78125 0.21875
v 0.179688 -0.78125 0.296875
v 0.179688 -0.710938 -0.3125
v 0.179688 -0.554688 -0.96875
v 0.179688 -0.257812 -0.414062
v 0.1875 -0.773438 0.15625
v 0.195312 -0.757812 0.296875
v 0.195312 -0.75 0.226562
v 0.195312 -0.617188 0.664062
v 0.203125 -0.851562 0.617188
v 0.203125 -0.75 0.171875
v 0.203125 -0.742188 0.09375
v 0.203125 -0.742188 0.390625
v 0.203125 -0.5625 -0.1875
v 0.203125 -0.5 -0.171875
v 0.210938 -0.78125 0.375
v 0.210938 -0.710938 -0.445312
v 0.210938 -0.46875 -0.226562
v 0.210938 -0.164062 -0.390625
v 0.21875 -0.429688 -0.28125
v 0.226562 -0.820312 0.242188
v 0.226562 -0.78125 0.109375
v 0.234375 -0.757812 0.359375
v 0.234375 -0.632812 -0.914062
v 0.234375 -0.554688 -0.25
v 0.234375 -0.40625 -0.351562
v 0.242188 -0.796875 0.242188
v 0.242188 -0.757812 0.125
v 0.25 -0.757812 0.46875
v 0.25 -0.6875 -0.703125
v 0.25 -0.390625 -0.5
v 0.257812 -0.554688 -0.3125
v 0.265625 -0.820312 0.15625
v 0.265625 -0.820312 0.335938
v 0.265625 -0.664062 -0.820312
v 0.273438 -0.796875 0.164062
v 0.273438 -0.796875 0.328125
v 0.273438 -0.773438 0.421875
v 0.28125 -0.765625 0.398438
v 0.289062 -0.382812 -0.710938
v 0.296875 0.265625 -0.3125
v 0.3125 -0.835938 0.640625
v 0.3125 -0.570312 -0.4375
v 0.320312 -0.734375 0.757812
v 0.328125 -0.742188 0.476562
v 0.328125 -0.523438 -0.945312
v 0.328125 -0.398438 -0.914062
v 0.335938 -0.757812 0.429688
v 0.335938 -0.75 0.40625
v 0.335938 -0.59375 0.6875
v 0.335938 0.664062 0.054688
v 0.34375 0.539062 -0.148438
v 0.351562 -0.828125 0.242188
v 0.351562 -0.804688 0.117188
v 0.351562 -0.804688 0.375
v 0.351562 -0.78125 0.132812
v 0.351562 -0.78125 0.359375
v 0.351562 -0.71875 0.03125
v 0.351562 -0.71875 0.453125
v 0.351562 -0.617188 -0.023438
v 0.351562 -0.617188 0.515625
v 0.351562 -0.570312 -0.695312
v 0.367188 -0.53125 -0.890625
v 0.375 -0.742188 0.0625
v 0.375 -0.726562 0.085938
v 0.375 -0.703125 0.015625
v 0.398438 -0.671875 -0.046875
v 0.40625 -0.148438 -0.171875
v 0.414062 -0.75 0.390625
v 0.421875 -0.773438 0.398438
v 0.429688 -0.71875 0.4375
v 0.429688 0.210938 -0.195312
v 0.4375 -0.796875 0.546875
v 0.4375 -0.765625 0.164062
v 0.4375 -0.765625 0.328125
v 0.4375 -0.53125 -0.140625
v 0.4375 -0.46875 -0.09375
v 0.445312 -0.78125 0.15625
v 0.445312 -0.78125 0.335938
v 0.453125 -0.234375 0.851562
v 0.453125 0.070312 0.929688
v 0.453125 0.382812 0.867188
v 0.460938 -0.703125 0.117188
v 0.460938 -0.429688 0.523438
v 0.460938 0.703125 0.4375
v 0.46875 -0.757812 0.242188
v 0.476562 -0.773438 0.242188
v 0.476562 -0.71875 0.101562
v 0.484375 -0.554688 0.554688
v 0.484375 0.546875 0.023438
v 0.492188 -0.6875 0.601562
v 0.492188 -0.671875 0.0625
v 0.5 -0.6875 0.09375
v 0.5 -0.6875 0.390625
v 0.53125 -0.679688 0.335938
v 0.546875 -0.671875 0.210938
v 0.546875 -0.578125 0.054688
v 0.546875 -0.578125 0.4375
v 0.554688 -0.671875 0.28125
v 0.5625 -0.695312 0.351562
v 0.5625 -0.671875 0.242188
v 0.578125 -0.679688 0.195312
v 0.585938 -0.6875 0.289062
v 0.59375 0.164062 -0.125
v 0.601562 -0.664062 0.375
v 0.601562 -0.414062 0.0
v 0.617188 -0.625 0.054688
v 0.617188 0.585938 0.328125
v 0.625 -0.648438 0.1875
v 0.625 -0.5625 0.242188
v 0.632812 -0.539062 -0.039062
v 0.632812 -0.28125 0.453125
v 0.640625 -0.648438 0.296875
v 0.640625 -0.054688 0.703125
v 0.640625 0.195312 0.75
v 0.640625 0.429688 -0.007812
v 0.640625 0.445312 0.679688
v 0.679688 -0.492188 0.453125
v 0.6875 -0.726562 0.414062
v 0.710938 -0.625 0.484375
v 0.71875 0.171875 -0.023438
v 0.71875 0.1875 0.039062
v 0.726562 -0.601562 0.203125
v 0.726562 -0.335938 0.40625
v 0.726562 0.070312 0.0
v 0.734375 -0.070312 -0.046875
v 0.742188 -0.65625 0.375
v 0.757812 0.273438 0.09375
v 0.765625 0.320312 0.09375
v 0.773438 -0.375 0.164062
v 0.773438 0.125 -0.140625
v 0.773438 0.4375 0.265625
v 0.789062 0.328125 -0.125
v 0.796875 -0.460938 0.40625
v 0.796875 -0.125 0.5625
v 0.796875 0.117188 0.617188
v 0.796875 0.210938 0.203125
v 0.796875 0.359375 0.539062
v 0.8125 0.273438 -0.015625
v 0.8125 0.320312 -0.015625
v 0.820312 0.203125 0.328125
v 0.820312 0.273438 0.085938
v 0.828125 -0.445312 0.148438
v 0.828125 0.132812 -0.070312
v 0.828125 0.320312 0.078125
v 0.835938 0.273438 0.171875
v 0.84375 0.210938 0.289062
v 0.84375 0.273438 0.015625
v 0.84375 0.320312 0.171875
v 0.851562 -0.054688 0.234375
v 0.851562 0.320312 0.015625
v 0.859375 -0.59375 0.429688
v 0.859375 0.046875 0.320312
v 0.859375 0.382812 0.382812
v 0.882812 0.210938 -0.023438
v 0.882812 0.265625 -0.015625
v 0.890625 0.234375 0.40625
v 0.890625 0.265625 0.242188
v 0.890625 0.320312 0.234375
v 0.890625 0.328125 0.109375
v 0.921875 0.21875 0.359375
v 0.9375 0.335938 0.0625
v 0.945312 0.289062 0.304688
v 0.953125 0.34375 0.289062
v 0.960938 0.351562 0.171875
v 1.0 0.367188 0.125
v 1.015625 0.289062 0.414062
v 1.015625 0.375 0.234375
v 1.023438 0.3125 0.476562
v 1.023438 0.359375 0.34375
v 1.023438 0.484375 0.4375
v 1.03125 0.304688 -0.039062
v 1.039062 0.328125 -0.101562
v 1.039062 0.367188 0.0
v 1.039062 0.414062 0.328125
v 1.039062 0.492188 -0.085938
v 1.046875 0.421875 0.0
v 1.054688 0.382812 0.1875
v 1.085938 0.390625 0.273438
v 1.109375 0.390625 0.210938
v 1.171875 0.4375 0.359375
v 1.1875 0.390625 0.4375
v 1.1875 0.445312 0.09375
v 1.1875 0.484375 0.34375
v 1.210938 0.40625 0.078125
v 1.210938 0.484375 0.085938
v 1.234375 0.421875 0.507812
v 1.234375 0.445312 0.25
v 1.25 0.546875 0.46875
v 1.257812 0.492188 0.242188
v 1.265625 0.40625 0.289062
v 1.28125 0.429688 0.054688
v 1.3125 0.53125 0.054688
v 1.351562 0.421875 0.320312
v 1.367188 0.5 0.296875
vn 0.671349 -0.714456 -0.197087
vn 0.661705 -0.721865 -0.202626
vn -0.671349 -0.714456 -0.197087
vn -0.661705 -0.721865 -0.202626
vn 0.832581 -0.464554 -0.301659
vn 0.826834 -0.472477 -0.305141
vn -0.832581 -0.464554 -0.301659
vn -0.826834 -0.472477 -0.305141
vn 0.425756 -0.428988 -0.796681
vn 0.407628 -0.457032 -0.790545
vn -0.425756 -0.428988 -0.796681
vn -0.407628 -0.457032 -0.790545
vn 0.326496 -0.804985 -0.495378
vn 0.379066 -0.767935 -0.516318
vn -0.326496 -0.804985 -0.495378
vn -0.379066 -0.767935 -0.516318
vn -0.06493 -0.818114 -0.571379
vn -0.08588 -0.848511 -0.522163
vn 0.06493 -0.818114 -0.571379
vn 0.08588 -0.848511 -0.522163
vn -0.27379 -0.483353 -0.83151
vn -0.266353 -0.456978 -0.848662
vn 0.27379 -0.483353 -0.83151
vn 0.266353 -0.456978 -0.848662
vn -0.765569 -0.556775 -0.322344
vn -0.774252 -0.530757 -0.344719
vn 0.765569 -0.556775 -0.322344
vn 0.774252 -0.530757 -0.344719
vn -0.465793 -0.865057 -0.186315
vn -0.470593 -0.859815 -0.198144
vn 0.465793 -0.865057 -0.186315
vn 0.470593 -0.859815 -0.198144
vn -0.498337 -0.847833 0.181215
vn -0.464922 -0.863439 0.195757
vn 0.498337 -0.847833 0.181215
vn 0.464922 -0.863439 0.195757
vn -0.771027 -0.547835 0.324644
vn -0.764041 -0.555663 0.327842
vn 0.771027 -0.547835 0.324644
vn 0.764041 -0.555663 0.327842
vn -0.265909 -0.505231 0.820996
vn -0.241292 -0.527825 0.814358
vn 0.265909 -0.505231 0.820996
vn 0.241292 -0.527825 0.814358
vn -0.055386 -0.830773 0.553849
vn -0.115467 -0.808292 0.577348
vn 0.055386 -0.830773 0.553849
vn 0.115467 -0.808292 0.577348
vn 0.344837 -0.738941 0.578838
vn 0.378343 -0.7702 0.513467
vn -0.344837 -0.738941 0.578838
vn -0.378343 -0.7702 0.513467
vn 0.423135 -0.50403 0.752935
vn 0.40693 -0.478743 0.777954
vn -0.423135 -0.50403 0.752935
vn -0.40693 -0.478743 0.777954
vn 0.828519 -0.47344 0.299016
vn 0.827165 -0.479848 0.292479
vn -0.828519 -0.47344 0.299016
vn -0.827165 -0.479848 0.292479
vn 0.665185 -0.725661 0.175913
vn 0.674819 -0.707577 0.209653
vn -0.665185 -0.725661 0.175913
vn -0.674819 -0.707577 0.209653
vn 0.768354 0.548812 0.329298
vn 0.848019 0.423956 0.318001
vn -0.768354 0.548812 0.329298
vn -0.848019 0.423956 0.318001
vn 0.197729 0.543741 0.815628
vn 0.214285 0.520447 0.826569
vn -0.197729 0.543741 0.815628
vn -0.214285 0.520447 0.826569
vn -0.408253 0.408279 0.816479
vn -0.432036 0.500253 0.750395
vn 0.408253 0.408279 0.816479
vn 0.432036 0.500253 0.750395
vn -0.796376 0.530963 0.289593
vn -0.846168 0.399615 0.352574
vn 0.796376 0.530963 0.289593
vn 0.846168 0.399615 0.352574
vn -0.851938 0.397589 -0.340771
vn -0.778231 0.518865 -0.353744
vn 0.851938 0.397589 -0.340771
vn 0.778231 0.518865 -0.353744
vn -0.405622 0.506989 -0.760548
vn -0.438058 0.412294 -0.798823
vn 0.405622 0.506989 -0.760548
vn 0.438058 0.412294 -0.798823
vn 0.207398 0.518452 -0.829574
vn 0.203663 0.543042 -0.814633
vn -0.207398 0.518452 -0.829574
vn -0.203663 0.543042 -0.814633
vn 0.82976 0.414828 -0.373385
vn 0.768369 0.548795 -0.329292
vn -0.82976 0.414828 -0.373385
vn -0.768369 0.548795 -0.329292
vn 0.400036 -0.914376 -0.062347
vn -0.400036 -0.914376 -0.062347
vn 0.30694 -0.935429 -0.175389
vn -0.30694 -0.935429 -0.175389
vn 0.094504 -0.978474 -0.18346
vn -0.094504 -0.978474 -0.18346
vn -0.062357 -0.997651 -0.028344
vn 0.062357 -0.997651 -0.028344
vn -0.062361 -0.997715 0.025984
vn 0.062361 -0.997715 0.025984
vn 0.099553 -0.979892 0.172919
vn -0.099553 -0.979892 0.172919
vn 0.303574 -0.93831 0.165581
vn -0.303574 -0.93831 0.165581
vn 0.40016 -0.91466 0.05717
vn -0.40016 -0.91466 0.05717
vn 0.105858 -0.461559 -0.880771
vn 0.141432 -0.524676 -0.839471
vn -0.105858 -0.461559 -0.880771
vn -0.141432 -0.524676 -0.839471
vn 0.196725 -0.421543 -0.885213
vn 0.233575 -0.471816 -0.850195
vn -0.196725 -0.421543 -0.885213
vn -0.233575 -0.471816 -0.850195
vn 0.595876 -0.681009 -0.425628
vn 0.578789 -0.640369 -0.504906
vn -0.595876 -0.681009 -0.425628
vn -0.578789 -0.640369 -0.504906
vn 0.756339 -0.653498 -0.029857
vn 0.776302 -0.627173 -0.063325
vn -0.756339 -0.653498 -0.029857
vn -0.776302 -0.627173 -0.063325
vn 0.806933 -0.586607 0.068932
vn 0.747088 -0.655017 0.113194
vn -0.806933 -0.586607 0.068932
vn -0.747088 -0.655017 0.113194
vn 0.233373 -0.583432 -0.77791
vn 0.374653 -0.403954 -0.834539
vn -0.233373 -0.583432 -0.77791
vn -0.374653 -0.403954 -0.834539
vn 0.292809 -0.728652 -0.619136
vn 0.442083 -0.579328 -0.684793
vn -0.292809 -0.728652 -0.619136
vn -0.442083 -0.579328 -0.684793
vn 0.687191 -0.593373 -0.419139
vn 0.694738 -0.584133 -0.419676
vn -0.687191 -0.593373 -0.419139
vn -0.694738 -0.584133 -0.419676
vn 0.572978 -0.696822 -0.431433
vn 0.766749 -0.588302 -0.256897
vn -0.572978 -0.696823 -0.431433
vn -0.766749 -0.588302 -0.256897
vn 0.386058 -0.583654 0.714358
vn 0.573767 -0.690749 -0.440065
vn -0.386058 -0.583654 0.714358
vn -0.573767 -0.690749 -0.440065
vn 0.507932 -0.574765 0.6416
vn 0.505129 -0.56702 0.65064
vn -0.507932 -0.574765 0.6416
vn -0.505129 -0.56702 0.65064
vn 0.615457 -0.615454 0.49237
vn 0.597717 -0.577105 0.556493
vn -0.615457 -0.615454 0.49237
vn -0.597717 -0.577105 0.556493
vn -0.051676 -0.745594 0.664394
vn -0.032796 -0.754197 0.655829
vn 0.051676 -0.745594 0.664394
vn 0.032796 -0.754197 0.655829
vn -0.787932 -0.5334 0.307649
vn -0.655167 -0.681289 0.326499
vn 0.787932 -0.5334 0.307649
vn 0.655167 -0.681289 0.326499
vn -0.622537 -0.553382 0.553368
vn -0.567742 -0.607158 0.555903
vn 0.622537 -0.553382 0.553368
vn 0.567742 -0.607158 0.555903
vn 0.401607 -0.826243 -0.395013
vn 0.648346 -0.660475 -0.378708
vn -0.401607 -0.826243 -0.395013
vn -0.648346 -0.660475 -0.378708
vn 0.218063 -0.856151 -0.46846
vn 0.222636 -0.854478 -0.469362
vn -0.218063 -0.856151 -0.46846
vn -0.222636 -0.854478 -0.469362
vn -0.171073 -0.807476 -0.56455
vn 0.009915 -0.868608 -0.495401
vn 0.171073 -0.807476 -0.56455
vn -0.009915 -0.868608 -0.495401
vn -0.180309 -0.687545 -0.703399
vn 0.046216 -0.8113 -0.582801
vn 0.180309 -0.687545 -0.703399
vn -0.046216 -0.8113 -0.582801
vn 0.420678 -0.668138 -0.613694
vn -0.426254 -0.822057 -0.377531
vn -0.420678 -0.668139 -0.613694
vn 0.426254 -0.822057 -0.377531
vn 0.437344 -0.844711 -0.308535
vn -0.086087 -0.996212 0.012298
vn -0.437344 -0.844711 -0.308535
vn 0.086087 -0.996212 0.012298
vn 0.343363 -0.933242 -0.105646
vn 0.43737 -0.845559 -0.306165
vn -0.343363 -0.933242 -0.105646
vn -0.43737 -0.845559 -0.306165
vn 0.33709 -0.886548 -0.316863
vn 0.331077 -0.918736 -0.215204
vn -0.33709 -0.886548 -0.316863
vn -0.331077 -0.918736 -0.215204
vn 0.428411 -0.89114 0.149444
vn 3e-06 -0.894428 -0.447213
vn -0.428411 -0.89114 0.149444
vn -3e-06 -0.894428 -0.447213
vn -0.03166 -0.981289 -0.189922
vn -0.159828 -0.906692 0.390339
vn 0.03166 -0.981289 -0.189922
vn 0.159828 -0.906692 0.390339
vn 0.429932 -0.542546 -0.721666
vn 0.33464 -0.923906 -0.185512
vn -0.429932 -0.542546 -0.721666
vn -0.33464 -0.923906 -0.185512
vn 0.262315 -0.899368 -0.349754
vn 0.058547 -0.995228 -0.078062
vn -0.262315 -0.899368 -0.349754
vn -0.058547 -0.995228 -0.078062
vn -0.06257 -0.988505 -0.137635
vn 0.057134 -0.971217 -0.231244
vn 0.06257 -0.988505 -0.137635
vn -0.057134 -0.971217 -0.231244
vn -0.013545 -0.759184 -0.650735
vn 0.100821 -0.6966 -0.710341
vn 0.013545 -0.759184 -0.650735
vn -0.100821 -0.6966 -0.710341
vn 0.240415 -0.801421 -0.547654
vn 0.132171 -0.792979 -0.59474
vn -0.240415 -0.801421 -0.547654
vn -0.132171 -0.792979 -0.59474
vn 0.482528 -0.864502 -0.140726
vn 0.17547 -0.914933 -0.363467
vn -0.482528 -0.864502 -0.140726
vn -0.17547 -0.914933 -0.363467
vn 0.282124 -0.959238 -0.016382
vn 0.32884 -0.9437 -0.035969
vn -0.282124 -0.959238 -0.016382
vn -0.32884 -0.9437 -0.035969
vn 0.327251 -0.934027 -0.143176
vn 0.323264 -0.942851 -0.080821
vn -0.327251 -0.934027 -0.143176
vn -0.323264 -0.942851 -0.080821
vn -0.030221 -0.99733 0.066485
vn 0.0 -0.998752 0.049935
vn 0.030221 -0.99733 0.066485
vn 0.0 -0.998752 0.049935
vn 0.0 -0.997925 -0.064382
vn -0.004434 -0.997775 -0.066518
vn 0.0 -0.997925 -0.064382
vn 0.004434 -0.997775 -0.066518
vn 0.0 -1.0 0.0
vn 0.0 -1.0 0.0
vn 0.0 -1.0 0.0
vn 0.0 -1.0 0.0
vn 0.782618 0.130428 -0.608684
vn 0.844657 -0.04445 -0.53346
vn -0.782618 0.130428 -0.608684
vn -0.844657 -0.04445 -0.53346
vn 0.944756 0.26573 0.191896
vn 0.949989 0.158321 0.269175
vn -0.944756 0.26573 0.191896
vn -0.949989 0.158321 0.269175
vn 0.09845 0.452898 0.88611
vn 0.070864 0.382668 0.921164
vn -0.09845 0.452898 0.88611
vn -0.070864 0.382668 0.921164
vn -0.85436 0.08543 0.512611
vn -0.722993 -0.683913 0.097697
vn 0.85436 0.08543 0.512611
vn 0.722993 -0.683913 0.097697
vn 0.398338 -0.270853 -0.876337
vn 0.440217 -0.176104 -0.880452
vn -0.398338 -0.270853 -0.876337
vn -0.440217 -0.176104 -0.880452
vn 0.287344 -0.766259 -0.5747
vn 0.287348 -0.766255 -0.574703
vn -0.287344 -0.766259 -0.5747
vn -0.287348 -0.766255 -0.574703
vn -0.666663 -0.333335 0.66667
vn -0.632636 -0.559658 0.535307
vn 0.666663 -0.333335 0.66667
vn 0.632636 -0.559658 0.535307
vn 0.134754 -0.572754 0.808575
vn 0.086199 -0.625 0.775851
vn -0.134754 -0.572754 0.808575
vn -0.086199 -0.625 0.775851
vn 0.745352 -0.596289 0.298145
vn 0.766268 -0.574688 0.287344
vn -0.745352 -0.596289 0.298145
vn -0.766268 -0.574688 0.287344
vn 0.411609 -0.3087 -0.857486
vn 0.341617 -0.768609 -0.540868
vn -0.411609 -0.3087 -0.857486
vn -0.341617 -0.768609 -0.540868
vn 0.048634 -0.972689 0.226962
vn 0.040388 -0.96935 0.242341
vn -0.048634 -0.972689 0.226962
vn -0.040388 -0.96935 0.242341
vn 0.130431 -0.956523 -0.260866
vn -0.130429 -0.782619 -0.608684
vn -0.130431 -0.956523 -0.260866
vn 0.130429 -0.782619 -0.608684
vn -0.063123 -0.568087 -0.820544
vn -0.505912 -0.859605 0.071638
vn 0.063123 -0.568087 -0.820544
vn 0.505912 -0.859605 0.071638
vn 0.732471 -0.619773 0.281723
vn -0.577341 -0.577362 -0.577348
vn -0.732471 -0.619773 0.281723
vn 0.577341 -0.577362 -0.577348
vn 0.243484 -0.931953 -0.268662
vn 0.729424 -0.664576 0.162106
vn -0.243484 -0.931953 -0.268662
vn -0.729424 -0.664576 0.162106
vn 0.282001 -0.958817 0.033837
vn 0.332822 -0.939732 0.078311
vn -0.282001 -0.958817 0.033837
vn -0.332822 -0.939732 0.078311
vn 0.816498 -0.408244 0.408249
vn 0.791558 -0.58202 0.18625
vn -0.816498 -0.408244 0.408249
vn -0.791558 -0.58202 0.18625
vn 0.868221 -0.374424 0.325576
vn 0.877266 -0.438627 0.194962
vn -0.868221 -0.374424 0.325576
vn -0.877266 -0.438627 0.194962
vn 0.958645 -0.276746 0.066415
vn 0.850545 -0.363759 0.379806
vn -0.958645 -0.276746 0.066415
vn -0.850545 -0.363759 0.379806
vn 0.357926 -0.417606 -0.835161
vn 0.033626 -0.941203 -0.336164
vn -0.357926 -0.417606 -0.835161
vn -0.033626 -0.941203 -0.336164
vn -0.175138 -0.963115 -0.204295
vn -0.12964 -0.972308 -0.194452
vn 0.175138 -0.963115 -0.204295
vn 0.12964 -0.972308 -0.194452
vn -0.121953 -0.975534 -0.182922
vn -0.447206 -0.894431 -1.8e-05
vn 0.121953 -0.975534 -0.182922
vn 0.447206 -0.894431 -1.8e-05
vn -0.156169 -0.937045 0.312344
vn 0.0 -1.0 0.0
vn 0.156169 -0.937045 0.312344
vn 0.0 -1.0 0.0
vn -0.158225 -0.271274 0.949408
vn -0.158245 -0.271257 0.949409
vn 0.158225 -0.271274 0.949408
vn 0.158245 -0.271257 0.949409
vn -0.723848 -0.076188 0.68574
vn -0.64634 -0.209636 0.733687
vn 0.723848 -0.076188 0.68574
vn 0.64634 -0.209636 0.733687
vn -1.0 -0.0 0.0
vn -1.0 0.0 0.0
vn 1.0 0.0 -0.0
vn 1.0 0.0 0.0
vn 0.305142 -0.118112 -0.944954
vn 0.305142 -0.118112 -0.944954
vn -0.305142 -0.118112 -0.944954
vn -0.305142 -0.118112 -0.944954
vn 0.04784 -0.956728 -0.287024
vn 0.021659 -0.952701 -0.303136
vn -0.04784 -0.956728 -0.287024
vn -0.021659 -0.952701 -0.303136
vn 0.135274 -0.927725 -0.34789
vn -0.135274 -0.927725 -0.34789
vn -0.548827 -0.768348 -0.329287
vn -0.468129 -0.854829 -0.223879
vn 0.548827 -0.768348 -0.329287
vn 0.468129 -0.854829 -0.223879
vn -0.494484 -0.861807 -0.113026
vn -0.271036 -0.962188 0.027105
vn 0.494484 -0.861807 -0.113026
vn 0.271036 -0.962188 0.027105
vn -0.270908 -0.962197 0.028019
vn -0.123873 -0.99106 0.049549
vn 0.270908 -0.962197 0.028019
vn 0.123873 -0.99106 0.049549
vn -0.57735 -0.57735 -0.577351
vn -0.548822 -0.768348 -0.329295
vn 0.57735 -0.57735 -0.577351
vn 0.548822 -0.768348 -0.329295
vn -0.115617 -0.763066 -0.635896
vn -0.159943 -0.447845 -0.879689
vn 0.115617 -0.763066 -0.635896
vn 0.159943 -0.447845 -0.879689
vn 0.42418 -0.658998 -0.621122
vn 0.389978 -0.707393 -0.589501
vn -0.42418 -0.658998 -0.621122
vn -0.389978 -0.707393 -0.589501
vn 0.476656 -0.803907 -0.355715
vn 0.654654 -0.600673 -0.458935
vn -0.476656 -0.803907 -0.355715
vn -0.654654 -0.600673 -0.458935
vn 0.587095 -0.805161 -0.083871
vn 0.537785 -0.835281 -0.114421
vn -0.587095 -0.805161 -0.083871
vn -0.537785 -0.835281 -0.114421
vn 0.573165 -0.80991 0.124614
vn 0.567148 -0.816146 0.110673
vn -0.573165 -0.80991 0.124614
vn -0.567148 -0.816146 0.110673
vn 0.434749 -0.56373 0.702283
vn 0.528098 -0.821477 0.215145
vn -0.434749 -0.56373 0.702283
vn -0.528098 -0.821477 0.215145
vn 0.335768 -0.875401 0.347755
vn 0.179585 -0.588641 0.788195
vn -0.335768 -0.875401 0.347755
vn -0.179585 -0.588641 0.788195
vn 0.145161 -0.914578 0.37746
vn 0.188156 -0.921907 0.338652
vn -0.145161 -0.914578 0.37746
vn -0.188156 -0.921907 0.338652
vn 0.030088 -0.97258 0.230613
vn -0.087045 -0.957322 0.275604
vn -0.030088 -0.97258 0.230613
vn 0.087045 -0.957322 0.275604
vn 0.447553 -0.760823 -0.469942
vn 0.082915 -0.953373 -0.29018
vn -0.447553 -0.760823 -0.469942
vn -0.082915 -0.953373 -0.29018
vn 0.262722 -0.938224 -0.225197
vn 0.301505 -0.904543 -0.30149
vn -0.262722 -0.938224 -0.225197
vn -0.301505 -0.904543 -0.30149
vn -0.276294 -0.911762 -0.303895
vn -0.182575 -0.365163 -0.912865
vn 0.276294 -0.911762 -0.303895
vn 0.182575 -0.365163 -0.912865
vn -0.116243 -0.348756 -0.929977
vn 0.045476 -0.659429 -0.75039
vn 0.116243 -0.348756 -0.929977
vn -0.045476 -0.659429 -0.75039
vn -0.335612 -0.910987 -0.239723
vn -0.370674 -0.883909 -0.285141
vn 0.335612 -0.910987 -0.239723
vn 0.370674 -0.883909 -0.285141
vn -0.439234 -0.897561 -0.038187
vn -0.230403 -0.972759 0.025602
vn 0.439234 -0.897561 -0.038187
vn 0.230403 -0.972759 0.025602
vn -0.024678 -0.913025 0.407157
vn -0.279708 -0.804181 0.524458
vn 0.024678 -0.913025 0.407157
vn 0.279708 -0.804181 0.524458
vn -0.082747 -0.744857 0.662073
vn 0.025193 -0.831776 0.554539
vn 0.082747 -0.744857 0.662073
vn -0.025193 -0.831776 0.554539
vn 0.366676 -0.774088 0.516079
vn 0.350176 -0.669905 0.654679
vn -0.366676 -0.774087 0.516079
vn -0.350176 -0.669905 0.654679
vn 0.498787 -0.685832 0.529949
vn 0.498791 -0.68582 0.529961
vn -0.498787 -0.685832 0.529949
vn -0.498791 -0.68582 0.529961
vn 0.789492 -0.526283 -0.315797
vn 0.542529 -0.768559 -0.339085
vn -0.789492 -0.526283 -0.315797
vn -0.542529 -0.768559 -0.339085
vn 0.806976 -0.585044 -0.080703
vn 0.830497 -0.553617 -0.061509
vn -0.806976 -0.585044 -0.080703
vn -0.830497 -0.553617 -0.061509
vn 0.786799 -0.605222 0.121052
vn 0.781409 -0.613952 0.111638
vn -0.786799 -0.605222 0.121052
vn -0.781409 -0.613952 0.111638
vn -0.635709 0.363261 0.681114
vn -0.433798 0.148127 0.88875
vn 0.635709 0.363261 0.681114
vn 0.433798 0.148127 0.88875
vn -0.850679 0.378264 0.365049
vn -0.851538 0.367042 0.374384
vn 0.850679 0.378264 0.365049
vn 0.851538 0.367042 0.374384
vn -0.267239 0.454539 0.849693
vn -0.215625 0.405373 0.888357
vn 0.267239 0.454539 0.849693
vn 0.215625 0.405373 0.888357
vn 0.596283 0.298141 0.745358
vn 0.587874 0.308569 0.74779
vn -0.596283 0.298141 0.745358
vn -0.587874 0.308569 0.74779
vn 0.383924 0.296123 0.874593
vn 0.35024 0.329989 0.876607
vn -0.383924 0.296123 0.874593
vn -0.35024 0.329989 0.876606
vn 0.276046 0.291532 0.915864
vn 0.290083 0.283337 0.914096
vn -0.276046 0.291532 0.915864
vn -0.290083 0.283337 0.914096
vn 0.793635 0.570016 0.212661
vn 0.898142 0.434529 0.067273
vn -0.793635 0.570016 0.212661
vn -0.898142 0.434529 0.067273
vn 0.544157 0.371166 -0.752415
vn 0.510783 0.545016 -0.664875
vn -0.544158 0.371166 -0.752415
vn -0.510783 0.545016 -0.664875
vn 0.40274 0.549189 -0.732252
vn 0.369486 0.360068 -0.85664
vn -0.40274 0.549189 -0.732252
vn -0.369486 0.360068 -0.85664
vn 0.043137 0.90952 -0.413415
vn 0.368296 0.636141 -0.677998
vn -0.043137 0.90952 -0.413415
vn -0.368296 0.636141 -0.677998
vn 0.318357 0.943266 -0.094328
vn 0.171784 0.984868 -0.022906
vn -0.318357 0.943266 -0.094328
vn -0.171784 0.984868 -0.022906
vn 0.309508 0.785654 -0.535679
vn -0.065002 0.931651 -0.357492
vn -0.309508 0.785654 -0.535679
vn 0.065002 0.931651 -0.357492
vn 0.07785 0.066321 -0.994757
vn 0.153295 0.213416 -0.96486
vn -0.07785 0.066321 -0.994757
vn -0.153295 0.213416 -0.96486
vn 0.109452 0.208954 -0.971781
vn 0.12603 0.240602 -0.962407
vn -0.109452 0.208954 -0.971781
vn -0.12603 0.240602 -0.962407
vn 0.815038 0.140527 -0.562108
vn 0.939563 0.304104 0.157294
vn -0.815038 0.140527 -0.562108
vn -0.939563 0.304104 0.157294
vn 0.935847 0.323582 0.139588
vn 0.927816 0.324593 0.183838
vn -0.935847 0.323582 0.139588
vn -0.927816 0.324593 0.183838
vn 0.113189 0.993196 -0.027389
vn 0.219221 0.972662 0.076623
vn -0.113189 0.993196 -0.027389
vn -0.219221 0.972662 0.076623
vn -0.209307 0.97107 -0.114955
vn 0.19915 0.925499 -0.322166
vn 0.209307 0.97107 -0.114955
vn -0.19915 0.925499 -0.322166
vn 0.204117 0.971099 0.123707
vn 0.870302 0.11945 -0.477814
vn -0.204117 0.971099 0.123707
vn -0.870302 0.119449 -0.477814
vn 0.91926 0.368189 0.13928
vn 0.920212 0.367211 0.135518
vn -0.91926 0.368189 0.13928
vn -0.920212 0.367211 0.135518
vn 0.931848 0.218843 0.289424
vn 0.92463 0.157601 0.346729
vn -0.931848 0.218843 0.289424
vn -0.92463 0.157601 0.346729
vn 0.913247 0.279731 0.296192
vn 0.907918 0.190365 0.373424
vn -0.913247 0.279731 0.296192
vn -0.907918 0.190365 0.373424
vn 0.882458 0.11636 0.455773
vn 0.9918 -0.030996 0.123984
vn -0.882458 0.11636 0.455773
vn -0.9918 -0.030996 0.123984
vn 0.279448 0.232873 -0.931493
vn 0.079745 0.598089 -0.797452
vn -0.279448 0.232873 -0.931493
vn -0.079745 0.598089 -0.797452
vn 0.367657 0.798255 -0.477092
vn 0.373117 0.799688 -0.470407
vn -0.367657 0.798255 -0.477092
vn -0.373117 0.799688 -0.470407
vn 0.290626 0.455163 -0.841643
vn 0.330882 0.476723 -0.814403
vn -0.290626 0.455163 -0.841643
vn -0.330882 0.476723 -0.814403
vn 0.261967 0.121675 -0.957376
vn 0.299536 0.136845 -0.94422
vn -0.261967 0.121675 -0.957376
vn -0.299536 0.136845 -0.94422
vn 0.299631 0.136189 -0.944285
vn 0.328657 0.229058 -0.916252
vn -0.299631 0.136189 -0.944285
vn -0.328657 0.229058 -0.916252
vn 0.690267 -0.04963 -0.721851
vn 0.956961 0.134118 0.257367
vn -0.690267 -0.04963 -0.721851
vn -0.956961 0.134118 0.257367
vn 0.686892 -0.352088 -0.635778
vn 0.916562 -0.141442 -0.374042
vn -0.686892 -0.352088 -0.635778
vn -0.916562 -0.141442 -0.374042
vn 0.256741 0.949434 -0.180716
vn 0.436827 0.898528 -0.042786
vn -0.256741 0.949434 -0.180716
vn -0.436826 0.898528 -0.042786
vn 0.129096 -0.2463 0.960557
vn 0.112858 -0.226428 0.967468
vn -0.129096 -0.2463 0.960557
vn -0.112858 -0.226428 0.967468
vn 0.120835 0.194679 0.973396
vn 0.131962 0.17875 0.975005
vn -0.120834 0.194679 0.973396
vn -0.131962 0.17875 0.975005
vn 0.313999 0.758451 0.571101
vn 0.387799 0.682754 0.619241
vn -0.313999 0.758451 0.571101
vn -0.387799 0.682754 0.619241
vn 0.323052 0.181718 0.928771
vn 0.495102 0.110025 0.86184
vn -0.323052 0.181718 0.928771
vn -0.495102 0.110025 0.86184
vn 0.045218 -0.604307 0.795468
vn 0.256134 -0.720239 0.64471
vn -0.045218 -0.604307 0.795468
vn -0.256134 -0.720239 0.64471
vn 0.614433 -0.17378 0.769593
vn 0.596551 -0.147905 0.788829
vn -0.614433 -0.17378 0.769593
vn -0.596551 -0.147905 0.788829
vn 0.69345 0.2212 0.68571
vn 0.712455 0.189986 0.67551
vn -0.69345 0.2212 0.68571
vn -0.712455 0.189986 0.67551
vn 0.716579 0.662779 0.217342
vn 0.590457 0.787973 0.174526
vn -0.716579 0.662779 0.217342
vn -0.590457 0.787973 0.174526
vn 0.31791 0.757373 0.570368
vn 0.682297 0.693337 0.231851
vn -0.31791 0.757373 0.570368
vn -0.682297 0.693337 0.231851
vn 0.628944 0.152471 0.762353
vn 0.657396 0.204018 0.725402
vn -0.628944 0.152471 0.762353
vn -0.657396 0.204018 0.725402
vn 0.708827 -0.175202 0.683277
vn 0.728933 -0.126161 0.67286
vn -0.708827 -0.175202 0.683277
vn -0.728933 -0.126161 0.67286
vn 0.688535 -0.615838 0.382967
vn 0.779117 -0.476432 0.407417
vn -0.688535 -0.615838 0.382967
vn -0.779117 -0.476432 0.407417
vn 0.434689 0.096599 0.895385
vn 0.158044 0.267275 0.950571
vn -0.434689 0.096599 0.895385
vn -0.158044 0.267275 0.950571
vn 0.299337 -0.816741 0.493286
vn 0.156987 -0.749843 0.642721
vn -0.299337 -0.816741 0.493286
vn -0.156987 -0.749843 0.642721
vn -0.181859 0.976635 0.114506
vn -0.168133 0.980627 0.100504
vn 0.181859 0.976635 0.114506
vn 0.168133 0.980627 0.100504
vn -0.263846 0.187092 0.946246
vn 0.292528 -0.769707 0.567431
vn 0.263846 0.187092 0.946246
vn -0.292528 -0.769707 0.567432
vn -0.161577 -0.969431 0.184654
vn 0.161577 -0.969431 0.184654
vn 0.966017 -0.199547 -0.164291
vn 0.498047 0.280153 0.820648
vn -0.966017 -0.199547 -0.164291
vn -0.498047 0.280153 0.820648
vn 0.975806 -0.180034 0.124054
vn 0.927613 -0.36568 0.076241
vn -0.975806 -0.180034 0.124054
vn -0.927613 -0.36568 0.076241
vn 0.961281 0.232963 0.147199
vn 0.974975 -0.048968 0.216855
vn -0.961281 0.232963 0.147199
vn -0.974975 -0.048968 0.216855
vn 0.995115 -0.030308 -0.093953
vn 0.961701 0.231481 0.146792
vn -0.995115 -0.030308 -0.093953
vn -0.961701 0.231481 0.146792
vn 0.662474 0.003702 -0.749076
vn 0.746042 -0.091669 -0.659559
vn -0.662474 0.003702 -0.749076
vn -0.746042 -0.091669 -0.659559
vn 0.372238 -0.084554 -0.924278
vn 0.371875 -0.085003 -0.924383
vn -0.372238 -0.084554 -0.924278
vn -0.371875 -0.085003 -0.924383
vn 0.528124 -0.152234 -0.83541
vn 0.398591 -0.273379 -0.875437
vn -0.528124 -0.152234 -0.83541
vn -0.398591 -0.273379 -0.875437
vn 0.307014 -0.794638 -0.52373
vn 0.632789 -0.124661 -0.764224
vn -0.307014 -0.794638 -0.52373
vn -0.632789 -0.124661 -0.764224
vn 0.732489 -0.240675 -0.636816
vn -0.732489 -0.240675 -0.636816
vn 0.263733 -0.853251 -0.449898
vn -0.263733 -0.853251 -0.449898
vn 0.53826 0.793446 -0.284111
vn 0.570582 0.745581 -0.344305
vn -0.53826 0.793446 -0.284111
vn -0.570582 0.745581 -0.344305
vn 0.431028 0.852018 -0.297119
vn 0.562891 0.783325 -0.263734
vn -0.431028 0.852018 -0.297119
vn -0.562891 0.783325 -0.263734
vn 0.456722 0.432033 -0.777658
vn 0.105937 0.385661 -0.916539
vn -0.456722 0.432033 -0.777658
vn -0.105937 0.385661 -0.916539
vn 0.744955 0.244669 -0.620627
vn 0.697613 0.307748 -0.647014
vn -0.744955 0.244669 -0.620627
vn -0.697613 0.307748 -0.647014
vn 0.497205 0.747333 -0.440773
vn -0.497205 0.747333 -0.440773
vn 0.259062 -0.851203 0.456443
vn 0.480807 -0.839064 0.254551
vn -0.259062 -0.851203 0.456443
vn -0.480807 -0.839064 0.254551
vn 0.464867 -0.846544 0.259349
vn 0.446709 -0.889355 0.097464
vn -0.464867 -0.846544 0.259349
vn -0.446709 -0.889355 0.097464
vn 0.41528 -0.901244 0.1237
vn 0.145939 -0.98508 0.091211
vn -0.41528 -0.901244 0.1237
vn -0.145939 -0.98508 0.091211
vn 0.196562 -0.979166 -0.05096
vn 0.28346 -0.953428 -0.103077
vn -0.196562 -0.979166 -0.05096
vn -0.28346 -0.953428 -0.103077
vn 0.37205 -0.90354 0.212587
vn 0.505826 -0.826595 -0.246742
vn -0.37205 -0.90354 0.212587
vn -0.505826 -0.826595 -0.246742
vn 0.650899 -0.733989 -0.193883
vn 0.59569 -0.704939 -0.384986
vn -0.650899 -0.733989 -0.193882
vn -0.59569 -0.704939 -0.384986
vn 0.407482 -0.520082 0.750649
vn 0.484307 -0.673822 0.558042
vn -0.407482 -0.520082 0.750649
vn -0.484307 -0.673822 0.558042
vn -0.265481 -0.491151 0.829633
vn -0.267528 -0.486408 0.831766
vn 0.265481 -0.491151 0.829633
vn 0.267528 -0.486408 0.831766
vn -0.863865 -0.431942 0.25916
vn -0.800015 -0.56299 0.20741
vn 0.863865 -0.431942 0.25916
vn 0.800015 -0.56299 0.20741
vn -0.528036 -0.770641 -0.356777
vn -0.522494 -0.774526 -0.356525
vn 0.528036 -0.770641 -0.356777
vn 0.522494 -0.774526 -0.356525
vn 0.415649 -0.665805 -0.619628
vn 0.486193 -0.703003 -0.519041
vn -0.415649 -0.665805 -0.619628
vn -0.486193 -0.703003 -0.51904
vn 0.688799 -0.574001 -0.442807
vn 0.710354 -0.535589 -0.456663
vn -0.688799 -0.574001 -0.442807
vn -0.710354 -0.535589 -0.456663
vn 0.622059 0.11508 -0.774467
vn 0.996973 0.067974 -0.037748
vn -0.622059 0.11508 -0.774467
vn -0.996973 0.067974 -0.037748
vn -0.184949 -0.950561 0.249457
vn -0.197106 -0.928724 0.314039
vn 0.184949 -0.950561 0.249457
vn 0.197106 -0.928724 0.314039
vn 0.90456 0.179209 -0.386854
vn 0.904186 0.23323 -0.357843
vn -0.90456 0.179209 -0.386854
vn -0.904186 0.23323 -0.357843
vn 0.178176 -0.979957 -0.089095
vn 0.039984 -0.939624 0.339864
vn -0.178176 -0.979957 -0.089095
vn -0.039984 -0.939624 0.339864
vn -0.233506 -0.374849 0.897197
vn 0.273401 -0.322094 0.90637
vn 0.233506 -0.374849 0.897197
vn -0.273401 -0.322094 0.90637
vn 0.580248 -0.790122 0.197531
vn 0.60679 -0.513432 -0.60679
vn -0.580248 -0.790122 0.197531
vn -0.60679 -0.513432 -0.60679
vn 0.53127 -0.613374 0.5844
vn 0.0 -1.0 0.0
vn -0.53127 -0.613374 0.5844
vn 0.0 -1.0 0.0
vn 0.749673 -0.603908 -0.270712
vn 0.701329 0.127527 -0.701338
vn -0.749673 -0.603908 -0.270712
vn -0.701329 0.127527 -0.701338
vn 0.689499 -0.618988 -0.376092
vn 0.457984 -0.771339 -0.441913
vn -0.689499 -0.618988 -0.376092
vn -0.457984 -0.771339 -0.441913
vn 0.466759 -0.771168 -0.432938
vn 0.715513 -0.561636 -0.41546
vn -0.466759 -0.771168 -0.432938
vn -0.715513 -0.561636 -0.41546
vn 0.877869 -0.007601 -0.47884
vn 0.827144 0.180171 0.532326
vn -0.877869 -0.007601 -0.47884
vn -0.827144 0.180171 0.532326
vn 0.912871 0.182569 -0.365151
vn 0.900501 0.033354 -0.433573
vn -0.912871 0.182569 -0.365151
vn -0.900501 0.033354 -0.433573
vn 0.997202 0.072519 -0.01813
vn -0.997202 0.072519 -0.01813
vn 0.766108 -0.0909 -0.636252
vn 0.689494 -0.288349 -0.664419
vn -0.766108 -0.0909 -0.636252
vn -0.689494 -0.288349 -0.664419
vn 0.77572 -0.129282 -0.617693
vn 0.797077 -0.085407 -0.597808
vn -0.77572 -0.129282 -0.617693
vn -0.797077 -0.085407 -0.597808
vn 0.702242 -0.11705 -0.70225
vn 0.702247 -0.117037 -0.702247
vn -0.702242 -0.11705 -0.70225
vn -0.702247 -0.117037 -0.702247
vn 0.122748 0.143229 0.982048
vn 0.242338 -0.040393 0.969351
vn -0.122748 0.143229 0.982048
vn -0.242338 -0.040393 0.969351
vn 0.937042 -0.156168 0.312352
vn 0.931909 -0.097083 0.349459
vn -0.937042 -0.156168 0.312352
vn -0.931909 -0.097083 0.349459
vn 0.707107 0.0 -0.707107
vn 0.621341 -0.103553 -0.776667
vn -0.707107 0.0 -0.707107
vn -0.621341 -0.103553 -0.776667
vn -0.015714 -0.141414 0.989826
vn -0.0 0.0 1.0
vn 0.015714 -0.141414 0.989826
vn 0.0 0.0 1.0
vn 0.626572 -0.295567 -0.721143
vn 0.619725 -0.374167 -0.689884
vn -0.626572 -0.295567 -0.721143
vn -0.619725 -0.374167 -0.689884
vn 0.271445 -0.335313 -0.902155
vn 0.275241 -0.385337 -0.880771
vn -0.271445 -0.335313 -0.902155
vn -0.275241 -0.385337 -0.880771
vn -0.865125 0.126603 -0.485315
vn -0.792933 0.308926 -0.525187
vn 0.865125 0.126603 -0.485315
vn 0.792933 0.308926 -0.525187
vn -0.847436 0.466068 0.254231
vn -0.816912 0.533823 0.218376
vn 0.847436 0.466068 0.254231
vn 0.816912 0.533823 0.218376
vn -0.63505 0.498964 0.589701
vn -0.483419 0.069065 0.87266
vn 0.63505 0.498964 0.589701
vn 0.483419 0.069065 0.87266
vn -0.172334 0.024621 0.984731
vn 0.040383 -0.141316 0.989141
vn 0.172334 0.024621 0.984731
vn -0.040383 -0.141316 0.989141
vn 0.149029 -0.987252 0.055885
vn 0.137525 -0.990116 -0.027505
vn -0.149029 -0.987252 0.055885
vn -0.137525 -0.990116 -0.027505
vn 0.312352 -0.937042 0.156169
vn 0.339989 -0.93995 -0.030016
vn -0.312352 -0.937042 0.156169
vn -0.339989 -0.93995 -0.030016
vn 0.322803 -0.945341 -0.046135
vn 0.300943 -0.949135 0.09261
vn -0.322803 -0.945341 -0.046135
vn -0.300943 -0.949135 0.09261
vn 0.155873 -0.98717 -0.034622
vn 0.180459 -0.981252 0.067671
vn -0.155873 -0.98717 -0.034622
vn -0.180459 -0.981252 0.067671
vn 0.567879 -0.800508 0.191574
vn -0.009916 -0.922151 0.386703
vn -0.567879 -0.800508 0.191574
vn 0.009916 -0.922151 0.386703
vn 0.400812 -0.916133 -0.00715
vn 0.399967 -0.914201 -0.065296
vn -0.400812 -0.916133 -0.00715
vn -0.399967 -0.914201 -0.065296
vn 0.08289 -0.994618 -0.062168
vn 0.361828 -0.930429 -0.058156
vn -0.08289 -0.994618 -0.062168
vn -0.361828 -0.930429 -0.058156
vn 0.135088 -0.990578 -0.022515
vn 0.0 -1.0 0.0
vn -0.135088 -0.990578 -0.022515
vn 0.0 -1.0 0.0
vn -0.404818 -0.520482 0.751812
vn 0.421643 -0.73786 -0.527048
vn 0.404818 -0.520482 0.751812
vn -0.421643 -0.73786 -0.527048
vn 0.557085 -0.817061 -0.148554
vn 0.669311 -0.720798 0.180202
vn -0.557085 -0.817061 -0.148554
vn -0.669311 -0.720798 0.180202
vn 0.452591 -0.873859 -0.17757
vn 0.443736 -0.87016 -0.21429
vn -0.452591 -0.873859 -0.17757
vn -0.443736 -0.87016 -0.21429
vn 0.411066 -0.340605 -0.845585
vn 0.493218 -0.863572 -0.104781
vn -0.411066 -0.340605 -0.845584
vn -0.493218 -0.863572 -0.104781
vn 0.577093 -0.787485 0.216406
vn 0.5002 -0.818239 0.283346
vn -0.577093 -0.787485 0.216406
vn -0.5002 -0.818239 0.283346
vn 0.297964 -0.757977 0.580249
vn -0.297964 -0.757977 0.580249
vn 0.093119 0.069241 -0.993244
vn 0.092926 0.094393 -0.991189
vn -0.093119 0.069241 -0.993244
vn -0.092926 0.094393 -0.991189
vn 0.516068 0.081203 -0.85269
vn 0.468785 -0.144242 -0.871455
vn -0.516068 0.081203 -0.85269
vn -0.468785 -0.144242 -0.871455
vn 0.924651 -0.28451 -0.253128
vn 0.934092 -0.260178 -0.244498
vn -0.924651 -0.28451 -0.253128
vn -0.934092 -0.260178 -0.244498
vn 0.847951 -0.010614 0.529967
vn 0.83282 0.067584 0.549402
vn -0.847951 -0.010614 0.529967
vn -0.83282 0.067584 0.549402
vn -0.298426 0.318467 0.899734
vn -0.191998 0.217495 0.956991
vn 0.298426 0.318467 0.899734
vn 0.191998 0.217495 0.956991
vn -0.542983 0.186103 0.818862
vn -0.35541 0.072324 0.931908
vn 0.542983 0.186103 0.818862
vn 0.35541 0.072324 0.931908
vn -0.54823 0.836319 -0.003881
vn -0.521509 0.853019 -0.019653
vn 0.54823 0.836319 -0.003881
vn 0.521509 0.853019 -0.019653
vn -0.255562 0.963883 -0.074948
vn -0.146645 0.989135 0.010387
vn 0.255562 0.963883 -0.074948
vn 0.146645 0.989135 0.010387
vn 0.404623 0.914097 0.026581
vn -0.404623 0.914097 0.026581
vn -0.748377 0.027054 0.662722
vn -0.821852 -0.084052 0.563466
vn 0.748377 0.027054 0.662722
vn 0.821852 -0.084052 0.563466
vn 0.684358 0.70879 -0.171089
vn 0.419984 0.878143 -0.229082
vn -0.684358 0.70879 -0.171089
vn -0.419984 0.878143 -0.229082
vn -0.360378 0.42902 -0.828293
vn -0.068684 0.081766 -0.994282
vn 0.360378 0.42902 -0.828293
vn 0.068684 0.081766 -0.994282
f 403//1 396//1 384//1 
f 396//2 403//2 411//2 
f 110//3 102//3 120//3 
f 102//4 110//4 96//4 
f 407//5 411//5 403//5 
f 411//6 407//6 420//6 
f 96//7 99//7 102//7 
f 99//8 96//8 87//8 
f 370//9 403//9 368//9 
f 403//10 370//10 407//10 
f 102//11 141//11 139//11 
f 141//12 102//12 99//12 
f 368//13 384//13 366//13 
f 384//14 368//14 403//14 
f 120//15 139//15 137//15 
f 139//16 120//16 102//16 
f 322//17 366//17 346//17 
f 366//18 322//18 368//18 
f 137//19 183//19 158//19 
f 183//20 137//20 139//20 
f 304//21 368//21 322//21 
f 368//22 304//22 370//22 
f 139//23 202//23 183//23 
f 202//24 139//24 141//24 
f 279//25 322//25 301//25 
f 322//26 279//26 304//26 
f 183//27 229//27 204//27 
f 229//28 183//28 202//28 
f 301//29 346//29 337//29 
f 346//30 301//30 322//30 
f 158//31 204//31 168//31 
f 204//32 158//32 183//32 
f 323//33 337//33 347//33 
f 337//34 323//34 301//34 
f 168//35 184//35 159//35 
f 184//36 168//36 204//36 
f 305//37 301//37 323//37 
f 301//38 305//38 279//38 
f 204//39 203//39 184//39 
f 203//40 204//40 229//40 
f 371//41 323//41 369//41 
f 323//42 371//42 305//42 
f 184//43 142//43 140//43 
f 142//44 184//44 203//44 
f 369//45 347//45 367//45 
f 347//46 369//46 323//46 
f 159//47 140//47 138//47 
f 140//48 159//48 184//48 
f 404//49 367//49 385//49 
f 367//50 404//50 369//50 
f 138//51 103//51 121//51 
f 103//52 138//52 140//52 
f 408//53 369//53 404//53 
f 369//54 408//54 371//54 
f 140//55 100//55 103//55 
f 100//56 140//56 142//56 
f 420//57 404//57 411//57 
f 404//58 420//58 408//58 
f 103//59 87//59 96//59 
f 87//60 103//60 100//60 
f 411//61 385//61 396//61 
f 385//62 411//62 404//62 
f 121//63 96//63 110//63 
f 96//64 121//64 103//64 
f 389//65 396//65 385//65 
f 396//66 389//66 397//66 
f 110//67 118//67 121//67 
f 118//68 110//68 108//68 
f 365//69 385//69 367//69 
f 385//70 365//70 389//70 
f 121//71 136//71 138//71 
f 136//72 121//72 118//72 
f 344//73 367//73 347//73 
f 367//74 344//74 365//74 
f 138//75 162//75 159//75 
f 162//76 138//76 136//76 
f 331//77 347//77 337//77 
f 347//78 331//78 344//78 
f 159//79 174//79 168//79 
f 174//80 159//80 162//80 
f 343//81 337//81 346//81 
f 337//82 343//82 331//82 
f 168//83 161//83 158//83 
f 161//84 168//84 174//84 
f 364//85 346//85 366//85 
f 346//86 364//86 343//86 
f 158//87 135//87 137//87 
f 135//88 158//88 161//88 
f 388//89 366//89 384//89 
f 366//90 388//90 364//90 
f 137//91 117//91 120//91 
f 117//92 137//92 135//92 
f 397//93 384//93 396//93 
f 384//94 397//94 388//94 
f 120//95 108//95 110//95 
f 108//96 120//96 117//96 
f 397//97 363//97 388//97 
f 134//98 108//98 117//98 
f 363//99 364//99 388//99 
f 135//100 134//100 117//100 
f 364//101 363//101 343//101 
f 134//102 135//102 161//102 
f 343//103 363//103 331//103 
f 134//104 161//104 174//104 
f 331//105 363//105 344//105 
f 134//106 174//106 162//106 
f 344//107 363//107 365//107 
f 134//108 162//108 136//108 
f 365//109 363//109 389//109 
f 134//110 136//110 118//110 
f 389//111 363//111 397//111 
f 134//112 118//112 108//112 
f 254//113 314//113 309//113 
f 314//114 254//114 257//114 
f 193//115 254//115 199//115 
f 254//116 193//116 257//116 
f 309//117 356//117 334//117 
f 356//118 309//118 314//118 
f 150//119 199//119 171//119 
f 199//120 150//120 193//120 
f 334//121 373//121 345//121 
f 373//122 334//122 356//122 
f 133//123 171//123 163//123 
f 171//124 133//124 150//124 
f 345//125 372//125 340//125 
f 372//126 345//126 373//126 
f 143//127 163//127 166//127 
f 163//128 143//128 133//128 
f 340//129 353//129 327//129 
f 353//130 340//130 372//130 
f 154//131 166//131 178//131 
f 166//132 154//132 143//132 
f 377//133 324//133 386//133 
f 324//134 377//134 295//134 
f 185//135 129//135 122//135 
f 129//136 185//136 208//136 
f 417//137 386//137 421//137 
f 386//138 417//138 377//138 
f 122//139 88//139 84//139 
f 88//140 122//140 129//140 
f 433//141 421//141 453//141 
f 421//142 433//142 417//142 
f 84//143 71//143 51//143 
f 71//144 84//144 88//144 
f 437//145 453//145 462//145 
f 453//146 437//146 433//146 
f 51//147 69//147 42//147 
f 69//148 51//148 71//148 
f 429//149 462//149 430//149 
f 462//150 429//150 437//150 
f 42//151 77//151 76//151 
f 77//152 42//152 69//152 
f 383//153 430//153 401//153 
f 430//154 383//154 429//154 
f 76//155 119//155 104//155 
f 119//156 76//156 77//156 
f 352//157 401//157 354//157 
f 401//158 352//158 383//158 
f 104//159 153//159 152//159 
f 153//160 104//160 119//160 
f 320//161 354//161 303//161 
f 354//162 320//162 352//162 
f 152//163 181//163 201//163 
f 181//164 152//164 153//164 
f 287//165 303//165 275//165 
f 303//166 287//166 320//166 
f 201//167 218//167 230//167 
f 218//168 201//168 181//168 
f 237//169 275//169 246//169 
f 275//170 237//170 287//170 
f 230//171 237//171 246//171 
f 237//172 230//172 218//172 
f 320//173 306//173 339//173 
f 306//174 320//174 287//174 
f 196//175 181//175 165//175 
f 181//176 196//176 218//176 
f 352//177 339//177 355//177 
f 339//178 352//178 320//178 
f 165//179 153//179 149//179 
f 153//180 165//180 181//180 
f 352//181 381//181 383//181 
f 381//182 352//182 355//182 
f 124//183 153//183 119//183 
f 153//184 124//184 149//184 
f 383//185 415//185 429//185 
f 415//186 383//186 381//186 
f 90//187 119//187 77//187 
f 119//188 90//188 124//188 
f 429//189 423//189 437//189 
f 423//190 429//190 415//190 
f 79//191 77//191 69//191 
f 77//192 79//192 90//192 
f 437//193 419//193 433//193 
f 419//194 437//194 423//194 
f 86//195 69//195 71//195 
f 69//196 86//196 79//196 
f 433//197 402//197 417//197 
f 402//198 433//198 419//198 
f 105//199 71//199 88//199 
f 71//200 105//200 86//200 
f 417//201 376//201 377//201 
f 376//202 417//202 402//202 
f 132//203 88//203 129//203 
f 88//204 132//204 105//204 
f 377//205 322//205 295//205 
f 322//206 377//206 376//206 
f 183//207 129//207 208//207 
f 129//208 183//208 132//208 
f 249//209 322//209 307//209 
f 322//210 249//210 295//210 
f 183//211 249//211 197//211 
f 249//212 183//212 208//212 
f 237//213 306//213 287//213 
f 306//214 237//214 296//214 
f 196//215 237//215 218//215 
f 237//216 196//216 209//216 
f 241//217 296//217 237//217 
f 296//218 241//218 300//218 
f 209//219 241//219 237//219 
f 241//220 209//220 207//220 
f 300//221 249//221 307//221 
f 249//222 300//222 241//222 
f 249//223 207//223 197//223 
f 207//224 249//224 241//224 
f 254//225 276//225 251//225 
f 276//226 254//226 309//226 
f 231//227 254//227 251//227 
f 254//228 231//228 199//228 
f 309//229 294//229 276//229 
f 294//230 309//230 334//230 
f 213//231 199//231 231//231 
f 199//232 213//232 171//232 
f 334//233 291//233 294//233 
f 291//234 334//234 345//234 
f 216//235 171//235 213//235 
f 171//236 216//236 163//236 
f 293//237 327//237 278//237 
f 327//238 293//238 340//238 
f 178//239 212//239 228//239 
f 212//240 178//240 166//240 
f 340//241 291//241 345//241 
f 291//242 340//242 293//242 
f 216//243 166//243 163//243 
f 166//244 216//244 212//244 
f 242//245 280//245 244//245 
f 280//246 242//246 278//246 
f 226//247 242//247 244//247 
f 242//248 226//248 228//248 
f 242//249 293//249 278//249 
f 293//250 242//250 248//250 
f 212//251 242//251 228//251 
f 242//252 212//252 248//252 
f 293//253 247//253 291//253 
f 247//254 293//254 248//254 
f 247//255 212//255 216//255 
f 212//256 247//256 248//256 
f 282//257 297//257 299//257 
f 297//258 282//258 280//258 
f 210//259 221//259 206//259 
f 221//260 210//260 226//260 
f 299//261 288//261 290//261 
f 288//262 299//262 297//262 
f 219//263 206//263 215//263 
f 206//264 219//264 210//264 
f 290//265 245//265 271//265 
f 245//266 290//266 288//266 
f 245//267 215//267 235//267 
f 215//268 245//268 219//268 
f 271//269 243//269 239//269 
f 243//270 271//270 245//270 
f 243//271 235//271 239//271 
f 235//272 243//272 245//272 
f 282//273 244//273 280//273 
f 244//274 282//274 240//274 
f 244//275 221//275 226//275 
f 221//276 244//276 240//276 
f 277//277 240//277 282//277 
f 240//278 277//278 238//278 
f 240//279 227//279 221//279 
f 227//280 240//280 238//280 
f 272//281 239//281 236//281 
f 239//282 272//282 271//282 
f 239//283 232//283 236//283 
f 232//284 239//284 235//284 
f 281//285 271//285 272//285 
f 271//286 281//286 290//286 
f 235//287 220//287 232//287 
f 220//288 235//288 215//288 
f 289//289 290//289 281//289 
f 290//290 289//290 299//290 
f 215//291 214//291 220//291 
f 214//292 215//292 206//292 
f 277//293 299//293 289//293 
f 299//294 277//294 282//294 
f 206//295 227//295 214//295 
f 227//296 206//296 221//296 
f 281//297 236//297 289//297 
f 236//298 281//298 272//298 
f 236//299 220//299 214//299 
f 220//300 236//300 232//300 
f 277//301 236//301 238//301 
f 236//302 277//302 289//302 
f 236//303 227//303 238//303 
f 227//304 236//304 214//304 
f 295//305 245//305 288//305 
f 245//306 295//306 249//306 
f 245//307 208//307 219//307 
f 208//308 245//308 249//308 
f 308//309 288//309 297//309 
f 288//310 308//310 295//310 
f 219//311 198//311 210//311 
f 198//312 219//312 208//312 
f 313//313 297//313 280//313 
f 297//314 313//314 308//314 
f 210//315 192//315 226//315 
f 192//316 210//316 198//316 
f 327//317 280//317 278//317 
f 280//318 327//318 313//318 
f 226//319 178//319 228//319 
f 178//320 226//320 192//320 
f 313//321 353//321 342//321 
f 353//322 313//322 327//322 
f 154//323 192//323 164//323 
f 192//324 154//324 178//324 
f 308//325 342//325 335//325 
f 342//326 308//326 313//326 
f 164//327 198//327 172//327 
f 198//328 164//328 192//328 
f 308//329 324//329 295//329 
f 324//330 308//330 335//330 
f 185//331 198//331 208//331 
f 198//332 185//332 172//332 
f 250//333 291//333 247//333 
f 291//334 250//334 283//334 
f 216//335 250//335 247//335 
f 250//336 216//336 222//336 
f 283//337 294//337 291//337 
f 294//338 283//338 284//338 
f 213//339 222//339 216//339 
f 222//340 213//340 223//340 
f 284//341 276//341 294//341 
f 276//342 284//342 273//342 
f 231//343 223//343 213//343 
f 223//344 231//344 233//344 
f 273//345 251//345 276//345 
f 251//346 273//346 252//346 
f 251//347 233//347 231//347 
f 233//348 251//348 252//348 
f 274//349 252//349 273//349 
f 252//350 274//350 255//350 
f 252//351 234//351 233//351 
f 234//352 252//352 255//352 
f 286//353 273//353 284//353 
f 273//354 286//354 274//354 
f 233//355 225//355 223//355 
f 225//356 233//356 234//356 
f 285//357 284//357 283//357 
f 284//358 285//358 286//358 
f 223//359 224//359 222//359 
f 224//360 223//360 225//360 
f 253//361 283//361 250//361 
f 283//362 253//362 285//362 
f 222//363 253//363 250//363 
f 253//364 222//364 224//364 
f 274//365 253//365 255//365 
f 253//366 274//366 285//366 
f 253//367 234//367 255//367 
f 234//368 253//368 224//368 
f 286//369 285//369 274//369 
f 224//370 225//370 234//370 
f 316//371 300//371 307//371 
f 300//372 316//372 311//372 
f 207//373 190//373 197//373 
f 190//374 207//374 195//374 
f 311//375 296//375 300//375 
f 296//376 311//376 312//376 
f 209//377 195//377 207//377 
f 195//378 209//378 191//378 
f 312//379 306//379 296//379 
f 306//380 312//380 326//380 
f 196//381 191//381 209//381 
f 191//382 196//382 177//382 
f 332//383 307//383 322//383 
f 307//384 332//384 316//384 
f 197//385 175//385 183//385 
f 175//386 197//386 190//386 
f 374//387 322//387 376//387 
f 322//388 374//388 332//388 
f 183//389 130//389 132//389 
f 130//390 183//390 175//390 
f 398//391 376//391 402//391 
f 376//392 398//392 374//392 
f 132//393 109//393 105//393 
f 109//394 132//394 130//394 
f 412//395 402//395 419//395 
f 402//396 412//396 398//396 
f 105//397 94//397 86//397 
f 94//398 105//398 109//398 
f 413//399 419//399 423//399 
f 419//400 413//400 412//400 
f 86//401 93//401 79//401 
f 93//402 86//402 94//402 
f 410//403 423//403 415//403 
f 423//404 410//404 413//404 
f 79//405 95//405 90//405 
f 95//406 79//406 93//406 
f 380//407 415//407 381//407 
f 415//408 380//408 410//408 
f 90//409 126//409 124//409 
f 126//410 90//410 95//410 
f 358//411 381//411 355//411 
f 381//412 358//412 380//412 
f 124//413 145//413 149//413 
f 145//414 124//414 126//414 
f 348//415 355//415 339//415 
f 355//416 348//416 358//416 
f 149//417 160//417 165//417 
f 160//418 149//418 145//418 
f 326//419 339//419 306//419 
f 339//420 326//420 348//420 
f 165//421 177//421 196//421 
f 177//422 165//422 160//422 
f 333//423 348//423 326//423 
f 348//424 333//424 349//424 
f 160//425 170//425 177//425 
f 170//426 160//426 157//426 
f 349//427 358//427 348//427 
f 358//428 349//428 359//428 
f 145//429 157//429 160//429 
f 157//430 145//430 146//430 
f 359//431 380//431 358//431 
f 380//432 359//432 379//432 
f 126//433 146//433 145//433 
f 146//434 126//434 127//434 
f 379//435 410//435 380//435 
f 410//436 379//436 405//436 
f 95//437 127//437 126//437 
f 127//438 95//438 101//438 
f 405//439 413//439 410//439 
f 413//440 405//440 409//440 
f 93//441 101//441 95//441 
f 101//442 93//442 97//442 
f 409//443 412//443 413//443 
f 412//444 409//444 406//444 
f 94//445 97//445 93//445 
f 97//446 94//446 98//446 
f 406//447 398//447 412//447 
f 398//448 406//448 393//448 
f 109//449 98//449 94//449 
f 98//450 109//450 111//450 
f 393//451 374//451 398//451 
f 374//452 393//452 375//452 
f 130//453 111//453 109//453 
f 111//454 130//454 131//454 
f 375//455 332//455 374//455 
f 332//456 375//456 338//456 
f 175//457 131//457 130//457 
f 131//458 175//458 169//458 
f 338//459 316//459 332//459 
f 316//460 338//460 321//460 
f 190//461 169//461 175//461 
f 169//462 190//462 182//462 
f 317//463 326//463 312//463 
f 326//464 317//464 333//464 
f 177//465 187//465 191//465 
f 187//466 177//466 170//466 
f 318//467 312//467 311//467 
f 312//468 318//468 317//468 
f 191//469 188//469 195//469 
f 188//470 191//470 187//470 
f 321//471 311//471 316//471 
f 311//472 321//472 318//472 
f 195//473 182//473 190//473 
f 182//474 195//474 188//474 
f 292//475 246//475 275//475 
f 246//476 292//476 256//476 
f 246//477 217//477 230//477 
f 217//478 246//478 256//478 
f 319//479 275//479 303//479 
f 275//480 319//480 292//480 
f 230//481 189//481 201//481 
f 189//482 230//482 217//482 
f 360//483 303//483 354//483 
f 303//484 360//484 319//484 
f 201//485 147//485 152//485 
f 147//486 201//486 189//486 
f 399//487 354//487 401//487 
f 354//488 399//488 360//488 
f 152//489 106//489 104//489 
f 106//490 152//490 147//490 
f 428//491 401//491 430//491 
f 401//492 428//492 399//492 
f 104//493 78//493 76//493 
f 78//494 104//494 106//494 
f 444//495 430//495 462//495 
f 430//496 444//496 428//496 
f 76//497 58//497 42//497 
f 58//498 76//498 78//498 
f 440//499 462//499 453//499 
f 462//500 440//500 444//500 
f 42//501 64//501 51//501 
f 64//502 42//502 58//502 
f 416//503 453//503 421//503 
f 453//504 416//504 440//504 
f 51//505 91//505 84//505 
f 91//506 51//506 64//506 
f 387//507 421//507 386//507 
f 421//508 387//508 416//508 
f 84//509 123//509 122//509 
f 123//510 84//510 91//510 
f 315//511 261//511 263//511 
f 261//512 315//512 298//512 
f 261//513 194//513 263//513 
f 194//514 261//514 211//514 
f 298//515 260//515 261//515 
f 260//516 298//516 302//516 
f 260//517 211//517 261//517 
f 211//518 260//518 205//518 
f 302//519 259//519 260//519 
f 259//520 302//520 310//520 
f 259//521 205//521 260//521 
f 205//522 259//522 200//522 
f 259//523 314//523 257//523 
f 314//524 259//524 310//524 
f 193//525 259//525 257//525 
f 259//526 193//526 200//526 
f 310//527 356//527 314//527 
f 356//528 310//528 357//528 
f 150//529 200//529 193//529 
f 200//530 150//530 151//530 
f 357//531 373//531 356//531 
f 373//532 357//532 350//532 
f 133//533 151//533 150//533 
f 151//534 133//534 156//534 
f 350//535 372//535 373//535 
f 372//536 350//536 341//536 
f 143//537 156//537 133//537 
f 156//538 143//538 167//538 
f 298//539 350//539 302//539 
f 350//540 298//540 341//540 
f 156//541 211//541 205//541 
f 211//542 156//542 167//542 
f 310//543 350//543 357//543 
f 350//544 310//544 302//544 
f 156//545 200//545 151//545 
f 200//546 156//546 205//546 
f 298//547 336//547 341//547 
f 336//548 298//548 315//548 
f 173//549 211//549 167//549 
f 211//550 173//550 194//550 
f 341//551 353//551 372//551 
f 353//552 341//552 336//552 
f 154//553 167//553 143//553 
f 167//554 154//554 173//554 
f 328//555 342//555 330//555 
f 342//556 328//556 335//556 
f 164//557 179//557 176//557 
f 179//558 164//558 172//558 
f 330//559 353//559 336//559 
f 353//560 330//560 342//560 
f 154//561 176//561 173//561 
f 176//562 154//562 164//562 
f 328//563 324//563 335//563 
f 324//564 328//564 325//564 
f 185//565 179//565 172//565 
f 179//566 185//566 186//566 
f 387//567 324//567 325//567 
f 324//568 387//568 386//568 
f 185//569 123//569 186//569 
f 123//570 185//570 122//570 
f 362//571 269//571 361//571 
f 269//572 362//572 268//572 
f 269//573 144//573 148//573 
f 144//574 269//574 268//574 
f 351//575 268//575 362//575 
f 268//576 351//576 266//576 
f 268//577 155//577 144//577 
f 155//578 268//578 266//578 
f 329//579 266//579 351//579 
f 266//580 329//580 264//580 
f 266//581 180//581 155//581 
f 180//582 266//582 264//582 
f 315//583 264//583 329//583 
f 264//584 315//584 263//584 
f 264//585 194//585 180//585 
f 194//586 264//586 263//586 
f 329//587 336//587 315//587 
f 336//588 329//588 330//588 
f 173//589 180//589 194//589 
f 180//590 173//590 176//590 
f 436//591 440//591 416//591 
f 440//592 436//592 460//592 
f 64//593 70//593 91//593 
f 70//594 64//594 45//594 
f 361//595 270//595 395//595 
f 270//596 361//596 269//596 
f 270//597 148//597 113//597 
f 148//598 270//598 269//598 
f 391//599 262//599 390//599 
f 262//600 391//600 265//600 
f 262//601 115//601 114//601 
f 115//602 262//602 265//602 
f 392//603 265//603 391//603 
f 265//604 392//604 267//604 
f 265//605 116//605 115//605 
f 116//606 265//606 267//606 
f 395//607 267//607 392//607 
f 267//608 395//608 270//608 
f 267//609 113//609 116//609 
f 113//610 267//610 270//610 
f 434//611 428//611 444//611 
f 428//612 434//612 422//612 
f 78//613 72//613 58//613 
f 72//614 78//614 85//614 
f 445//615 422//615 434//615 
f 422//616 445//616 424//616 
f 85//617 59//617 72//617 
f 59//618 85//618 80//618 
f 446//619 424//619 445//619 
f 424//620 446//620 425//620 
f 80//621 60//621 59//621 
f 60//622 80//622 81//622 
f 448//623 425//623 446//623 
f 425//624 448//624 427//624 
f 81//625 62//625 60//625 
f 62//626 81//626 83//626 
f 427//627 442//627 418//627 
f 442//628 427//628 448//628 
f 66//629 83//629 89//629 
f 83//630 66//630 62//630 
f 427//631 395//631 392//631 
f 395//632 427//632 418//632 
f 113//633 83//633 116//633 
f 83//634 113//634 89//634 
f 425//635 392//635 391//635 
f 392//636 425//636 427//636 
f 116//637 81//637 115//637 
f 81//638 116//638 83//638 
f 424//639 391//639 390//639 
f 391//640 424//640 425//640 
f 115//641 80//641 114//641 
f 80//642 115//642 81//642 
f 422//643 390//643 394//643 
f 390//644 422//644 424//644 
f 114//645 85//645 112//645 
f 85//646 114//646 80//646 
f 422//647 399//647 428//647 
f 399//648 422//648 394//648 
f 106//649 85//649 78//649 
f 85//650 106//650 112//650 
f 390//651 258//651 394//651 
f 258//652 390//652 262//652 
f 258//653 114//653 112//653 
f 114//654 258//654 262//654 
f 360//655 292//655 319//655 
f 292//656 360//656 399//656 
f 217//657 147//657 189//657 
f 147//658 217//658 106//658 
f 394//659 292//659 399//659 
f 292//660 394//660 258//660 
f 217//661 112//661 106//661 
f 112//662 217//662 258//662 
f 258//663 256//663 292//663 
f 256//664 258//664 217//664 
f 460//665 444//665 440//665 
f 444//666 460//666 434//666 
f 58//667 45//667 64//667 
f 45//668 58//668 72//668 
f 445//669 460//669 463//669 
f 460//670 445//670 434//670 
f 45//671 59//671 43//671 
f 59//672 45//672 72//672 
f 446//673 463//673 451//673 
f 463//674 446//674 445//674 
f 43//675 60//675 54//675 
f 60//676 43//676 59//676 
f 446//677 442//677 448//677 
f 442//678 446//678 451//678 
f 66//679 60//679 62//679 
f 60//680 66//680 54//680 
f 382//681 329//681 351//681 
f 329//682 382//682 378//682 
f 180//683 125//683 155//683 
f 125//684 180//684 128//684 
f 382//685 436//685 378//685 
f 436//686 382//686 414//686 
f 70//687 125//687 128//687 
f 125//688 70//688 92//688 
f 378//689 416//689 387//689 
f 416//690 378//690 436//690 
f 91//691 128//691 123//691 
f 128//692 91//692 70//692 
f 330//693 387//693 328//693 
f 387//694 330//694 378//694 
f 123//695 176//695 179//695 
f 176//696 123//696 128//696 
f 378//697 330//697 329//697 
f 176//698 128//698 180//698 
f 328//699 387//699 325//699 
f 123//700 179//700 186//700 
f 400//701 442//701 426//701 
f 442//702 400//702 418//702 
f 66//703 107//703 82//703 
f 107//704 66//704 89//704 
f 400//705 395//705 418//705 
f 395//706 400//706 361//706 
f 113//707 107//707 89//707 
f 107//708 113//708 148//708 
f 400//709 414//709 382//709 
f 414//710 400//710 426//710 
f 92//711 107//711 125//711 
f 107//712 92//712 82//712 
f 400//713 351//713 362//713 
f 351//714 400//714 382//714 
f 155//715 107//715 144//715 
f 107//716 155//716 125//716 
f 362//717 361//717 400//717 
f 148//718 144//718 107//718 
f 471//719 479//719 467//719 
f 479//720 471//720 477//720 
f 25//721 35//721 36//721 
f 35//722 25//722 28//722 
f 492//723 479//723 477//723 
f 479//724 492//724 497//724 
f 25//725 12//725 28//725 
f 12//726 25//726 8//726 
f 501//727 497//727 492//727 
f 497//728 501//728 504//728 
f 8//729 5//729 12//729 
f 5//730 8//730 2//730 
f 495//731 504//731 501//731 
f 504//732 495//732 502//732 
f 2//733 10//733 5//733 
f 10//734 2//734 4//734 
f 482//735 502//735 495//735 
f 502//736 482//736 483//736 
f 4//737 24//737 10//737 
f 24//738 4//738 20//738 
f 454//739 483//739 482//739 
f 483//740 454//740 441//740 
f 20//741 52//741 24//741 
f 52//742 20//742 65//742 
f 465//743 482//743 484//743 
f 482//744 465//744 454//744 
f 24//745 40//745 21//745 
f 40//746 24//746 52//746 
f 484//747 495//747 493//747 
f 495//748 484//748 482//748 
f 10//749 21//749 13//749 
f 21//750 10//750 24//750 
f 493//751 501//751 498//751 
f 501//752 493//752 495//752 
f 5//753 13//753 9//753 
f 13//754 5//754 10//754 
f 498//755 492//755 491//755 
f 492//756 498//756 501//756 
f 12//757 9//757 15//757 
f 9//758 12//758 5//758 
f 491//759 477//759 480//759 
f 477//760 491//760 492//760 
f 28//761 15//761 26//761 
f 15//762 28//762 12//762 
f 473//763 477//763 471//763 
f 477//764 473//764 480//764 
f 28//765 33//765 35//765 
f 33//766 28//766 26//766 
f 431//767 436//767 414//767 
f 436//768 431//768 435//768 
f 70//769 74//769 92//769 
f 74//770 70//770 73//770 
f 454//771 414//771 441//771 
f 414//772 454//772 431//772 
f 92//773 52//773 65//773 
f 52//774 92//774 74//774 
f 435//775 460//775 436//775 
f 460//776 435//776 463//776 
f 45//777 73//777 70//777 
f 73//778 45//778 43//778 
f 471//779 451//779 457//779 
f 451//780 471//780 467//780 
f 54//781 35//781 47//781 
f 35//782 54//782 36//782 
f 449//783 454//783 465//783 
f 454//784 449//784 431//784 
f 52//785 56//785 40//785 
f 56//786 52//786 74//786 
f 431//787 458//787 432//787 
f 458//788 431//788 449//788 
f 48//789 74//789 75//789 
f 74//790 48//790 56//790 
f 458//791 438//791 432//791 
f 438//792 458//792 452//792 
f 68//793 48//793 75//793 
f 48//794 68//794 55//794 
f 432//795 456//795 447//795 
f 456//796 432//796 438//796 
f 50//797 75//797 61//797 
f 75//798 50//798 68//798 
f 456//799 457//799 447//799 
f 457//800 456//800 468//800 
f 47//801 50//801 61//801 
f 50//802 47//802 37//802 
f 468//803 471//803 457//803 
f 471//804 468//804 473//804 
f 35//805 37//805 47//805 
f 37//806 35//806 33//806 
f 457//807 463//807 447//807 
f 463//808 457//808 451//808 
f 43//809 47//809 61//809 
f 47//810 43//810 54//810 
f 432//811 463//811 435//811 
f 463//812 432//812 447//812 
f 43//813 75//813 73//813 
f 75//814 43//814 61//814 
f 432//815 435//815 431//815 
f 73//816 75//816 74//816 
f 469//817 473//817 468//817 
f 473//818 469//818 474//818 
f 33//819 38//819 37//819 
f 38//820 33//820 32//820 
f 459//821 468//821 456//821 
f 468//822 459//822 469//822 
f 37//823 49//823 50//823 
f 49//824 37//824 38//824 
f 439//825 456//825 438//825 
f 456//826 439//826 459//826 
f 50//827 67//827 68//827 
f 67//828 50//828 49//828 
f 455//829 438//829 452//829 
f 438//830 455//830 439//830 
f 68//831 53//831 55//831 
f 53//832 68//832 67//832 
f 461//833 452//833 458//833 
f 452//834 461//834 455//834 
f 55//835 46//835 48//835 
f 46//836 55//836 53//836 
f 450//837 458//837 449//837 
f 458//838 450//838 461//838 
f 48//839 57//839 56//839 
f 57//840 48//840 46//840 
f 466//841 449//841 465//841 
f 449//842 466//842 450//842 
f 56//843 41//843 40//843 
f 41//844 56//844 57//844 
f 474//845 480//845 473//845 
f 480//846 474//846 485//846 
f 26//847 32//847 33//847 
f 32//848 26//848 22//848 
f 485//849 491//849 480//849 
f 491//850 485//850 494//850 
f 15//851 22//851 26//851 
f 22//852 15//852 14//852 
f 494//853 498//853 491//853 
f 498//854 494//854 500//854 
f 9//855 14//855 15//855 
f 14//856 9//856 6//856 
f 500//857 493//857 498//857 
f 493//858 500//858 496//858 
f 13//859 6//859 9//859 
f 6//860 13//860 11//860 
f 496//861 484//861 493//861 
f 484//862 496//862 487//862 
f 21//863 11//863 13//863 
f 11//864 21//864 19//864 
f 487//865 465//865 484//865 
f 465//866 487//866 466//866 
f 40//867 19//867 21//867 
f 19//868 40//868 41//868 
f 472//869 455//869 461//869 
f 455//870 472//870 470//870 
f 53//871 34//871 46//871 
f 34//872 53//872 39//872 
f 476//873 470//873 472//873 
f 470//874 476//874 475//874 
f 39//875 30//875 34//875 
f 30//876 39//876 31//876 
f 488//877 475//877 476//877 
f 475//878 488//878 478//878 
f 31//879 18//879 30//879 
f 18//880 31//880 29//880 
f 490//881 478//881 488//881 
f 478//882 490//882 489//882 
f 29//883 16//883 18//883 
f 16//884 29//884 17//884 
f 478//885 485//885 474//885 
f 485//886 478//886 489//886 
f 22//887 29//887 32//887 
f 29//888 22//888 17//888 
f 478//889 469//889 475//889 
f 469//890 478//890 474//890 
f 38//891 29//891 31//891 
f 29//892 38//892 32//892 
f 470//893 469//893 459//893 
f 469//894 470//894 475//894 
f 38//895 39//895 49//895 
f 39//896 38//896 31//896 
f 459//897 455//897 470//897 
f 455//898 459//898 439//898 
f 53//899 49//899 39//899 
f 49//900 53//900 67//900 
f 472//901 450//901 466//901 
f 450//902 472//902 461//902 
f 57//903 34//903 41//903 
f 34//904 57//904 46//904 
f 472//905 487//905 476//905 
f 487//906 472//906 466//906 
f 19//907 34//907 30//907 
f 34//908 19//908 41//908 
f 476//909 496//909 488//909 
f 496//910 476//910 487//910 
f 11//911 30//911 18//911 
f 30//912 11//912 19//912 
f 488//913 500//913 490//913 
f 500//914 488//914 496//914 
f 6//915 18//915 16//915 
f 18//916 6//916 11//916 
f 490//917 494//917 489//917 
f 494//918 490//918 500//918 
f 14//919 16//919 17//919 
f 16//920 14//920 6//920 
f 494//921 485//921 489//921 
f 22//922 14//922 17//922 
f 443//923 483//923 441//923 
f 483//924 443//924 486//924 
f 20//925 63//925 65//925 
f 63//926 20//926 23//926 
f 486//927 502//927 483//927 
f 502//928 486//928 503//928 
f 4//929 23//929 20//929 
f 23//930 4//930 3//930 
f 503//931 504//931 502//931 
f 504//932 503//932 505//932 
f 2//933 3//933 4//933 
f 3//934 2//934 1//934 
f 505//935 497//935 504//935 
f 497//936 505//936 499//936 
f 8//937 1//937 2//937 
f 1//938 8//938 7//938 
f 499//939 479//939 497//939 
f 479//940 499//940 481//940 
f 25//941 7//941 8//941 
f 7//942 25//942 27//942 
f 481//943 467//943 479//943 
f 467//944 481//944 464//944 
f 36//945 27//945 25//945 
f 27//946 36//946 44//946 
f 443//947 481//947 486//947 
f 481//948 443//948 464//948 
f 27//949 63//949 23//949 
f 63//950 27//950 44//950 
f 503//951 481//951 499//951 
f 481//952 503//952 486//952 
f 27//953 3//953 7//953 
f 3//954 27//954 23//954 
f 503//955 499//955 505//955 
f 7//956 3//956 1//956 
f 467//957 442//957 451//957 
f 442//958 467//958 464//958 
f 66//959 36//959 54//959 
f 36//960 66//960 44//960 
f 443//961 442//961 464//961 
f 442//962 443//962 426//962 
f 66//963 63//963 44//963 
f 63//964 66//964 82//964 
f 443//965 414//965 426//965 
f 414//966 443//966 441//966 
f 92//967 63//967 82//967 
f 63//968 92//968 65//968 
